<svg xmlns="http://www.w3.org/2000/svg" viewBox="0 0 47.33 44.07"><defs><style>.cls-1{fill:#8de4ff;}.cls-1,.cls-2,.cls-3{stroke:#0b4054;stroke-linecap:round;stroke-linejoin:round;}.cls-2{fill:#a6e872;}.cls-3{fill:none;}.cls-4{fill:#fff;}</style></defs><title>ac</title><g id="Layer_2" data-name="Layer 2"><g id="Layer_1-2" data-name="Layer 1"><g id="ac"><path class="cls-1" d="M.5.5H46.83a0,0,0,0,1,0,0V17a5.1,5.1,0,0,1-5.1,5.1H5.6A5.1,5.1,0,0,1,.5,17V.5A0,0,0,0,1,.5.5Z"/><path class="cls-2" d="M8.25,16.92H38.16a0,0,0,0,1,0,0V21a1.1,1.1,0,0,1-1.1,1.1H9.35A1.1,1.1,0,0,1,8.25,21V16.92a0,0,0,0,1,0,0Z" transform="translate(46.41 39.03) rotate(180)"/><line class="cls-3" x1="18.26" y1="12.68" x2="28.14" y2="12.68"/><line class="cls-3" x1="23.2" y1="27.23" x2="23.2" y2="38.75"/><path class="cls-3" d="M12.12,27.89S10.69,38.73,2.51,43.13"/><path class="cls-3" d="M34.29,27.89s1.42,10.84,9.6,15.24"/><path class="cls-3" d="M28.52,30.93s.78,8.51,3.89,12.64"/><path class="cls-3" d="M17.89,30.93S17.11,39.44,14,43.57"/><path class="cls-4" d="M14.55,1.35A21.52,21.52,0,0,0,30.42,22.11H41.74A19.85,19.85,0,0,0,44.88,21a5.06,5.06,0,0,0,1.95-4V.5H14.59C14.58.79,14.55,1.07,14.55,1.35Z"/><path class="cls-3" d="M.5.5H46.83a0,0,0,0,1,0,0V17a5.1,5.1,0,0,1-5.1,5.1H5.6A5.1,5.1,0,0,1,.5,17V.5A0,0,0,0,1,.5.5Z"/><path class="cls-3" d="M8.25,16.92H38.16a0,0,0,0,1,0,0V21a1.1,1.1,0,0,1-1.1,1.1H9.35A1.1,1.1,0,0,1,8.25,21V16.92a0,0,0,0,1,0,0Z" transform="translate(46.41 39.03) rotate(180)"/><line class="cls-3" x1="18.26" y1="12.68" x2="28.14" y2="12.68"/><line class="cls-3" x1="23.2" y1="27.23" x2="23.2" y2="38.75"/><path class="cls-3" d="M12.12,27.89S10.69,38.73,2.51,43.13"/><path class="cls-3" d="M34.29,27.89s1.42,10.84,9.6,15.24"/><path class="cls-3" d="M28.52,30.93s.78,8.51,3.89,12.64"/><path class="cls-3" d="M17.89,30.93S17.11,39.44,14,43.57"/></g></g></g></svg>