<svg xmlns="http://www.w3.org/2000/svg" viewBox="0 0 48 48"><defs><style>.cls-1{fill:#ffbdc2;}.cls-1,.cls-2,.cls-3,.cls-5{stroke:#0b4054;stroke-linecap:round;stroke-linejoin:round;}.cls-2{fill:#8de4ff;}.cls-3{fill:#a6e872;}.cls-4{fill:#fff;}.cls-5{fill:none;}</style></defs><title>airport</title><g id="Layer_2" data-name="Layer 2"><g id="Layer_1-2" data-name="Layer 1"><g id="airport"><path class="cls-1" d="M32.18,3a3.41,3.41,0,0,0-2.8,1.26C27.88,5.78,28.24,7,28.24,7l3.94,3.94L36.12,7Z"/><path class="cls-1" d="M7,28.24a3.44,3.44,0,0,0-2.81,1.25C2.67,31,3,32.18,3,32.18l4,3.94,3.94-3.94Z"/><polygon class="cls-2" points="12.42 18.33 0.5 45.15 4.97 47.5 21.79 26.32 12.42 18.33"/><polygon class="cls-2" points="18.33 12.42 45.15 0.5 47.5 4.97 26.32 21.79 18.33 12.42"/><path class="cls-3" d="M46,37.39l-2.18-3.3L39,34.48S14.7,6.14,12.66,4.1,6.88.84,3.82,3.19l0,0c-.11.11-.2.23-.3.34s-.23.19-.34.3l0,0c-2.35,3.06-1,6.94.91,8.84S34.48,39,34.48,39l-.39,4.77L37.39,46l1.93-6.64Z"/><line class="cls-3" x1="35.33" y1="35.29" x2="41.31" y2="41.27"/><path class="cls-4" d="M28.31,7l.65.65-5.71,2.54a13.64,13.64,0,0,0-.69,18.53l3.12,2.69a13.67,13.67,0,0,0,11.83,1.28L27.37,21,41.78,9.51A13.62,13.62,0,0,0,28.31,7Z"/><path class="cls-5" d="M32.18,3a3.41,3.41,0,0,0-2.8,1.26C27.88,5.78,28.24,7,28.24,7l.72.72,5.46-2.42Z"/><path class="cls-5" d="M7,28.24a3.44,3.44,0,0,0-2.81,1.25C2.67,31,3,32.18,3,32.18l2.17,2.17L7.69,29Z"/><polygon class="cls-5" points="11.88 19.53 0.5 45.15 4.97 47.5 20.95 27.37 11.88 19.53"/><polygon class="cls-5" points="19.53 11.88 45.15 0.5 47.5 4.97 27.37 20.95 19.53 11.88"/><path class="cls-5" d="M46,37.39l-2.18-3.3L39,34.48S14.7,6.14,12.66,4.1,6.88.84,3.82,3.19l0,0c-.11.11-.2.23-.3.34s-.23.19-.34.3l0,0c-2.35,3.06-1,6.94.91,8.84S34.48,39,34.48,39l-.39,4.77L37.39,46l1.93-6.64Z"/></g></g></g></svg>