<svg xmlns="http://www.w3.org/2000/svg" viewBox="0 0 46.25 48.89"><defs><style>.cls-1{fill:#ffd092;}.cls-1,.cls-2,.cls-3,.cls-4,.cls-5,.cls-7{stroke:#0b4054;stroke-linecap:round;stroke-linejoin:round;}.cls-2{fill:#8de4ff;}.cls-3{fill:#a6e872;}.cls-4{fill:#ffbdc2;}.cls-5{fill:#ae96cc;}.cls-6{fill:#fff;}.cls-7{fill:none;}</style></defs><title>balkon</title><g id="Layer_2" data-name="Layer 2"><g id="Layer_1-2" data-name="Layer 1"><g id="balkon"><polygon class="cls-1" points="23.13 31.82 12.38 26.89 12.38 0.5 23.13 5.43 23.13 31.82"/><polygon class="cls-1" points="23.13 31.82 33.87 26.89 33.87 0.5 23.13 5.43 23.13 31.82"/><polygon class="cls-2" points="21.52 29.2 13.98 25.75 13.98 3.29 21.52 6.74 21.52 29.2"/><polygon class="cls-2" points="24.73 29.2 32.27 25.75 32.27 3.29 24.73 6.74 24.73 29.2"/><polygon class="cls-3" points="23.13 48.27 1.63 38.41 1.63 24.87 23.13 34.73 23.13 48.27"/><polygon class="cls-1" points="23.13 48.27 44.62 38.41 44.62 24.87 23.13 34.73 23.13 48.27"/><polygon class="cls-4" points="12.38 29.8 1.63 24.87 1.63 38.41 12.38 43.34 12.38 29.8"/><polygon class="cls-5" points="33.87 43.34 44.62 38.41 44.62 24.87 33.87 29.8 33.87 43.34"/><polygon class="cls-4" points="0.5 23.45 1.63 23.98 1.63 38.76 0.5 38.23 0.5 23.45"/><polygon class="cls-4" points="11.81 28.91 12.94 29.45 12.94 44.23 11.81 43.7 11.81 28.91"/><polygon class="cls-4" points="45.75 23.45 44.62 23.98 44.62 38.76 45.75 38.23 45.75 23.45"/><polygon class="cls-4" points="34.44 28.91 33.31 29.45 33.31 44.23 34.44 43.7 34.44 28.91"/><rect class="cls-4" x="22.34" y="33.61" width="1.56" height="14.78"/><path class="cls-6" d="M44.62,24.87,33.87,29.8h0l-2.46,1.13A26.94,26.94,0,0,0,43.2,33.64c.48,0,.95,0,1.42,0V24.87Z"/><path class="cls-6" d="M28.58,29.32l5.29-2.43V.5L23.13,5.43l-6.5-3a26.18,26.18,0,0,0-.34,4.27A26.88,26.88,0,0,0,28.58,29.32Z"/><polygon class="cls-7" points="23.13 31.82 12.38 26.89 12.38 0.5 23.13 5.43 23.13 31.82"/><polygon class="cls-7" points="23.13 31.82 33.87 26.89 33.87 0.5 23.13 5.43 23.13 31.82"/><polygon class="cls-7" points="21.52 29.2 13.98 25.75 13.98 3.29 21.52 6.74 21.52 29.2"/><polygon class="cls-7" points="24.73 29.2 32.27 25.75 32.27 3.29 24.73 6.74 24.73 29.2"/><polygon class="cls-7" points="22.34 47.92 1.63 38.41 1.63 24.87 22.34 34.37 22.34 47.92"/><polygon class="cls-7" points="23.91 47.92 44.62 38.41 44.62 24.87 23.91 34.37 23.91 47.92"/><polygon class="cls-7" points="11.81 29.62 1.63 24.87 1.63 38.41 11.81 43.16 11.81 29.62"/><polygon class="cls-7" points="34.44 43.05 44.62 38.41 44.62 24.87 34.44 29.51 34.44 43.05"/><polygon class="cls-7" points="0.5 23.45 1.63 23.98 1.63 38.76 0.5 38.23 0.5 23.45"/><polygon class="cls-7" points="11.81 28.91 12.94 29.45 12.94 44.23 11.81 43.7 11.81 28.91"/><polygon class="cls-7" points="45.75 23.45 44.62 23.98 44.62 38.76 45.75 38.23 45.75 23.45"/><polygon class="cls-7" points="34.44 28.91 33.31 29.45 33.31 44.23 34.44 43.7 34.44 28.91"/><rect class="cls-7" x="22.34" y="33.61" width="1.56" height="14.78"/></g></g></g></svg>