<svg xmlns="http://www.w3.org/2000/svg" viewBox="0 0 48.27 47.31"><defs><style>.cls-1{fill:#66d4ff;}.cls-1,.cls-2,.cls-3,.cls-4,.cls-5,.cls-6,.cls-8{stroke:#0b4054;stroke-linecap:round;stroke-linejoin:round;}.cls-2{fill:#ffd092;}.cls-3{fill:#ae96cc;}.cls-4{fill:#ffbdc2;}.cls-5{fill:none;}.cls-6{fill:#a6e872;}.cls-7{fill:#fff;}.cls-8{fill:#8de4ff;}</style></defs><title>bathtub</title><g id="Layer_2" data-name="Layer 2"><g id="Layer_1-2" data-name="Layer 1"><g id="bathtub"><line class="cls-1" x1="20.64" y1="40.66" x2="20.64" y2="23.75"/><circle class="cls-2" cx="20.64" cy="24.85" r="3.15"/><line class="cls-1" x1="7.27" y1="35.38" x2="7.27" y2="17.79"/><circle class="cls-3" cx="7.27" cy="18.74" r="2.71"/><line class="cls-1" x1="12.83" y1="26.68" x2="12.83" y2="3.9"/><circle class="cls-4" cx="12.83" cy="5.73" r="5.23"/><path class="cls-5" d="M34.72,7.13A5.09,5.09,0,0,1,39.8,2.05h0a5.09,5.09,0,0,1,5.08,5.08v20.1"/><path class="cls-3" d="M31.57,10.28a3.1,3.1,0,0,0,.08.69h6.13a3.1,3.1,0,0,0,.08-.69,3.15,3.15,0,1,0-6.29,0Z"/><rect class="cls-6" x="0.5" y="26.09" width="47.27" height="3.17" rx="1.39" ry="1.39"/><path class="cls-2" d="M24.13,29.26H3.39L6.88,41.58a2.86,2.86,0,0,0,1.2,1.74s0,.08,0,.12V45a1.83,1.83,0,0,0,3.66,0V43.82h24.8V45a1.84,1.84,0,0,0,3.67,0V43.44s0-.08,0-.12a2.81,2.81,0,0,0,1.19-1.74l3.5-12.32Z"/><path class="cls-7" d="M46.37,26.09H15.1A23.62,23.62,0,0,0,37.22,41.42a23.8,23.8,0,0,0,4.33-.4l3.33-11.76h1.49a1.4,1.4,0,0,0,1.4-1.4v-.38A1.4,1.4,0,0,0,46.37,26.09Z"/><rect class="cls-5" x="0.5" y="26.09" width="47.27" height="3.17" rx="1.39" ry="1.39"/><path class="cls-5" d="M24.13,29.26H3.39L6.88,41.58a2.86,2.86,0,0,0,1.2,1.74s0,.08,0,.12V45a1.83,1.83,0,0,0,3.66,0V43.82h24.8V45a1.84,1.84,0,0,0,3.67,0V43.44s0-.08,0-.12a2.81,2.81,0,0,0,1.19-1.74l3.5-12.32Z"/><path class="cls-8" d="M28.84,25h8.33a1.46,1.46,0,0,1,1.46,1.46V38.81a0,0,0,0,1,0,0H27.38a0,0,0,0,1,0,0V26.44A1.46,1.46,0,0,1,28.84,25Z"/><rect class="cls-3" x="27.38" y="35.56" width="11.25" height="3.25"/></g></g></g></svg>