<svg xmlns="http://www.w3.org/2000/svg" viewBox="0 0 48.46 47.72"><defs><style>.cls-1{fill:#66d4ff;}.cls-1,.cls-2,.cls-3,.cls-4,.cls-5,.cls-6,.cls-8,.cls-9{stroke:#0b4054;stroke-linecap:round;stroke-linejoin:round;}.cls-2{fill:#ae96cc;}.cls-3{fill:#a6e872;}.cls-4{fill:#ffbdc2;}.cls-5{fill:#ffd092;}.cls-6{fill:none;}.cls-7,.cls-8{fill:#fff;}.cls-9{fill:#8de4ff;}</style></defs><title>cafe</title><g id="Layer_2" data-name="Layer 2"><g id="Layer_1-2" data-name="Layer 1"><g id="cafe"><line class="cls-1" x1="3.21" y1="33.68" x2="3.21" y2="24.99"/><circle class="cls-2" cx="3.21" cy="25.94" r="2.71"/><line class="cls-1" x1="7.61" y1="35.2" x2="7.61" y2="16.24"/><circle class="cls-3" cx="7.61" cy="16.24" r="2.71"/><path class="cls-2" d="M43,12.87A4.95,4.95,0,1,0,48,17.81,5,5,0,0,0,43,12.87Zm0,7.44a2.5,2.5,0,1,1,2.5-2.5A2.49,2.49,0,0,1,43,20.31Z"/><path class="cls-4" d="M18.64,11.36v7.19a11.86,11.86,0,0,0,23.72,0V11.36Z"/><rect class="cls-5" x="18.64" y="11.36" width="23.72" height="4.05"/><path class="cls-6" d="M30,7.09a2.64,2.64,0,0,1-.62-2.35c.33-1.4,1.11-2.22.62-4.24"/><path class="cls-6" d="M31.75,11.34A2.64,2.64,0,0,1,31.13,9c.33-1.4,1.11-2.22.62-4.24"/><path class="cls-7" d="M47.68,16.25A4.93,4.93,0,0,0,43,12.87a4.6,4.6,0,0,0-.66.07V11.36H24.41a13.26,13.26,0,0,0,12.84,10,13.1,13.1,0,0,0,5.24-1.08l-.26-.06a11.08,11.08,0,0,0,.13-1.63V15.41a2.84,2.84,0,0,1,.66-.09,2.49,2.49,0,0,1,2.5,2.49,2.63,2.63,0,0,1-.11.7A13.48,13.48,0,0,0,47.68,16.25Z"/><path class="cls-6" d="M43,12.87a4.6,4.6,0,0,0-.66.07v2.47a2.84,2.84,0,0,1,.66-.09,2.5,2.5,0,1,1,0,5,2.56,2.56,0,0,1-.79-.13,11.47,11.47,0,0,1-.58,2.36,4.79,4.79,0,0,0,1.37.22,4.95,4.95,0,0,0,0-9.89Z"/><path class="cls-6" d="M18.64,11.36v7.19a11.86,11.86,0,0,0,23.72,0V11.36Z"/><rect class="cls-6" x="18.64" y="11.36" width="23.72" height="4.05"/><polygon class="cls-8" points="1.41 40.12 40.53 40.12 13.81 47.22 1.41 40.12"/><polygon class="cls-9" points="1.41 33.7 40.53 33.7 13.81 40.8 1.41 33.7"/><polygon class="cls-3" points="1.41 33.7 1.41 40.12 13.81 47.22 13.81 40.8 1.41 33.7"/><polygon class="cls-5" points="40.53 33.7 40.53 40.12 13.81 47.22 13.81 40.8 40.53 33.7"/><circle class="cls-4" cx="17.05" cy="32.59" r="3.92"/><path class="cls-6" d="M17.43,30.16s-.26-4.62-4.3-5.79"/><polyline class="cls-6" points="40.53 36.98 13.81 44.02 1.41 37.09"/><path class="cls-7" d="M20.9,33.21a3.27,3.27,0,0,0,.07-.62A3.27,3.27,0,0,1,20.9,33.21Z"/><path class="cls-7" d="M13.2,33.21a3.27,3.27,0,0,1-.07-.62A3.27,3.27,0,0,0,13.2,33.21Z"/><path class="cls-7" d="M13.31,33.7h0a3.9,3.9,0,0,0,7.48,0h1.45A12.15,12.15,0,0,1,1.4,39.4V33.7Z"/><path class="cls-7" d="M20.79,33.7a4.31,4.31,0,0,0,.11-.49A2.88,2.88,0,0,1,20.79,33.7Z"/><path class="cls-7" d="M13.31,33.7a2.88,2.88,0,0,1-.11-.49A4.31,4.31,0,0,0,13.31,33.7Z"/><polygon class="cls-6" points="1.41 33.7 1.41 40.12 13.81 47.22 13.81 40.8 1.41 33.7"/><polygon class="cls-6" points="40.53 33.7 40.53 40.12 13.81 47.22 13.81 40.8 40.53 33.7"/><circle class="cls-6" cx="17.05" cy="32.59" r="3.92"/><path class="cls-6" d="M13.31,33.7a3.9,3.9,0,0,0,7.48,0H40.53L13.81,40.79,1.4,33.7Z"/><path class="cls-6" d="M17.43,30.16s-.26-4.62-4.3-5.79"/><polyline class="cls-6" points="40.53 36.98 13.81 44.02 1.41 37.09"/><line class="cls-6" x1="23.55" y1="24.37" x2="25.4" y2="22.52"/><line class="cls-6" x1="9.27" y1="24.37" x2="7.42" y2="22.52"/><line class="cls-6" x1="16.41" y1="21.32" x2="16.41" y2="18.71"/></g></g></g></svg>