<svg xmlns="http://www.w3.org/2000/svg" viewBox="0 0 46.34 46.92"><defs><style>.cls-1{fill:#ffd092;}.cls-1,.cls-2,.cls-3,.cls-4,.cls-5,.cls-6,.cls-8{stroke:#0b4054;stroke-linecap:round;stroke-linejoin:round;}.cls-2{fill:#a6e872;}.cls-3{fill:#8de4ff;}.cls-4{fill:none;}.cls-5{fill:#ffbdc2;}.cls-6{fill:#ae96cc;}.cls-7{fill:#fff;}.cls-8{fill:#66d4ff;}</style></defs><title>cctv</title><g id="Layer_2" data-name="Layer 2"><g id="Layer_1-2" data-name="Layer 1"><g id="cctv"><rect class="cls-1" x="30.71" y="21.26" width="3.91" height="15.65"/><rect class="cls-2" x="34.36" y="33.26" width="3.91" height="11.21" transform="translate(75.18 2.54) rotate(90)"/><rect class="cls-3" x="41.93" y="33.26" width="3.91" height="11.21"/><rect class="cls-4" x="30.71" y="21.26" width="3.91" height="15.65"/><rect class="cls-4" x="34.36" y="33.26" width="3.91" height="11.21" transform="translate(75.18 2.54) rotate(90)"/><rect class="cls-4" x="41.93" y="33.26" width="3.91" height="11.21"/><path class="cls-5" d="M45.84,10.88c0-5.39-1.51-9.82-3.45-10.33A.59.59,0,0,0,42.16.5H42c-1,0-1.88,1-2.56,2.7H20.75V21.26H42.16a.64.64,0,0,0,.23-.05C44.33,20.7,45.84,16.27,45.84,10.88Z"/><path class="cls-6" d="M10.6.5A8.24,8.24,0,0,0,18.82,7l3-6.5Z"/><ellipse class="cls-1" cx="20.75" cy="12.23" rx="3.82" ry="9.03"/><ellipse class="cls-5" cx="20.75" cy="12.23" rx="0.86" ry="3.98"/><circle class="cls-3" cx="29.55" cy="17.61" r="0.7"/><circle class="cls-3" cx="33.89" cy="17.61" r="0.7"/><circle class="cls-3" cx="38.23" cy="17.61" r="0.7"/><path class="cls-2" d="M45.61,14.38a25.94,25.94,0,0,0,.23-3.5c0-5.39-1.51-9.82-3.45-10.33A.59.59,0,0,0,42.16.5H10.6S18.14,2,21,7.86h5.26l6.51,6.51H45.61Z"/><path class="cls-7" d="M42.39.55A.59.59,0,0,0,42.16.5H25C25.94,11.42,28.26,20,39.43,20a21.79,21.79,0,0,0,4.74-.53,17.41,17.41,0,0,0,1.61-6.77v0c0-.58.06-1.17.06-1.78C45.84,5.49,44.33,1.06,42.39.55Z"/><circle class="cls-4" cx="29.55" cy="17.61" r="0.7"/><circle class="cls-4" cx="33.89" cy="17.61" r="0.7"/><circle class="cls-4" cx="38.23" cy="17.61" r="0.7"/><path class="cls-4" d="M45.61,14.38a25.94,25.94,0,0,0,.23-3.5c0-5.39-1.51-9.82-3.45-10.33A.59.59,0,0,0,42.16.5H10.6S18.14,2,21,7.86h5.26l6.51,6.51H45.61Z"/><path class="cls-4" d="M39.94,14.38H32.8L26.29,7.86h-2.2a19.49,19.49,0,0,1,.48,4.37c0,5-1.71,9-3.82,9H42.16a.64.64,0,0,0,.23-.05c1.71-.45,3.09-4,3.39-8.52,0,.58-.1,1.14-.17,1.69Z"/><line class="cls-4" x1="9.33" y1="21.28" x2="5" y2="24.8"/><line class="cls-4" x1="7.33" y1="13.27" x2="1.2" y2="13.27"/><line class="cls-4" x1="9.33" y1="5.95" x2="5" y2="2.43"/><line class="cls-8" x1="17.38" y1="46.42" x2="17.38" y2="26.26"/><circle class="cls-5" cx="17.38" cy="27.88" r="4.63"/><line class="cls-8" x1="23.81" y1="46.42" x2="23.81" y2="39.45"/><circle class="cls-2" cx="23.81" cy="40.4" r="2.71"/><line class="cls-8" x1="5.73" y1="46.42" x2="5.73" y2="34.37"/><circle class="cls-6" cx="5.73" cy="36.2" r="5.23"/></g></g></g></svg>