<svg xmlns="http://www.w3.org/2000/svg" viewBox="0 0 41.15 46.23"><defs><style>.cls-1{fill:#ffd092;}.cls-1,.cls-2,.cls-3,.cls-4,.cls-6{stroke:#0b4054;stroke-linecap:round;stroke-linejoin:round;}.cls-2{fill:#8de4ff;}.cls-3{fill:#ae96cc;}.cls-4{fill:#66d4ff;}.cls-5{fill:#fff;}.cls-6{fill:none;}</style></defs><title>toilet duduk</title><g id="Layer_2" data-name="Layer 2"><g id="Layer_1-2" data-name="Layer 1"><g id="toilet_duduk" data-name="toilet duduk"><path class="cls-1" d="M36.7,9.88H32.31L23.72,1.75a4.57,4.57,0,0,0-6.29,0L8.84,9.88H4.45C2.19,9.88.39,12.4.51,15.4L1.37,37c.11,2.79,1.84,5,3.94,5H6.78a4.56,4.56,0,0,0,4.49,3.75H29.88A4.56,4.56,0,0,0,34.37,42h1.47c2.1,0,3.84-2.18,3.95-5l.86-21.61C40.77,12.4,39,9.88,36.7,9.88Z"/><path class="cls-2" d="M11.14,15.49l7.32-6.63a2.84,2.84,0,0,1,4.23,0L30,15.49A3.7,3.7,0,0,1,31,18L29.9,38.53A3.27,3.27,0,0,1,26.83,42H14.32a3.27,3.27,0,0,1-3.07-3.45L10.18,18A3.7,3.7,0,0,1,11.14,15.49Z"/><circle class="cls-3" cx="20.58" cy="35.69" r="3.31"/><line class="cls-4" x1="3.23" y1="15.54" x2="7.38" y2="15.54"/><line class="cls-4" x1="3.75" y1="22.67" x2="7.82" y2="22.67"/><line class="cls-4" x1="4.26" y1="29.8" x2="8.25" y2="29.8"/><line class="cls-4" x1="4.78" y1="36.93" x2="8.69" y2="36.93"/><line class="cls-4" x1="37.92" y1="15.54" x2="33.77" y2="15.54"/><line class="cls-4" x1="37.41" y1="22.67" x2="33.34" y2="22.67"/><line class="cls-4" x1="36.89" y1="29.8" x2="32.9" y2="29.8"/><line class="cls-4" x1="36.38" y1="36.93" x2="32.47" y2="36.93"/><line class="cls-4" x1="3.23" y1="15.54" x2="7.38" y2="15.54"/><line class="cls-4" x1="3.75" y1="22.67" x2="7.82" y2="22.67"/><line class="cls-4" x1="4.26" y1="29.8" x2="8.25" y2="29.8"/><line class="cls-4" x1="4.78" y1="36.93" x2="8.69" y2="36.93"/><line class="cls-4" x1="37.92" y1="15.54" x2="33.77" y2="15.54"/><line class="cls-4" x1="37.41" y1="22.67" x2="33.34" y2="22.67"/><line class="cls-4" x1="36.89" y1="29.8" x2="32.9" y2="29.8"/><line class="cls-4" x1="36.38" y1="36.93" x2="32.47" y2="36.93"/><path class="cls-5" d="M36.7,9.88H32.31L23.72,1.75a4.57,4.57,0,0,0-6.29,0l-7,6.59c-.06.72-.1,1.46-.1,2.2a23.4,23.4,0,0,0,23.4,23.4,23.62,23.62,0,0,0,6.17-.82l.71-17.72C40.77,12.4,39,9.88,36.7,9.88Z"/><path class="cls-6" d="M36.7,9.88H32.31L23.72,1.75a4.57,4.57,0,0,0-6.29,0L8.84,9.88H4.45C2.19,9.88.39,12.4.51,15.4L1.37,37c.11,2.79,1.84,5,3.94,5H6.78a4.56,4.56,0,0,0,4.49,3.75H29.88A4.56,4.56,0,0,0,34.37,42h1.47c2.1,0,3.84-2.18,3.95-5l.86-21.61C40.77,12.4,39,9.88,36.7,9.88Z"/><path class="cls-6" d="M11.14,15.49l7.32-6.63a2.84,2.84,0,0,1,4.23,0L30,15.49A3.7,3.7,0,0,1,31,18L29.9,38.53A3.27,3.27,0,0,1,26.83,42H14.32a3.27,3.27,0,0,1-3.07-3.45L10.18,18A3.7,3.7,0,0,1,11.14,15.49Z"/><circle class="cls-6" cx="20.58" cy="35.69" r="3.31"/><line class="cls-6" x1="3.23" y1="15.54" x2="7.38" y2="15.54"/><line class="cls-6" x1="3.75" y1="22.67" x2="7.82" y2="22.67"/><line class="cls-6" x1="4.26" y1="29.8" x2="8.25" y2="29.8"/><line class="cls-6" x1="4.78" y1="36.93" x2="8.69" y2="36.93"/><line class="cls-6" x1="37.92" y1="15.54" x2="33.77" y2="15.54"/><line class="cls-6" x1="37.41" y1="22.67" x2="33.34" y2="22.67"/><line class="cls-6" x1="36.89" y1="29.8" x2="32.9" y2="29.8"/><line class="cls-6" x1="36.38" y1="36.93" x2="32.47" y2="36.93"/></g></g></g></svg>