<svg xmlns="http://www.w3.org/2000/svg" viewBox="0 0 47.64 45.33"><defs><style>.cls-1{fill:#66d4ff;}.cls-1,.cls-10,.cls-11,.cls-2,.cls-3,.cls-4,.cls-5,.cls-6,.cls-7,.cls-8{stroke:#0b4054;stroke-linejoin:round;}.cls-1,.cls-10,.cls-2,.cls-3,.cls-4,.cls-5,.cls-6{stroke-linecap:round;}.cls-2{fill:#8de4ff;}.cls-3,.cls-7{fill:#ffd092;}.cls-4,.cls-8{fill:#ae96cc;}.cls-5{fill:#a6e872;}.cls-6{fill:#ffbdc2;}.cls-9{fill:#fff;}.cls-10,.cls-11{fill:none;}</style></defs><title>toilet jongkok</title><g id="Layer_2" data-name="Layer 2"><g id="Layer_1-2" data-name="Layer 1"><g id="toilet_jongkok" data-name="toilet jongkok"><line class="cls-1" x1="40.83" y1="44.68" x2="40.83" y2="10.94"/><circle class="cls-2" cx="40.83" cy="12.56" r="4.63"/><line class="cls-1" x1="43.99" y1="44.68" x2="43.99" y2="26.3"/><circle class="cls-3" cx="43.99" cy="27.41" r="3.15"/><line class="cls-1" x1="9.76" y1="44.83" x2="9.76" y2="36.15"/><circle class="cls-4" cx="9.76" cy="37.1" r="2.71"/><line class="cls-1" x1="3.21" y1="44.83" x2="3.21" y2="20.82"/><circle class="cls-5" cx="3.21" cy="21.77" r="2.71"/><line class="cls-1" x1="5.83" y1="44.68" x2="5.83" y2="7.04"/><circle class="cls-6" cx="5.83" cy="8.87" r="5.23"/><path class="cls-5" d="M39.63,20.64a15.3,15.3,0,0,0-.51-3.91H8.7a15.64,15.64,0,0,0,7.65,17.7v10.4H31.48V34.43A15.73,15.73,0,0,0,39.63,20.64Z"/><path class="cls-7" d="M9.74,14H38.21a.89.89,0,0,1,.89.89v1.85a0,0,0,0,1,0,0H8.72a0,0,0,0,1,0,0V15A1,1,0,0,1,9.74,14Z"/><polygon class="cls-2" points="11.64 2.93 36.18 2.93 35.34 13.99 12.49 13.99 11.64 2.93"/><path class="cls-8" d="M12.55.5H35.27a.91.91,0,0,1,.91.91V2.93a0,0,0,0,1,0,0H11.64a0,0,0,0,1,0,0V1.41A.91.91,0,0,1,12.55.5Z"/><polygon class="cls-6" points="37.29 7.89 35.8 7.89 36.1 3.95 37.29 3.95 37.29 7.89"/><path class="cls-9" d="M39.1,16.73V14.88a.89.89,0,0,0-.89-.89H35.34l.84-11.06V1.41A.91.91,0,0,0,35.27.5H17.34A20.24,20.24,0,0,0,36.2,28.16c.53,0,1,0,1.56-.08a15.64,15.64,0,0,0,1.87-7.44,15.3,15.3,0,0,0-.51-3.91Z"/><path class="cls-10" d="M39.63,20.64a15.3,15.3,0,0,0-.51-3.91H8.7a15.64,15.64,0,0,0,7.65,17.7v10.4H31.48V34.43A15.73,15.73,0,0,0,39.63,20.64Z"/><path class="cls-11" d="M9.74,14H38.21a.89.89,0,0,1,.89.89v1.85a0,0,0,0,1,0,0H8.72a0,0,0,0,1,0,0V15A1,1,0,0,1,9.74,14Z"/><polygon class="cls-10" points="11.64 2.93 36.18 2.93 35.34 13.99 12.49 13.99 11.64 2.93"/><path class="cls-11" d="M12.55.5H35.27a.91.91,0,0,1,.91.91V2.93a0,0,0,0,1,0,0H11.64a0,0,0,0,1,0,0V1.41A.91.91,0,0,1,12.55.5Z"/><polygon class="cls-10" points="37.29 7.89 35.8 7.89 36.1 3.95 37.29 3.95 37.29 7.89"/></g></g></g></svg>