<svg xmlns="http://www.w3.org/2000/svg" viewBox="0 0 47.18 48.48"><defs><style>.cls-1{fill:#66d4ff;}.cls-1,.cls-2,.cls-3,.cls-4,.cls-5,.cls-6,.cls-7,.cls-9{stroke:#0b4054;stroke-linecap:round;stroke-linejoin:round;}.cls-2{fill:#8de4ff;}.cls-3{fill:#ae96cc;}.cls-4{fill:#ffd092;}.cls-5{fill:#ffbdc2;}.cls-6{fill:#71eae1;}.cls-7{fill:#a6e872;}.cls-8{fill:#fff;}.cls-9{fill:none;}</style></defs><title>dapur</title><g id="Layer_2" data-name="Layer 2"><g id="Layer_1-2" data-name="Layer 1"><g id="dapur"><line class="cls-1" x1="42.05" y1="41.91" x2="42.05" y2="21.75"/><circle class="cls-2" cx="42.05" cy="23.38" r="4.63"/><line class="cls-1" x1="24.58" y1="47.83" x2="24.58" y2="29.13"/><circle class="cls-3" cx="24.58" cy="30.75" r="4.63"/><line class="cls-1" x1="3.21" y1="41.01" x2="3.21" y2="20.16"/><circle class="cls-3" cx="3.21" cy="21.11" r="2.71"/><line class="cls-1" x1="33.31" y1="41.01" x2="33.31" y2="19.33"/><circle class="cls-4" cx="33.31" cy="20.28" r="2.71"/><line class="cls-1" x1="12.93" y1="47.39" x2="12.93" y2="24.61"/><circle class="cls-5" cx="12.93" cy="26.45" r="5.23"/><rect class="cls-6" x="0.51" y="29.42" width="46.17" height="18.56"/><rect class="cls-2" x="18.09" y="0.5" width="11" height="10.27"/><polygon class="cls-7" points="36.24 18.77 10.94 18.77 16.97 10.77 30.22 10.77 36.24 18.77"/><rect class="cls-4" x="12.22" y="29.42" width="22.75" height="18.56"/><rect class="cls-7" x="0.51" y="35.25" width="11.71" height="12.73"/><rect class="cls-6" x="14.59" y="33" width="17.83" height="12.92"/><line class="cls-7" x1="5.22" y1="32.39" x2="7.51" y2="32.39"/><line class="cls-7" x1="5.22" y1="37.67" x2="7.51" y2="37.67"/><line class="cls-7" x1="39.92" y1="32.39" x2="42.21" y2="32.39"/><line class="cls-7" x1="21.69" y1="35.25" x2="25.49" y2="35.25"/><path class="cls-8" d="M35,29.42H17.52a23.34,23.34,0,0,0,29.16,15.8V29.42Z"/><path class="cls-8" d="M31.06,18.77h5.18l-6-8H29.09V2.22A23.34,23.34,0,0,0,17,18.77h14.1Z"/><circle class="cls-9" cx="42.05" cy="23.38" r="4.63"/><circle class="cls-9" cx="3.21" cy="21.11" r="2.71"/><rect class="cls-9" x="0.51" y="29.42" width="46.17" height="18.56"/><rect class="cls-9" x="18.09" y="0.5" width="11" height="10.27"/><polygon class="cls-9" points="36.24 18.77 10.94 18.77 16.97 10.77 30.22 10.77 36.24 18.77"/><rect class="cls-9" x="12.22" y="29.42" width="22.75" height="18.56"/><rect class="cls-9" x="0.51" y="35.25" width="11.71" height="12.73"/><rect class="cls-9" x="14.59" y="33" width="17.83" height="12.92"/><line class="cls-9" x1="5.22" y1="32.39" x2="7.51" y2="32.39"/><line class="cls-9" x1="5.22" y1="37.67" x2="7.51" y2="37.67"/><line class="cls-9" x1="39.92" y1="32.39" x2="42.21" y2="32.39"/><line class="cls-9" x1="21.69" y1="35.25" x2="25.49" y2="35.25"/></g></g></g></svg>