<svg xmlns="http://www.w3.org/2000/svg" viewBox="0 0 47.97 48.16"><defs><style>.cls-1{fill:#66d4ff;}.cls-1,.cls-2,.cls-3,.cls-4,.cls-5,.cls-6,.cls-8{stroke:#0b4054;stroke-linecap:round;stroke-linejoin:round;}.cls-2{fill:#8de4ff;}.cls-3{fill:#ffd092;}.cls-4{fill:#ae96cc;}.cls-5{fill:#a6e872;}.cls-6{fill:#ffbdc2;}.cls-7{fill:#fff;}.cls-8{fill:none;}</style></defs><title>dispenser</title><g id="Layer_2" data-name="Layer 2"><g id="Layer_1-2" data-name="Layer 1"><g id="dispenser"><line class="cls-1" x1="46.34" y1="47.66" x2="46.34" y2="13.67"/><circle class="cls-2" cx="46.34" cy="14.06" r="1.13"/><line class="cls-1" x1="37.4" y1="47.66" x2="37.4" y2="9.37"/><circle class="cls-3" cx="37.4" cy="10.37" r="2.85"/><line class="cls-1" x1="9.4" y1="47.66" x2="9.4" y2="14.55"/><circle class="cls-4" cx="9.4" cy="15.41" r="2.44"/><line class="cls-1" x1="2.94" y1="47.66" x2="2.94" y2="9.29"/><circle class="cls-5" cx="2.94" cy="8.22" r="2.44"/><line class="cls-1" x1="41.89" y1="47.66" x2="41.89" y2="21.91"/><circle class="cls-6" cx="41.89" cy="21.91" r="1.65"/><path class="cls-2" d="M32.65,11.16V4H16.4v7.13a1,1,0,0,0-.53.85v1.56a1,1,0,0,0,.53.88v4.26a6.44,6.44,0,0,0,6.45,6.44H26.2a6.44,6.44,0,0,0,6.45-6.44V14.45a1,1,0,0,0,.53-.88V12A1,1,0,0,0,32.65,11.16Z"/><rect class="cls-5" x="13.58" y="25.15" width="21.89" height="22.5"/><path class="cls-3" d="M16.92.5H32.13a1.05,1.05,0,0,1,1.05,1.05V4a0,0,0,0,1,0,0H15.87a0,0,0,0,1,0,0V1.55A1.05,1.05,0,0,1,16.92.5Z"/><path class="cls-3" d="M16.85,11.06H32.2a1,1,0,0,1,1,1v1.49a1.06,1.06,0,0,1-1.06,1.06H16.92a1.06,1.06,0,0,1-1.06-1.06V12A1,1,0,0,1,16.85,11.06Z"/><rect class="cls-4" x="18.09" y="27.94" width="12.87" height="16.33"/><polygon class="cls-6" points="27.81 35.16 21.24 35.16 22.03 44.27 27.02 44.27 27.81 35.16"/><path class="cls-7" d="M32.65,18.71V14.45a1,1,0,0,0,.45-.51h0a.87.87,0,0,0,.08-.37V12a1,1,0,0,0-.53-.85V4h.53V1.55a1,1,0,0,0-1-1H21.53A19.47,19.47,0,0,0,35.47,31.17v-6H26.2A6.44,6.44,0,0,0,32.65,18.71Z"/><path class="cls-8" d="M32.65,11.16V4H16.4v7.13a1,1,0,0,0-.53.85v1.56a1,1,0,0,0,.53.88v4.26a6.44,6.44,0,0,0,6.45,6.44H26.2a6.44,6.44,0,0,0,6.45-6.44V14.45a1,1,0,0,0,.53-.88V12A1,1,0,0,0,32.65,11.16Z"/><rect class="cls-8" x="13.58" y="25.15" width="21.89" height="22.5"/><path class="cls-8" d="M16.92.5H32.13a1.05,1.05,0,0,1,1.05,1.05V4a0,0,0,0,1,0,0H15.87a0,0,0,0,1,0,0V1.55A1.05,1.05,0,0,1,16.92.5Z"/><path class="cls-8" d="M16.85,11.06H32.2a1,1,0,0,1,1,1v1.49a1.06,1.06,0,0,1-1.06,1.06H16.92a1.06,1.06,0,0,1-1.06-1.06V12A1,1,0,0,1,16.85,11.06Z"/><rect class="cls-8" x="18.09" y="27.94" width="12.87" height="16.33"/><polygon class="cls-8" points="27.81 35.16 21.24 35.16 22.03 44.27 27.02 44.27 27.81 35.16"/></g></g></g></svg>