<svg xmlns="http://www.w3.org/2000/svg" viewBox="0 0 45.45 48.29"><defs><style>.cls-1{fill:#ffbdc2;}.cls-1,.cls-3,.cls-4,.cls-5,.cls-6,.cls-7{stroke:#0b4054;}.cls-1,.cls-3,.cls-4,.cls-5,.cls-6{stroke-miterlimit:10;}.cls-2{fill:#fff;}.cls-3,.cls-7{fill:none;}.cls-4{fill:#ffd092;}.cls-5{fill:#a6e872;}.cls-6{fill:#ae96cc;}.cls-7{stroke-linecap:round;stroke-linejoin:round;}</style></defs><title>fitnes</title><g id="Layer_2" data-name="Layer 2"><g id="Layer_1-2" data-name="Layer 1"><g id="fitnes"><path class="cls-1" d="M29.73,9.39c-4.64-1.83-7,1.65-7,1.65a5.7,5.7,0,0,0-7-1.65c-4.64,1.82-4.73,12.15,7,16.87C34.45,21.54,34.36,11.21,29.73,9.39Z"/><path class="cls-2" d="M29.73,9.39c-4.64-1.83-7,1.65-7,1.65A5.66,5.66,0,0,0,16.29,9.2,17.07,17.07,0,0,0,27.93,23.26C34.27,18.1,33.53,10.88,29.73,9.39Z"/><polyline class="cls-3" points="13.19 17.09 17.04 17.09 19.4 11.12 23.43 22.12 26.4 17.09 32.35 17.09"/><path class="cls-3" d="M29.73,9.39c-4.64-1.83-7,1.65-7,1.65a5.7,5.7,0,0,0-7-1.65c-4.64,1.82-4.73,12.15,7,16.87C34.45,21.54,34.36,11.21,29.73,9.39Z"/><rect class="cls-4" x="42.19" y="31.64" width="2.76" height="11.17"/><rect class="cls-5" x="21.19" y="26.12" width="3.08" height="22.19" transform="translate(59.95 14.49) rotate(90)"/><rect class="cls-4" x="0.5" y="31.64" width="2.76" height="11.17"/><rect class="cls-6" x="3.25" y="26.66" width="8.39" height="21.13"/><line class="cls-4" x1="7.44" y1="26.66" x2="7.44" y2="47.79"/><rect class="cls-6" x="33.82" y="26.66" width="8.39" height="21.13"/><line class="cls-4" x1="38.02" y1="26.66" x2="38.02" y2="47.52"/><line class="cls-7" x1="22.73" y1="3.4" x2="22.73" y2="0.5"/><line class="cls-7" x1="22.73" y1="32.62" x2="22.73" y2="29.72"/><line class="cls-7" x1="32.03" y1="7.25" x2="34.08" y2="5.2"/><line class="cls-7" x1="11.37" y1="27.92" x2="13.42" y2="25.87"/><line class="cls-7" x1="32.03" y1="25.87" x2="34.08" y2="27.92"/><line class="cls-7" x1="11.37" y1="5.2" x2="13.42" y2="7.25"/><line class="cls-7" x1="35.89" y1="16.56" x2="38.79" y2="16.56"/><line class="cls-7" x1="6.67" y1="16.56" x2="9.56" y2="16.56"/><path class="cls-2" d="M42.21,26.66H33.82v9H25.05a13.88,13.88,0,0,0,2.74,3.08h6v2.92A13.83,13.83,0,0,0,45,39.24v-7.6H42.21Z"/><rect class="cls-3" x="42.19" y="31.64" width="2.76" height="11.17"/><rect class="cls-3" x="21.19" y="26.12" width="3.08" height="22.19" transform="translate(59.95 14.49) rotate(90)"/><rect class="cls-3" x="0.5" y="31.64" width="2.76" height="11.17"/><rect class="cls-3" x="3.25" y="26.66" width="8.39" height="21.13"/><line class="cls-3" x1="7.44" y1="26.66" x2="7.44" y2="47.79"/><rect class="cls-3" x="33.82" y="26.66" width="8.39" height="21.13"/><line class="cls-3" x1="38.02" y1="26.66" x2="38.02" y2="47.52"/></g></g></g></svg>