<svg xmlns="http://www.w3.org/2000/svg" viewBox="0 0 48.75 46.12"><defs><style>.cls-1{fill:#66d4ff;}.cls-1,.cls-2,.cls-3,.cls-4,.cls-5,.cls-7,.cls-8{stroke:#0b4054;stroke-linecap:round;stroke-linejoin:round;}.cls-2{fill:#a6e872;}.cls-3{fill:none;}.cls-4{fill:#fff;}.cls-5{fill:#ae96cc;}.cls-6{fill:#8de4ff;}.cls-7{fill:#ffd092;}.cls-8{fill:#00b7b0;}</style></defs><title>halte bis</title><g id="Layer_2" data-name="Layer 2"><g id="Layer_1-2" data-name="Layer 1"><g id="halte_bis" data-name="halte bis"><line class="cls-1" x1="43.62" y1="24.84" x2="43.62" y2="4.69"/><circle class="cls-2" cx="43.62" cy="6.31" r="4.63"/><line class="cls-1" x1="26.14" y1="32.22" x2="26.14" y2="12.06"/><circle class="cls-2" cx="26.14" cy="13.68" r="4.63"/><line class="cls-1" x1="4.77" y1="14.89" x2="4.77" y2="3.09"/><circle class="cls-2" cx="4.77" cy="4.04" r="2.71"/><line class="cls-1" x1="34.88" y1="14.05" x2="34.88" y2="2.26"/><circle class="cls-2" cx="34.88" cy="3.21" r="2.71"/><line class="cls-1" x1="14.5" y1="30.32" x2="14.5" y2="7.55"/><circle class="cls-2" cx="14.5" cy="9.38" r="5.23"/><polyline class="cls-3" points="44.52 45.62 44.52 40.83 3.52 40.83 3.52 45.62"/><rect class="cls-4" x="3.52" y="15.5" width="13.66" height="25.33"/><rect class="cls-4" x="17.19" y="15.5" width="13.66" height="25.33"/><rect class="cls-4" x="30.85" y="15.5" width="13.66" height="25.33"/><rect class="cls-5" x="0.5" y="11.66" width="47.04" height="3.83" rx="1.92" ry="1.92"/><path class="cls-6" d="M20.79,15.5H3.52V40.83H33.9a25,25,0,0,0,.26-3.6A23.74,23.74,0,0,0,20.79,15.5Z"/><rect class="cls-3" x="3.52" y="15.5" width="13.66" height="25.33"/><rect class="cls-3" x="17.19" y="15.5" width="13.66" height="25.33"/><rect class="cls-3" x="30.85" y="15.5" width="13.66" height="25.33"/><rect class="cls-5" x="6.16" y="34.58" width="16.02" height="5.75"/><rect class="cls-7" x="5.6" y="40.33" width="17.13" height="2.29"/><rect class="cls-8" x="6.8" y="42.62" width="1.02" height="3"/><rect class="cls-8" x="20.52" y="42.62" width="1.02" height="3"/><rect class="cls-5" x="25.86" y="34.58" width="16.02" height="5.75"/><rect class="cls-7" x="25.31" y="40.33" width="17.13" height="2.29"/><rect class="cls-8" x="26.5" y="42.62" width="1.02" height="3"/><rect class="cls-8" x="40.22" y="42.62" width="1.02" height="3"/><line class="cls-3" x1="2.06" y1="45.62" x2="45.98" y2="45.62"/></g></g></g></svg>