<svg xmlns="http://www.w3.org/2000/svg" viewBox="0 0 40.92 44.67"><defs><style>.cls-1{fill:#ae96cc;}.cls-1,.cls-2,.cls-3,.cls-5{stroke:#0b4054;stroke-linecap:round;stroke-linejoin:round;}.cls-2{fill:none;}.cls-3{fill:#8de4ff;}.cls-4,.cls-5{fill:#fff;}</style></defs><title>1 km md</title><g id="Layer_2" data-name="Layer 2"><g id="Layer_1-2" data-name="Layer 1"><g id="_1_km_md" data-name="1 km md"><line class="cls-1" x1="16.23" y1="14.79" x2="16.23" y2="16.92"/><line class="cls-1" x1="16.23" y1="12.39" x2="16.23" y2="13.35"/><line class="cls-1" x1="19.05" y1="15.62" x2="19.05" y2="16.24"/><line class="cls-1" x1="19.05" y1="17.93" x2="19.05" y2="17.57"/><line class="cls-1" x1="19.05" y1="12.39" x2="19.05" y2="14.32"/><line class="cls-1" x1="24.69" y1="16.92" x2="24.69" y2="16.21"/><line class="cls-1" x1="24.69" y1="12.39" x2="24.69" y2="15"/><line class="cls-1" x1="21.87" y1="12.39" x2="21.87" y2="13.63"/><line class="cls-1" x1="21.87" y1="15" x2="21.87" y2="14.79"/><line class="cls-1" x1="21.87" y1="16.32" x2="21.87" y2="17.93"/><path class="cls-1" d="M15.53,9.08a5.5,5.5,0,0,0,.12,1.08h9.62a4.83,4.83,0,0,0,.12-1.08,4.93,4.93,0,1,0-9.86,0Z"/><line class="cls-2" x1="20.46" y1="4.15" x2="20.46" y2="0.5"/><line class="cls-1" x1="26.93" y1="4.12" x2="40.42" y2="4.12"/><line class="cls-1" x1="30.63" y1="3.68" x2="30.63" y2="7"/><line class="cls-1" x1="37.23" y1="3.68" x2="37.23" y2="7"/><path class="cls-3" d="M39.32,7H28V42.32h0a1.88,1.88,0,0,0,3.76,0h0a1.88,1.88,0,0,0,3.76,0h0a1.88,1.88,0,0,0,3.76,0h0Z"/><line class="cls-1" x1="0.5" y1="4.12" x2="14" y2="4.12"/><line class="cls-1" x1="4.21" y1="3.68" x2="4.21" y2="7"/><line class="cls-1" x1="10.81" y1="3.68" x2="10.81" y2="7"/><path class="cls-3" d="M12.9,7H1.6V42.32h0a1.88,1.88,0,0,0,3.76,0h0a1.88,1.88,0,0,0,3.76,0h0a1.88,1.88,0,0,0,3.76,0h0Z"/><path class="cls-4" d="M28,37.59a17.58,17.58,0,0,0,3.18.31,16.71,16.71,0,0,0,8.12-2.09V7H28Z"/><path class="cls-4" d="M18.3,10.16h7a4.89,4.89,0,0,0-1.2-4.42A16.93,16.93,0,0,0,18.3,10.16Z"/><line class="cls-2" x1="16.23" y1="14.79" x2="16.23" y2="16.92"/><line class="cls-2" x1="16.23" y1="12.39" x2="16.23" y2="13.35"/><line class="cls-2" x1="19.05" y1="15.62" x2="19.05" y2="16.24"/><line class="cls-2" x1="19.05" y1="17.93" x2="19.05" y2="17.57"/><line class="cls-2" x1="19.05" y1="12.39" x2="19.05" y2="14.32"/><line class="cls-2" x1="24.69" y1="16.92" x2="24.69" y2="16.21"/><line class="cls-2" x1="24.69" y1="12.39" x2="24.69" y2="15"/><line class="cls-2" x1="21.87" y1="12.39" x2="21.87" y2="13.63"/><line class="cls-2" x1="21.87" y1="15" x2="21.87" y2="14.79"/><line class="cls-2" x1="21.87" y1="16.32" x2="21.87" y2="17.93"/><path class="cls-2" d="M15.53,9.08a5.5,5.5,0,0,0,.12,1.08h9.62a4.83,4.83,0,0,0,.12-1.08,4.93,4.93,0,1,0-9.86,0Z"/><ellipse class="cls-5" cx="20.46" cy="10.16" rx="4.81" ry="0.7"/><line class="cls-2" x1="20.46" y1="4.15" x2="20.46" y2="0.5"/><line class="cls-2" x1="26.93" y1="4.12" x2="40.42" y2="4.12"/><line class="cls-2" x1="30.63" y1="3.68" x2="30.63" y2="7"/><line class="cls-2" x1="37.23" y1="3.68" x2="37.23" y2="7"/><path class="cls-2" d="M39.32,7H28V42.32h0a1.88,1.88,0,0,0,3.76,0h0a1.88,1.88,0,0,0,3.76,0h0a1.88,1.88,0,0,0,3.76,0h0Z"/></g></g></g></svg>