<svg xmlns="http://www.w3.org/2000/svg" viewBox="0 0 46.99 48.5"><defs><style>.cls-1{fill:#a6e872;}.cls-1,.cls-2,.cls-3,.cls-4,.cls-5,.cls-6,.cls-7,.cls-9{stroke:#0b4054;stroke-linejoin:round;}.cls-2,.cls-3{fill:#8de4ff;}.cls-3,.cls-7{stroke-linecap:round;}.cls-4{fill:#ae96cc;}.cls-5{fill:#ffbdc2;}.cls-6{fill:#ffd092;}.cls-7,.cls-9{fill:none;}.cls-8{fill:#fff;}</style></defs><title>km md luar 2</title><g id="Layer_2" data-name="Layer 2"><g id="Layer_1-2" data-name="Layer 1"><g id="km_md_luar_2" data-name="km md luar 2"><circle class="cls-1" cx="9.9" cy="5.69" r="4.93"/><path class="cls-2" d="M14.12,12.51H5.57A5.08,5.08,0,0,0,.5,17.59V28.37a3.29,3.29,0,0,0,3.3,3.29h0A1.17,1.17,0,0,1,5,32.84V45.43A2.54,2.54,0,0,0,7.16,48a2.44,2.44,0,0,0,2.69-2.42A2.43,2.43,0,0,0,12.53,48a2.54,2.54,0,0,0,2.19-2.56V32.84a1.17,1.17,0,0,1,1.17-1.18h0a3.29,3.29,0,0,0,3.3-3.29V17.59A5.08,5.08,0,0,0,14.12,12.51Z"/><line class="cls-3" x1="9.85" y1="45.57" x2="9.85" y2="33.53"/><circle class="cls-4" cx="35.62" cy="5.43" r="4.93"/><path class="cls-5" d="M46.34,24.38l-1.77-6.6a7.29,7.29,0,0,0-7-5.41H33.7a7.29,7.29,0,0,0-7,5.41l-1.77,6.6a4.31,4.31,0,0,0,3.16,5.3L26.1,37.54h19l-2-7.86A4.3,4.3,0,0,0,46.34,24.38Z"/><path class="cls-6" d="M30.63,37.54v7.71a2.49,2.49,0,0,0,2.49,2.49h0a2.49,2.49,0,0,0,2.5-2.49V37.54Z"/><path class="cls-6" d="M35.62,37.54v7.71a2.48,2.48,0,0,0,2.49,2.49h0a2.48,2.48,0,0,0,2.49-2.49V37.54Z"/><line class="cls-7" x1="22.34" y1="2.59" x2="22.34" y2="46.1"/><path class="cls-8" d="M14.12,12.51H7a18.1,18.1,0,0,0,12.14,16,1,1,0,0,0,0-.16V17.59A5.08,5.08,0,0,0,14.12,12.51Z"/><path class="cls-8" d="M44.57,17.78a7.29,7.29,0,0,0-7-5.41H33.7a7.27,7.27,0,0,0-5.05,2.06A18.09,18.09,0,0,0,44.08,29.35a4.31,4.31,0,0,0,2.26-5Z"/><path class="cls-9" d="M14.12,12.51H5.57A5.08,5.08,0,0,0,.5,17.59V28.37a3.29,3.29,0,0,0,3.3,3.29h0A1.17,1.17,0,0,1,5,32.84V45.43A2.54,2.54,0,0,0,7.16,48a2.44,2.44,0,0,0,2.69-2.42A2.43,2.43,0,0,0,12.53,48a2.54,2.54,0,0,0,2.19-2.56V32.84a1.17,1.17,0,0,1,1.17-1.18h0a3.29,3.29,0,0,0,3.3-3.29V17.59A5.08,5.08,0,0,0,14.12,12.51Z"/><path class="cls-9" d="M46.34,24.38l-1.77-6.6a7.29,7.29,0,0,0-7-5.41H33.7a7.29,7.29,0,0,0-7,5.41l-1.77,6.6a4.31,4.31,0,0,0,3.16,5.3L26.1,37.54h19l-2-7.86A4.3,4.3,0,0,0,46.34,24.38Z"/></g></g></g></svg>