<svg xmlns="http://www.w3.org/2000/svg" viewBox="0 0 48.38 47.31"><defs><style>.cls-1{fill:#66d4ff;}.cls-1,.cls-2,.cls-3,.cls-4,.cls-5,.cls-6,.cls-8{stroke:#0b4054;stroke-linecap:round;stroke-linejoin:round;}.cls-2{fill:#ae96cc;}.cls-3{fill:#ffbdc2;}.cls-4{fill:none;}.cls-5{fill:#a6e872;}.cls-6{fill:#ffd092;}.cls-7{fill:#fff;}.cls-8{fill:#8de4ff;}</style></defs><title>km md dalam</title><g id="Layer_2" data-name="Layer 2"><g id="Layer_1-2" data-name="Layer 1"><g id="km_md_dalam" data-name="km md dalam"><g id="bathtub"><line class="cls-1" x1="7.27" y1="35.38" x2="7.27" y2="17.79"/><circle class="cls-2" cx="7.27" cy="18.74" r="2.71"/><line class="cls-1" x1="12.83" y1="26.68" x2="12.83" y2="3.9"/><circle class="cls-3" cx="12.83" cy="5.73" r="5.23"/><path class="cls-4" d="M34.72,7.13A5.09,5.09,0,0,1,39.8,2.05h0a5.09,5.09,0,0,1,5.08,5.08v20.1"/><path class="cls-2" d="M31.57,10.28a3.1,3.1,0,0,0,.08.69h6.13a3.1,3.1,0,0,0,.08-.69,3.15,3.15,0,1,0-6.29,0Z"/><rect class="cls-5" x="0.5" y="26.09" width="47.27" height="3.17" rx="1.39" ry="1.39"/><path class="cls-6" d="M24.13,29.26H3.39L6.88,41.58a2.86,2.86,0,0,0,1.2,1.74s0,.08,0,.12V45a1.83,1.83,0,0,0,3.66,0V43.82h24.8V45a1.84,1.84,0,0,0,3.67,0V43.44s0-.08,0-.12a2.81,2.81,0,0,0,1.19-1.74l3.5-12.32Z"/><path class="cls-7" d="M46.37,26.09H15.1A23.62,23.62,0,0,0,37.22,41.42a23.8,23.8,0,0,0,4.33-.4l3.33-11.76h1.49a1.4,1.4,0,0,0,1.4-1.4v-.38A1.4,1.4,0,0,0,46.37,26.09Z"/><rect class="cls-4" x="0.5" y="26.09" width="47.27" height="3.17" rx="1.39" ry="1.39"/><path class="cls-4" d="M24.13,29.26H3.39L6.88,41.58a2.86,2.86,0,0,0,1.2,1.74s0,.08,0,.12V45a1.83,1.83,0,0,0,3.66,0V43.82h24.8V45a1.84,1.84,0,0,0,3.67,0V43.44s0-.08,0-.12a2.81,2.81,0,0,0,1.19-1.74l3.5-12.32Z"/><path class="cls-8" d="M10.93,25h8.33a1.46,1.46,0,0,1,1.46,1.46V38.81a0,0,0,0,1,0,0H9.47a0,0,0,0,1,0,0V26.44A1.46,1.46,0,0,1,10.93,25Z"/><rect class="cls-2" x="9.47" y="35.56" width="11.25" height="3.25"/></g><line class="cls-2" x1="21.7" y1="7.82" x2="47.88" y2="7.82"/><path class="cls-8" d="M23.49,10.71V41.32h0a1.88,1.88,0,0,0,3.76,0h0a1.88,1.88,0,0,0,3.76,0h0a1.89,1.89,0,0,0,3.77,0h0a1.88,1.88,0,0,0,3.76,0h0a1.88,1.88,0,0,0,3.76,0h0a1.88,1.88,0,0,0,3.76,0h0V10.71Z"/><line class="cls-2" x1="24.89" y1="7.39" x2="24.89" y2="10.71"/><line class="cls-2" x1="31.49" y1="7.39" x2="31.49" y2="10.71"/><line class="cls-2" x1="38.09" y1="7.39" x2="38.09" y2="10.71"/><line class="cls-2" x1="44.69" y1="7.39" x2="44.69" y2="10.71"/><path class="cls-7" d="M28,17.79A16.91,16.91,0,0,0,44.88,34.71c.41,0,.81,0,1.21-.06V10.71H29.53A16.79,16.79,0,0,0,28,17.79Z"/><path class="cls-4" d="M23.49,10.71V41.32h0a1.88,1.88,0,0,0,3.76,0h0a1.88,1.88,0,0,0,3.76,0h0a1.89,1.89,0,0,0,3.77,0h0a1.88,1.88,0,0,0,3.76,0h0a1.88,1.88,0,0,0,3.76,0h0a1.88,1.88,0,0,0,3.76,0h0V10.71Z"/></g></g></g></svg>