<svg xmlns="http://www.w3.org/2000/svg" viewBox="0 0 50.52 49.07"><defs><style>.cls-1{fill:none;}.cls-1,.cls-2,.cls-3,.cls-5,.cls-6,.cls-7{stroke:#0b4054;}.cls-1,.cls-2,.cls-3,.cls-7{stroke-miterlimit:10;}.cls-2,.cls-4{fill:#ffd092;}.cls-3,.cls-6{fill:#fff;}.cls-5{fill:#ae96cc;}.cls-5,.cls-6{stroke-linecap:round;stroke-linejoin:round;}.cls-7{fill:#71eae1;}</style></defs><title>kampus</title><g id="Layer_2" data-name="Layer 2"><g id="Layer_1-2" data-name="Layer 1"><g id="kampus"><line class="cls-1" x1="47.92" y1="13.51" x2="47.92" y2="25.52"/><circle class="cls-2" cx="47.92" cy="27.21" r="2.1"/><polygon class="cls-3" points="24.93 0.57 1.08 13.51 17.65 21.85 24.93 21.22 32.22 21.85 48.78 13.51 24.93 0.57"/><path class="cls-4" d="M36.07,19.91A20.85,20.85,0,0,0,21.55,2.4L1.08,13.51l16.57,8.34,7.28-.63,7.29.63Z"/><polygon class="cls-1" points="24.93 0.57 1.08 13.51 17.65 21.85 24.93 21.22 32.22 21.85 48.78 13.51 24.93 0.57"/><path class="cls-5" d="M24.93,18.71c-11.88,0-13.61,2-13.61,2v4.4S13,26.79,24.93,26.79s13.62-1.68,13.62-1.68v-4.4S36.82,18.71,24.93,18.71Z"/><path class="cls-5" d="M24.93,21.22c11.89,0,13.62,3.89,13.62,3.89V14.94s-1.66-3.89-13.62-3.89-13.61,3.89-13.61,3.89V25.11S13.05,21.22,24.93,21.22Z"/><path class="cls-6" d="M45.8,42.92s-2.08-1.43-20.25-1.43S5.3,42.92,5.3,42.92s-1-1.78-1-7.66,1-5.39,1-5.39,4.32,1.42,20.25,1.42S45.8,29.87,45.8,29.87s1-.49,1,5.39S45.8,42.92,45.8,42.92Z"/><path class="cls-7" d="M45.8,42.92S43.72,42,25.55,42s-20.25.94-20.25.94-2.12-1.17-2.12-5,1-5,1-5,5.46.93,21.39.93,21.38-.93,21.38-.93,1,1.17,1,5S45.8,42.92,45.8,42.92Z"/><polygon class="cls-2" points="21.74 38.76 16.44 46.79 20.33 46.64 22.59 48.3 25.55 41.44 21.74 38.76"/><polygon class="cls-2" points="29.35 38.76 34.65 46.79 30.77 46.64 28.51 48.3 25.55 41.44 29.35 38.76"/><circle class="cls-2" cx="25.55" cy="36.88" r="6.64"/></g></g></g></svg>