<svg xmlns="http://www.w3.org/2000/svg" viewBox="0 0 48.69 46.7"><defs><style>.cls-1,.cls-4{fill:#ffbdc2;}.cls-1,.cls-10,.cls-2,.cls-3,.cls-4,.cls-5,.cls-6,.cls-8,.cls-9{stroke:#0b4054;}.cls-1,.cls-3,.cls-8,.cls-9{stroke-miterlimit:10;}.cls-2{fill:#ae96cc;}.cls-10,.cls-2,.cls-4,.cls-5,.cls-6{stroke-linecap:round;stroke-linejoin:round;}.cls-3{fill:#a6e872;}.cls-5{fill:#ffd092;}.cls-6,.cls-8{fill:#8de4ff;}.cls-7{fill:#fff;}.cls-10,.cls-9{fill:none;}</style></defs><title>Kantin</title><g id="Layer_2" data-name="Layer 2"><g id="Layer_1-2" data-name="Layer 1"><g id="Kantin"><ellipse class="cls-1" cx="24.34" cy="42.23" rx="5.91" ry="3.97"/><rect class="cls-2" x="22.66" y="22.34" width="3.38" height="19.9"/><polygon class="cls-3" points="41.43 19.03 7.26 19.03 10.84 9.14 37.84 9.14 41.43 19.03"/><path class="cls-2" d="M13.5.5H35.19a2.66,2.66,0,0,1,2.66,2.66v6a0,0,0,0,1,0,0h-27a0,0,0,0,1,0,0v-6A2.66,2.66,0,0,1,13.5.5Z"/><rect class="cls-4" x="0.5" y="27.22" width="47.69" height="2.2"/><polygon class="cls-5" points="48.19 27.32 0.5 27.32 5.5 13.52 43.19 13.52 48.19 27.32"/><polygon class="cls-6" points="43.19 13.52 24.34 13.52 5.5 13.52 1.59 24.3 24.34 38.26 47.09 24.3 43.19 13.52"/><path class="cls-7" d="M43.19,13.52H39.43L37.84,9.14v-6h0A2.65,2.65,0,0,0,35.19.5H27.32a20.67,20.67,0,0,0,9.24,30.27l2.18-1.35h9.45v-2.2h0Z"/><line class="cls-2" x1="10.01" y1="27.32" x2="38.68" y2="27.32"/><ellipse class="cls-1" cx="24.67" cy="20.22" rx="5.91" ry="3.97"/><ellipse class="cls-3" cx="24.67" cy="20.22" rx="2.99" ry="2.01"/><ellipse class="cls-5" cx="25.58" cy="19.26" rx="1.96" ry="1.36" transform="translate(-6.13 23.73) rotate(-45)"/><path class="cls-8" d="M23.25,22.14a.6.6,0,0,0-.13-.09l1.16-1.31-.21-.21-1.31,1.2-.05-.05a.37.37,0,0,0-.53.53.36.36,0,0,0,.37.09.42.42,0,0,0,.1.45.43.43,0,0,0,.6,0A.43.43,0,0,0,23.25,22.14Z"/><rect class="cls-1" x="10.84" y="3.12" width="27" height="3.41"/><path class="cls-9" d="M26,38.43v3.8H22.66v-3.8c-2.45.49-4.23,2-4.23,3.8,0,2.19,2.65,4,5.91,4s5.92-1.78,5.92-4C30.26,40.43,28.47,38.92,26,38.43Z"/><polygon class="cls-10" points="24.34 38.26 22.66 37.23 22.66 42.23 26.03 42.23 26.03 37.23 24.34 38.26"/><path class="cls-9" d="M13.5.5H35.19a2.66,2.66,0,0,1,2.66,2.66v6a0,0,0,0,1,0,0h-27a0,0,0,0,1,0,0v-6A2.66,2.66,0,0,1,13.5.5Z"/><polygon class="cls-10" points="43.19 13.52 24.34 13.52 5.5 13.52 1.59 24.3 24.34 38.26 47.09 24.3 43.19 13.52"/><polygon class="cls-10" points="6.36 27.22 0.5 27.22 0.5 29.42 9.94 29.42 6.36 27.22"/><polygon class="cls-10" points="42.33 27.22 38.74 29.42 48.19 29.42 48.19 27.22 42.33 27.22"/><polygon class="cls-10" points="42.17 27.32 48.19 27.32 43.19 13.52 47.09 24.3 42.17 27.32"/><polygon class="cls-10" points="1.59 24.3 0.5 27.32 6.51 27.32 1.59 24.3"/><polygon class="cls-9" points="24.34 13.52 39.43 13.52 37.84 9.14 10.84 9.14 9.26 13.52 24.34 13.52"/><line class="cls-10" x1="10.01" y1="27.32" x2="38.68" y2="27.32"/><path class="cls-9" d="M24.67,16.25c-3.27,0-5.91,1.78-5.91,4s2.64,4,5.91,4,5.91-1.78,5.91-4S27.93,16.25,24.67,16.25Zm0,6A4,4,0,0,1,23.2,22l-.08.09a.6.6,0,0,1,.13.09.43.43,0,0,1,0,.61.43.43,0,0,1-.6,0,.42.42,0,0,1-.1-.45.36.36,0,0,1-.37-.09.37.37,0,0,1,0-.53.34.34,0,0,1,.3-.1,1.7,1.7,0,0,1-.8-1.36c0-1.11,1.34-2,3-2h0c.75-.69,1.74-.86,2.25-.35a1.26,1.26,0,0,1,.21,1.28,1.55,1.55,0,0,1,.48,1.07C27.66,21.33,26.32,22.23,24.67,22.23Z"/><ellipse class="cls-10" cx="25.58" cy="19.26" rx="1.96" ry="1.36" transform="translate(-6.13 23.73) rotate(-45)"/><path class="cls-9" d="M23.25,22.14a.6.6,0,0,0-.13-.09l1.16-1.31-.21-.21-1.31,1.2-.05-.05a.37.37,0,0,0-.53.53.36.36,0,0,0,.37.09.42.42,0,0,0,.1.45.43.43,0,0,0,.6,0A.43.43,0,0,0,23.25,22.14Z"/><rect class="cls-9" x="10.84" y="3.12" width="27" height="3.41"/></g></g></g></svg>