<svg xmlns="http://www.w3.org/2000/svg" viewBox="0 0 47 46.45"><defs><style>.cls-1{fill:#8de4ff;}.cls-1,.cls-2,.cls-3,.cls-4,.cls-6{stroke:#0b4054;stroke-linecap:round;stroke-linejoin:round;}.cls-2{fill:#a6e872;}.cls-3{fill:#ffd092;}.cls-4{fill:#ffbdc2;}.cls-5{fill:#fff;}.cls-6{fill:none;}</style></defs><title>1 t4 tidru</title><g id="Layer_2" data-name="Layer 2"><g id="Layer_1-2" data-name="Layer 1"><g id="_1_t4_tidru" data-name="1 t4 tidru"><ellipse class="cls-1" cx="41.58" cy="29.46" rx="4.01" ry="2.01"/><line class="cls-2" x1="41.58" y1="29.46" x2="41.58" y2="8.75"/><polygon class="cls-3" points="46.5 13.23 36.67 13.23 38.13 2.98 45.05 2.98 46.5 13.23"/><g id="tempat_tidur" data-name="tempat tidur"><path class="cls-2" d="M16.74,26.33C10.44,26.33.5,27.39.5,27.39V46H3.4l.74-5.88H29.33L30.07,46H33V27.39S23,26.33,16.74,26.33Z"/><path class="cls-3" d="M31.49,18.84H2L.5,27.39a99.2,99.2,0,0,1,16.24-1.06A99.14,99.14,0,0,1,33,27.39Z"/><path class="cls-4" d="M31.49,18.84H2V3.7S3.65.5,16.74.5,31.49,3.7,31.49,3.7Z"/><rect class="cls-1" x="9.47" y="11.31" width="14.53" height="7.52"/></g><path class="cls-5" d="M31.49,3.7S29.83.5,16.74.5h-.67a18.19,18.19,0,0,0,13.85,30,17.92,17.92,0,0,0,3-.28V27.39l-1.48-8.55Z"/><g id="tempat_tidur-2" data-name="tempat tidur"><path class="cls-6" d="M16.74,26.33C10.44,26.33.5,27.39.5,27.39V46H3.4l.74-5.88H29.33L30.07,46H33V27.39S23,26.33,16.74,26.33Z"/><path class="cls-6" d="M31.49,18.84H2L.5,27.39a99.2,99.2,0,0,1,16.24-1.06A99.14,99.14,0,0,1,33,27.39Z"/><path class="cls-6" d="M31.49,18.84H2V3.7S3.65.5,16.74.5,31.49,3.7,31.49,3.7Z"/><rect class="cls-6" x="9.47" y="11.31" width="14.53" height="7.52"/></g></g></g></g></svg>