<svg xmlns="http://www.w3.org/2000/svg" viewBox="0 0 46.96 48.91"><defs><style>.cls-1{fill:#66d4ff;}.cls-1,.cls-2,.cls-3,.cls-4,.cls-5,.cls-6,.cls-8,.cls-9{stroke:#0b4054;stroke-linecap:round;stroke-linejoin:round;}.cls-2{fill:#ffd092;}.cls-3{fill:#8de4ff;}.cls-4{fill:#ae96cc;}.cls-5{fill:#a6e872;}.cls-6{fill:#ffbdc2;}.cls-7{fill:#fff;}.cls-8{fill:none;}.cls-9{fill:#71eae1;}</style></defs><title>kipas angin</title><g id="Layer_2" data-name="Layer 2"><g id="Layer_1-2" data-name="Layer 1"><g id="kipas_angin" data-name="kipas angin"><line class="cls-1" x1="43.62" y1="48.41" x2="43.62" y2="36.95"/><circle class="cls-2" cx="43.62" cy="37.95" r="2.85"/><line class="cls-1" x1="14.99" y1="48.41" x2="14.99" y2="37.25"/><circle class="cls-3" cx="14.99" cy="38.24" r="2.85"/><line class="cls-1" x1="11.37" y1="48.41" x2="11.37" y2="42.13"/><circle class="cls-4" cx="11.37" cy="42.99" r="2.44"/><line class="cls-1" x1="2.94" y1="48.41" x2="2.94" y2="36.87"/><circle class="cls-5" cx="2.94" cy="35.8" r="2.44"/><line class="cls-1" x1="38.49" y1="48.41" x2="38.49" y2="41.24"/><circle class="cls-6" cx="38.49" cy="41.82" r="1.65"/><circle class="cls-3" cx="23.18" cy="17.82" r="17.32"/><path class="cls-7" d="M23.18.5a17.29,17.29,0,0,0-9.07,2.58,24.24,24.24,0,0,0-.46,4.7A23.86,23.86,0,0,0,34,31.37,17.31,17.31,0,0,0,23.18.5Z"/><circle class="cls-8" cx="23.18" cy="17.82" r="17.32"/><ellipse class="cls-2" cx="28.4" cy="12.61" rx="6.66" ry="3.16" transform="translate(-0.6 23.77) rotate(-45)"/><ellipse class="cls-2" cx="17.97" cy="23.04" rx="6.66" ry="3.16" transform="translate(-11.03 19.45) rotate(-45)"/><ellipse class="cls-2" cx="28.4" cy="23.04" rx="3.16" ry="6.66" transform="translate(-7.97 26.83) rotate(-45)"/><ellipse class="cls-2" cx="17.97" cy="12.61" rx="3.16" ry="6.66" transform="translate(-3.65 16.4) rotate(-45)"/><circle class="cls-5" cx="23.18" cy="17.82" r="2.41"/><circle class="cls-8" cx="23.18" cy="17.82" r="8.99"/><path class="cls-4" d="M23.18,35.34A17.07,17.07,0,0,1,19.86,35l-1.69,10h10L26.5,35A17.07,17.07,0,0,1,23.18,35.34Z"/><path class="cls-6" d="M16.62,45.07H29.75a3,3,0,0,1,3,3v.3a0,0,0,0,1,0,0H13.65a0,0,0,0,1,0,0V48A3,3,0,0,1,16.62,45.07Z"/><circle class="cls-8" cx="23.18" cy="17.82" r="13.18"/><rect class="cls-9" x="21.92" y="36.94" width="2.53" height="1.36"/><rect class="cls-6" x="21.92" y="39.52" width="2.53" height="1.36"/><rect class="cls-5" x="21.92" y="42.1" width="2.53" height="1.36"/></g></g></g></svg>