<svg xmlns="http://www.w3.org/2000/svg" xmlns:xlink="http://www.w3.org/1999/xlink" viewBox="0 0 42.21 44.1"><defs><style>.cls-1,.cls-14{fill:none;}.cls-2{fill:#66d4ff;}.cls-10,.cls-11,.cls-12,.cls-13,.cls-14,.cls-2,.cls-3,.cls-4,.cls-5,.cls-6,.cls-7{stroke:#0b4054;}.cls-14,.cls-2,.cls-3,.cls-4,.cls-5,.cls-6,.cls-7{stroke-linecap:round;stroke-linejoin:round;}.cls-10,.cls-3{fill:#8de4ff;}.cls-11,.cls-4{fill:#ffd092;}.cls-12,.cls-5{fill:#ae96cc;}.cls-6{fill:#a6e872;}.cls-13,.cls-7{fill:#ffbdc2;}.cls-8{clip-path:url(#clip-path);}.cls-9{fill:#fff;}.cls-10,.cls-11,.cls-12,.cls-13{stroke-miterlimit:10;}</style><clipPath id="clip-path" transform="translate(-2 -2.09)"><path class="cls-1" d="M3.73,40.58a4.29,4.29,0,0,0,3.88-2.49,4.25,4.25,0,0,0,7.74,0,4.26,4.26,0,0,0,7.75,0,4.26,4.26,0,0,0,7.75,0,4.26,4.26,0,0,0,7.75,0,4.26,4.26,0,0,0,3.87,2.49l5-17.39L37.64,0H5.08L0,23.64Z"/></clipPath></defs><title>kolam renang</title><g id="Layer_2" data-name="Layer 2"><g id="Layer_1-2" data-name="Layer 1"><g id="kolam_renang" data-name="kolam renang"><line class="cls-2" x1="32.98" y1="32.19" x2="32.98" y2="19.98"/><circle class="cls-3" cx="32.98" cy="20.96" r="2.81"/><line class="cls-2" x1="22.39" y1="36.65" x2="22.39" y2="24.44"/><circle class="cls-4" cx="22.39" cy="25.43" r="2.81"/><line class="cls-2" x1="9.45" y1="31.64" x2="9.45" y2="19.01"/><circle class="cls-5" cx="9.45" cy="19.59" r="1.64"/><line class="cls-2" x1="27.69" y1="31.64" x2="27.69" y2="18.51"/><circle class="cls-6" cx="27.69" cy="19.08" r="1.64"/><line class="cls-2" x1="15.34" y1="35.51" x2="15.34" y2="21.71"/><circle class="cls-7" cx="15.34" cy="22.82" r="3.17"/><g class="cls-8"><path class="cls-6" d="M23.1,2.59a20.6,20.6,0,1,0,20.61,20.6A20.6,20.6,0,0,0,23.1,2.59Zm0,31.71A11.11,11.11,0,1,1,34.21,23.19,11.11,11.11,0,0,1,23.1,34.3Z" transform="translate(-2 -2.09)"/><path class="cls-9" d="M34.13,5.8h0a20.54,20.54,0,0,0-22.05,0h0c-.66.43-1.3.89-1.91,1.38,0,.58-.07,1.17-.07,1.76a23.42,23.42,0,0,0,2.53,10.59,10.6,10.6,0,0,1,.52-1.25c.14-.27.28-.53.44-.79h0a11.14,11.14,0,0,1,3.8-3.8h0a8.78,8.78,0,0,1,.79-.44h0a11.06,11.06,0,0,1,9.82,0c.27.13.54.28.79.43h0a11.2,11.2,0,0,1,3.79,3.8h0c.15.26.3.52.43.79h0a11,11,0,0,1,0,9.82h0c-.13.27-.28.54-.43.79h0a11.22,11.22,0,0,1-2.86,3.16,24.72,24.72,0,0,0,3.78.3,23.25,23.25,0,0,0,8.76-1.7,20.34,20.34,0,0,0,1.42-7.47A20.59,20.59,0,0,0,34.13,5.8Z" transform="translate(-2 -2.09)"/><path class="cls-10" d="M28,33.14l6.12,7.44a20.67,20.67,0,0,0,6.36-6.37L33.05,28.1A11.08,11.08,0,0,1,28,33.14Z" transform="translate(-2 -2.09)"/><path class="cls-11" d="M18.19,13.24,12.08,5.8a20.57,20.57,0,0,0-6.36,6.37l7.43,6.11A11.18,11.18,0,0,1,18.19,13.24Z" transform="translate(-2 -2.09)"/><path class="cls-12" d="M12.08,40.58l6.11-7.44a11.13,11.13,0,0,1-5-5L5.72,34.21A20.57,20.57,0,0,0,12.08,40.58Z" transform="translate(-2 -2.09)"/><path class="cls-13" d="M34.13,5.8,28,13.24a11.13,11.13,0,0,1,5,5l7.44-6.11A20.67,20.67,0,0,0,34.13,5.8Z" transform="translate(-2 -2.09)"/><path class="cls-14" d="M23.1,2.59a20.6,20.6,0,1,0,20.61,20.6A20.6,20.6,0,0,0,23.1,2.59Zm0,31.71A11.11,11.11,0,1,1,34.21,23.19,11.11,11.11,0,0,1,23.1,34.3Z" transform="translate(-2 -2.09)"/></g><path class="cls-14" d="M11.48,40.58a4.26,4.26,0,0,0,3.87-2.49,4.26,4.26,0,0,0,7.75,0,4.26,4.26,0,0,0,7.75,0,4.26,4.26,0,0,0,3.87,2.49" transform="translate(-2 -2.09)"/><path class="cls-14" d="M5.72,45.69a3.83,3.83,0,0,0,3.47-2.23,3.83,3.83,0,0,0,7,0,3.82,3.82,0,0,0,7,0,3.83,3.83,0,0,0,7,0,3.82,3.82,0,0,0,7,0,3.84,3.84,0,0,0,3.48,2.23" transform="translate(-2 -2.09)"/></g></g></g></svg>