<svg xmlns="http://www.w3.org/2000/svg" viewBox="0 0 42.69 47.53"><defs><style>.cls-1{fill:#ffd092;}.cls-1,.cls-2,.cls-3,.cls-4,.cls-5,.cls-7{stroke:#0b4054;}.cls-1,.cls-10,.cls-11,.cls-2,.cls-3,.cls-4,.cls-5,.cls-7,.cls-9{stroke-linecap:round;stroke-linejoin:round;}.cls-10,.cls-11,.cls-2,.cls-8,.cls-9{fill:none;}.cls-3{fill:#8de4ff;}.cls-4{fill:#ffbdc2;}.cls-5{fill:#ae96cc;}.cls-6{fill:#fff;}.cls-7{fill:#a6e872;}.cls-10,.cls-11,.cls-9{stroke:#8de4ff;}.cls-10{stroke-width:0.25px;}.cls-11{stroke-width:0.5px;}</style></defs><title>kulkas</title><g id="Layer_2" data-name="Layer 2"><g id="Layer_1-2" data-name="Layer 1"><g id="kulkas"><rect class="cls-1" x="0.5" y="0.5" width="41.69" height="4.61"/><rect class="cls-1" x="0.5" y="39.87" width="41.69" height="7.16"/><line class="cls-2" x1="3.06" y1="42.08" x2="39.63" y2="42.08"/><line class="cls-2" x1="3.06" y1="44.82" x2="39.63" y2="44.82"/><rect class="cls-3" x="0.5" y="5.11" width="17.59" height="34.76"/><rect class="cls-4" x="2.76" y="16.48" width="9" height="12.01"/><rect class="cls-5" x="18.09" y="5.11" width="24.09" height="34.76" transform="translate(60.28 44.98) rotate(180)"/><path class="cls-6" d="M9.5,5.11A24.38,24.38,0,0,0,42.19,35.63V5.11H9.5Z"/><rect class="cls-2" x="18.09" y="5.11" width="24.09" height="34.76" transform="translate(60.28 44.98) rotate(180)"/><rect class="cls-7" x="20.55" y="7.27" width="1.58" height="18.42"/><rect class="cls-7" x="14.22" y="7.27" width="1.58" height="18.42"/><line class="cls-2" x1="2.76" y1="19.61" x2="11.76" y2="19.61"/><rect class="cls-2" x="0.5" y="5.11" width="17.59" height="34.76"/><path class="cls-8" d="M9.5,5.11A24.38,24.38,0,0,0,42.19,35.63V5.11H9.5Z"/><rect class="cls-2" x="2.76" y="16.48" width="9" height="12.01"/><line class="cls-9" x1="32.58" y1="10.43" x2="32.58" y2="24.36"/><polyline class="cls-9" points="31.3 11.68 32.58 13.02 33.76 11.68"/><polyline class="cls-9" points="33.76 23.1 32.49 21.77 31.3 23.1"/><line class="cls-9" x1="39.5" y1="17.43" x2="25.57" y2="17.43"/><polyline class="cls-9" points="38.24 16.16 36.91 17.43 38.24 18.62"/><polyline class="cls-9" points="26.82 18.62 28.16 17.35 26.82 16.16"/><line class="cls-9" x1="36.72" y1="21.64" x2="28.28" y2="13.2"/><polyline class="cls-9" points="37.44 20.56 35.59 20.52 35.7 22.3"/><polyline class="cls-9" points="27.62 14.22 29.47 14.27 29.36 12.48"/><line class="cls-9" x1="28.28" y1="21.58" x2="36.72" y2="13.14"/><polyline class="cls-9" points="29.36 22.3 29.41 20.45 27.62 20.56"/><polyline class="cls-9" points="35.7 12.48 35.66 14.33 37.44 14.22"/><line class="cls-10" x1="24.12" y1="26.99" x2="24.12" y2="31.45"/><polyline class="cls-10" points="23.64 27.09 24.12 27.59 24.56 27.09"/><polyline class="cls-10" points="24.56 31.36 24.08 30.86 23.64 31.36"/><line class="cls-10" x1="26.33" y1="29.24" x2="21.87" y2="29.24"/><polyline class="cls-10" points="26.24 28.76 25.73 29.24 26.24 29.68"/><polyline class="cls-10" points="21.96 29.68 22.46 29.21 21.96 28.76"/><line class="cls-10" x1="25.67" y1="30.81" x2="22.51" y2="27.66"/><polyline class="cls-10" points="25.94 30.41 25.25 30.39 25.29 31.06"/><polyline class="cls-10" points="22.26 28.04 22.95 28.06 22.91 27.39"/><line class="cls-10" x1="22.51" y1="30.79" x2="25.67" y2="27.64"/><polyline class="cls-10" points="22.91 31.06 22.93 30.37 22.26 30.41"/><polyline class="cls-10" points="25.29 27.39 25.27 28.08 25.94 28.04"/><line class="cls-11" x1="35.81" y1="29.06" x2="35.81" y2="34.58"/><polyline class="cls-11" points="35.22 29.18 35.81 29.8 36.36 29.18"/><polyline class="cls-11" points="36.36 34.47 35.77 33.85 35.22 34.47"/><line class="cls-11" x1="38.55" y1="31.84" x2="33.03" y2="31.84"/><polyline class="cls-11" points="38.43 31.25 37.81 31.84 38.43 32.39"/><polyline class="cls-11" points="33.15 32.39 33.77 31.8 33.15 31.25"/><line class="cls-11" x1="37.73" y1="33.79" x2="33.82" y2="29.89"/><polyline class="cls-11" points="38.06 33.29 37.21 33.27 37.26 34.09"/><polyline class="cls-11" points="33.52 30.36 34.37 30.38 34.32 29.55"/><line class="cls-11" x1="33.82" y1="33.76" x2="37.73" y2="29.86"/><polyline class="cls-11" points="34.32 34.09 34.34 33.24 33.52 33.29"/><polyline class="cls-11" points="37.26 29.55 37.23 30.41 38.06 30.36"/></g></g></g></svg>