<svg xmlns="http://www.w3.org/2000/svg" viewBox="0 0 47.5 47.61"><defs><style>.cls-1{fill:#a6e872;}.cls-1,.cls-2,.cls-3,.cls-4,.cls-5,.cls-7{stroke:#0b4054;stroke-linecap:round;stroke-linejoin:round;}.cls-2{fill:#ffd092;}.cls-3{fill:#8de4ff;}.cls-4{fill:#ffbdc2;}.cls-5{fill:#ae96cc;}.cls-6{fill:#fff;}.cls-7{fill:none;}</style></defs><title>lemari</title><g id="Layer_2" data-name="Layer 2"><g id="Layer_1-2" data-name="Layer 1"><g id="lemari"><path class="cls-1" d="M43.78.5H3.72A3,3,0,0,0,.5,3.23V42.17H47V3.23A3,3,0,0,0,43.78.5Z"/><rect class="cls-2" x="4.61" y="42.17" width="7.51" height="4.94"/><rect class="cls-2" x="35.37" y="42.17" width="7.51" height="4.94"/><rect class="cls-3" x="4.26" y="23.75" width="38.27" height="14.18"/><circle class="cls-4" cx="23.39" cy="30.84" r="2.15"/><rect class="cls-5" x="4.61" y="5.32" width="38.27" height="14.18"/><circle class="cls-3" cx="23.75" cy="12.41" r="2.15"/><polygon class="cls-2" points="22.05 23.75 33.5 16.3 37.43 23.75 22.05 23.75"/><line class="cls-1" x1="31.93" y1="20.88" x2="33.5" y2="23.75"/><path class="cls-6" d="M43.78.5H14.15A25.3,25.3,0,0,0,38.3,33.31,25.12,25.12,0,0,0,47,31.77V3.23A3,3,0,0,0,43.78.5Z"/><path class="cls-7" d="M43.78.5H3.72A3,3,0,0,0,.5,3.23V42.17H47V3.23A3,3,0,0,0,43.78.5Z"/><rect class="cls-2" x="4.61" y="42.17" width="7.51" height="4.94"/><rect class="cls-2" x="35.37" y="42.17" width="7.51" height="4.94"/><rect class="cls-7" x="4.26" y="23.75" width="38.27" height="14.18"/><circle class="cls-4" cx="23.39" cy="30.84" r="2.15"/><rect class="cls-7" x="4.61" y="5.32" width="38.27" height="14.18"/><circle class="cls-3" cx="23.75" cy="12.41" r="2.15"/><polygon class="cls-2" points="22.05 23.75 33.5 16.3 37.43 23.75 22.05 23.75"/><line class="cls-1" x1="31.93" y1="20.88" x2="33.5" y2="23.75"/></g></g></g></svg>