<svg xmlns="http://www.w3.org/2000/svg" viewBox="0 0 44.37 47.91"><defs><style>.cls-1,.cls-2,.cls-3{fill:none;}.cls-1,.cls-2,.cls-3,.cls-4,.cls-5,.cls-6{stroke:#0b4054;stroke-linecap:round;stroke-linejoin:round;}.cls-2{stroke-dasharray:1.83 2.75;}.cls-3{stroke-dasharray:2.34 3.52;}.cls-4{fill:#ffd092;}.cls-5{fill:#8de4ff;}.cls-6{fill:#ffbdc2;}.cls-7{fill:#fff;}</style></defs><title>luas kamar 2</title><g id="Layer_2" data-name="Layer 2"><g id="Layer_1-2" data-name="Layer 1"><g id="luas_kamar_2" data-name="luas kamar 2"><polyline class="cls-1" points="1.37 32.32 0.5 31.83 1.37 31.34"/><line class="cls-2" x1="3.76" y1="29.99" x2="18.51" y2="21.67"/><polyline class="cls-1" points="19.71 20.99 20.58 20.5 21.45 20.99"/><line class="cls-2" x1="23.84" y1="22.34" x2="38.6" y2="30.67"/><polyline class="cls-1" points="39.79 31.34 40.66 31.83 39.79 32.32"/><line class="cls-2" x1="37.4" y1="33.67" x2="22.65" y2="42"/><polyline class="cls-1" points="21.45 42.67 20.58 43.16 19.71 42.67"/><line class="cls-2" x1="17.32" y1="41.32" x2="2.57" y2="33"/><polygon class="cls-1" points="0.5 14.59 20.58 3.26 40.66 14.59 20.58 25.93 0.5 14.59"/><line class="cls-1" x1="21.94" y1="1.54" x2="23.79" y2="0.5"/><line class="cls-1" x1="42.02" y1="12.88" x2="43.87" y2="11.83"/><line class="cls-1" x1="22.86" y1="1.02" x2="42.94" y2="12.35"/><line class="cls-1" x1="40.69" y1="33.95" x2="40.63" y2="36.08"/><line class="cls-1" x1="20.61" y1="45.28" x2="20.55" y2="47.41"/><line class="cls-1" x1="40.66" y1="35.02" x2="20.58" y2="46.35"/><line class="cls-1" x1="20.58" y1="20.5" x2="20.58" y2="19.5"/><line class="cls-3" x1="20.58" y1="15.98" x2="20.58" y2="6.02"/><line class="cls-1" x1="20.58" y1="4.26" x2="20.58" y2="3.26"/><polygon class="cls-4" points="0.5 31.83 0.5 14.59 20.58 25.93 20.58 43.16 0.5 31.83"/><polygon class="cls-5" points="20.58 43.16 20.58 25.93 40.66 14.59 40.66 31.83 20.58 43.16"/><polygon class="cls-6" points="24.18 41.13 24.18 30.61 28.77 28.02 28.77 38.54 24.18 41.13"/><polygon class="cls-6" points="32.93 32.09 32.93 27.08 37.52 24.49 37.52 29.5 32.93 32.09"/><line class="cls-6" x1="35.22" y1="25.79" x2="35.22" y2="30.8"/><path class="cls-7" d="M11.05,8.64a19.71,19.71,0,0,0-.28,3.19A19.13,19.13,0,0,0,29.89,31a19,19,0,0,0,10.77-3.33v-13L20.58,3.26Z"/><polyline class="cls-1" points="1.37 32.32 0.5 31.83 1.37 31.34"/><line class="cls-2" x1="3.76" y1="29.99" x2="18.51" y2="21.67"/><polyline class="cls-1" points="19.71 20.99 20.58 20.5 21.45 20.99"/><line class="cls-2" x1="23.84" y1="22.34" x2="38.6" y2="30.67"/><polyline class="cls-1" points="39.79 31.34 40.66 31.83 39.79 32.32"/><line class="cls-2" x1="37.4" y1="33.67" x2="22.65" y2="42"/><polyline class="cls-1" points="21.45 42.67 20.58 43.16 19.71 42.67"/><line class="cls-2" x1="17.32" y1="41.32" x2="2.57" y2="33"/><polygon class="cls-1" points="0.5 14.59 20.58 3.26 40.66 14.59 20.58 25.93 0.5 14.59"/><line class="cls-1" x1="20.58" y1="20.5" x2="20.58" y2="19.5"/><line class="cls-3" x1="20.58" y1="15.98" x2="20.58" y2="6.02"/><line class="cls-1" x1="20.58" y1="4.26" x2="20.58" y2="3.26"/><polygon class="cls-1" points="0.5 31.83 0.5 14.59 20.58 25.93 20.58 43.16 0.5 31.83"/><polygon class="cls-1" points="20.58 43.16 20.58 25.93 40.66 14.59 40.66 31.83 20.58 43.16"/><polygon class="cls-1" points="24.18 41.13 24.18 30.61 28.77 28.02 28.77 38.54 24.18 41.13"/><polygon class="cls-1" points="32.93 32.09 32.93 27.08 37.52 24.49 37.52 29.5 32.93 32.09"/><line class="cls-1" x1="35.22" y1="25.79" x2="35.22" y2="30.8"/></g></g></g></svg>