<svg xmlns="http://www.w3.org/2000/svg" viewBox="0 0 43.17 47.21"><defs><style>.cls-1{fill:#71eae1;}.cls-1,.cls-2,.cls-3,.cls-5,.cls-6{stroke:#0b4054;stroke-linecap:round;stroke-linejoin:round;}.cls-2{fill:#1473a3;}.cls-3{fill:#fff;}.cls-4{fill:#ae96cc;}.cls-5{fill:none;}.cls-6{fill:#ffd092;}.cls-7{fill:#a6e872;}</style></defs><title>mall</title><g id="Layer_2" data-name="Layer 2"><g id="Layer_1-2" data-name="Layer 1"><g id="mall"><polygon class="cls-1" points="42.67 12.13 21.58 7.7 0.5 12.13 0.5 46.71 42.67 46.71 42.67 12.13"/><line class="cls-2" x1="8.65" y1="10.43" x2="8.65" y2="46.61"/><line class="cls-2" x1="4.44" y1="11.3" x2="4.44" y2="46.71"/><line class="cls-2" x1="34.73" y1="10.46" x2="34.73" y2="46.71"/><line class="cls-2" x1="38.94" y1="11.35" x2="38.94" y2="46.71"/><path class="cls-3" d="M11.5,6.08S11.5.5,21.58.5,31.67,6.08,31.67,6.08V46.71H11.5Z"/><path class="cls-4" d="M31.58,46.71l.09-.16V24.94A22.86,22.86,0,0,0,11.5,12.87V46.71Z"/><path class="cls-5" d="M11.5,6.08S11.5.5,21.58.5,31.67,6.08,31.67,6.08V46.71H11.5Z"/><line class="cls-2" x1="21.58" y1="0.5" x2="21.58" y2="46.71"/><path class="cls-5" d="M11.52,9.75s.19-4.52,10.06-4.52S31.65,9.75,31.65,9.75"/><path class="cls-5" d="M11.52,16.9s.19-3.26,10.06-3.26S31.65,16.9,31.65,16.9"/><path class="cls-5" d="M11.52,25.78s.19-2.94,10.06-2.94,10.07,2.94,10.07,2.94"/><path class="cls-5" d="M11.52,34.27s.19-2.19,10.06-2.19,10.07,2.19,10.07,2.19"/><path class="cls-5" d="M11.52,43.55s.19-1.37,10.06-1.37,10.07,1.37,10.07,1.37"/><path class="cls-6" d="M18.22,35.11H25a.78.78,0,0,1,.78.78V46.71a0,0,0,0,1,0,0H17.44a0,0,0,0,1,0,0V35.89a.78.78,0,0,1,.78-.78Z"/><circle class="cls-3" cx="21.58" cy="15.03" r="7.95"/><path class="cls-7" d="M27.45,20.39a10.73,10.73,0,0,0-10.7-10,11.17,11.17,0,0,0-1.75.15,7.95,7.95,0,0,0,12.45,9.81Z"/><polyline class="cls-5" points="16.75 11.03 17.99 11.03 19.59 17.49 24.36 17.49 26.42 13.49 22.29 13.49"/><line class="cls-5" x1="25.32" y1="15.61" x2="20.74" y2="15.61"/><circle class="cls-5" cx="20.65" cy="19.53" r="0.74"/><circle class="cls-5" cx="23.43" cy="19.53" r="0.74"/><circle class="cls-5" cx="21.58" cy="15.03" r="7.95"/></g></g></g></svg>