<svg xmlns="http://www.w3.org/2000/svg" viewBox="0 0 47.46 45.39"><defs><style>.cls-1{fill:#66d4ff;}.cls-1,.cls-2,.cls-3,.cls-4,.cls-5,.cls-6,.cls-8{stroke:#0b4054;stroke-linecap:round;stroke-linejoin:round;}.cls-2{fill:#ffd092;}.cls-3{fill:#a6e872;}.cls-4{fill:#ae96cc;}.cls-5{fill:#8de4ff;}.cls-6{fill:#ffbdc2;}.cls-7{fill:#fff;}.cls-8{fill:none;}</style></defs><title>meja dan kursoi</title><g id="Layer_2" data-name="Layer 2"><g id="Layer_1-2" data-name="Layer 1"><g id="meja_dan_kursoi" data-name="meja dan kursoi"><line class="cls-1" x1="24.16" y1="24.84" x2="24.16" y2="11.12"/><circle class="cls-2" cx="24.16" cy="12.22" r="3.15"/><line class="cls-1" x1="32.56" y1="23.94" x2="32.56" y2="2.26"/><circle class="cls-3" cx="32.56" cy="3.21" r="2.71"/><line class="cls-1" x1="12.42" y1="22.23" x2="12.42" y2="4.26"/><circle class="cls-4" cx="12.42" cy="6.09" r="5.23"/><polygon class="cls-5" points="8.79 19.61 6.43 19.61 6.43 22.67 11.85 22.67 8.79 19.61"/><polygon class="cls-5" points="38.67 19.61 35.61 22.67 41.03 22.67 41.03 19.61 38.67 19.61"/><polygon class="cls-6" points="23.73 34.55 38.67 19.61 8.79 19.61 23.73 34.55"/><rect class="cls-3" x="18.5" y="42.71" width="10.46" height="2.17"/><polygon class="cls-2" points="23.73 34.55 22.74 33.57 22.74 42.71 24.71 42.71 24.71 33.57 23.73 34.55"/><rect class="cls-5" x="4.83" y="35.74" width="1.97" height="9.15"/><rect class="cls-5" x="14.16" y="35.74" width="1.97" height="9.15"/><rect class="cls-2" x="4.1" y="33.85" width="12.75" height="1.89"/><polygon class="cls-3" points="15.57 31.21 5.39 31.21 4.1 33.85 16.85 33.85 15.57 31.21"/><path class="cls-6" d="M.54,21.44l2.6,10.62a1.07,1.07,0,0,0,1.22.88h0a1.08,1.08,0,0,0,.67-1.35L2.45,21a1.06,1.06,0,0,0-1.21-.88h0A1.08,1.08,0,0,0,.54,21.44Z"/><rect class="cls-5" x="40.66" y="35.74" width="1.97" height="9.15"/><rect class="cls-5" x="31.33" y="35.74" width="1.97" height="9.15"/><rect class="cls-2" x="30.6" y="33.85" width="12.75" height="1.89" transform="translate(73.96 69.59) rotate(-180)"/><polygon class="cls-3" points="31.89 31.21 42.07 31.21 43.36 33.85 30.6 33.85 31.89 31.21"/><path class="cls-6" d="M46.92,21.44,44.31,32.06a1.06,1.06,0,0,1-1.21.88h0a1.08,1.08,0,0,1-.67-1.35L45,21a1.06,1.06,0,0,1,1.21-.88h0A1.08,1.08,0,0,1,46.92,21.44Z"/><path class="cls-7" d="M46.25,20.09h0A1.06,1.06,0,0,0,45,21l-1.94,7.88a17,17,0,0,0,2.66-2.56l1.19-4.85A1.08,1.08,0,0,0,46.25,20.09Z"/><path class="cls-7" d="M41,22.67V19.61H16A17.07,17.07,0,0,0,26.83,31.45l8.78-8.78Z"/><path class="cls-7" d="M31.89,31.21l-.58,1.19c.42,0,.84.07,1.27.07A17.16,17.16,0,0,0,39,31.21Z"/><polygon class="cls-8" points="8.79 19.61 6.43 19.61 6.43 22.67 11.85 22.67 8.79 19.61"/><polygon class="cls-8" points="38.67 19.61 35.61 22.67 41.03 22.67 41.03 19.61 38.67 19.61"/><polygon class="cls-8" points="23.73 34.55 38.67 19.61 8.79 19.61 23.73 34.55"/><rect class="cls-8" x="18.5" y="42.71" width="10.46" height="2.17"/><polygon class="cls-8" points="23.73 34.55 22.74 33.57 22.74 42.71 24.71 42.71 24.71 33.57 23.73 34.55"/><rect class="cls-8" x="4.83" y="35.74" width="1.97" height="9.15"/><rect class="cls-8" x="14.16" y="35.74" width="1.97" height="9.15"/><rect class="cls-8" x="4.1" y="33.85" width="12.75" height="1.89"/><polygon class="cls-8" points="15.57 31.21 5.39 31.21 4.1 33.85 16.85 33.85 15.57 31.21"/><path class="cls-8" d="M.54,21.44l2.6,10.62a1.07,1.07,0,0,0,1.22.88h0a1.08,1.08,0,0,0,.67-1.35L2.45,21a1.06,1.06,0,0,0-1.21-.88h0A1.08,1.08,0,0,0,.54,21.44Z"/><rect class="cls-8" x="40.66" y="35.74" width="1.97" height="9.15"/><rect class="cls-8" x="31.33" y="35.74" width="1.97" height="9.15"/><rect class="cls-8" x="30.6" y="33.85" width="12.75" height="1.89" transform="translate(73.96 69.59) rotate(-180)"/><polygon class="cls-8" points="31.89 31.21 42.07 31.21 43.36 33.85 30.6 33.85 31.89 31.21"/><path class="cls-8" d="M46.92,21.44,44.31,32.06a1.06,1.06,0,0,1-1.21.88h0a1.08,1.08,0,0,1-.67-1.35L45,21a1.06,1.06,0,0,1,1.21-.88h0A1.08,1.08,0,0,1,46.92,21.44Z"/></g></g></g></svg>