<svg xmlns="http://www.w3.org/2000/svg" viewBox="0 0 46.5 46.77"><defs><style>.cls-1{fill:#a6e872;}.cls-1,.cls-2,.cls-3,.cls-4,.cls-5,.cls-6,.cls-8{stroke:#0b4054;}.cls-1,.cls-2,.cls-3,.cls-4,.cls-5,.cls-8{stroke-miterlimit:10;}.cls-2{fill:#ffbdc2;}.cls-3{fill:#8de4ff;}.cls-4{fill:#ae96cc;}.cls-5{fill:#ffd092;}.cls-6,.cls-8{fill:none;}.cls-6{stroke-linecap:round;stroke-linejoin:round;}.cls-7{fill:#fff;}</style></defs><title>mesin cuci</title><g id="Layer_2" data-name="Layer 2"><g id="Layer_1-2" data-name="Layer 1"><g id="mesin_cuci" data-name="mesin cuci"><path class="cls-1" d="M2.06.5h30a1.56,1.56,0,0,1,1.56,1.56V44.59a0,0,0,0,1,0,0H.5a0,0,0,0,1,0,0V2.06A1.56,1.56,0,0,1,2.06.5Z"/><circle class="cls-2" cx="17.07" cy="26.04" r="11.9"/><circle class="cls-3" cx="17.07" cy="26.04" r="7.54"/><path class="cls-4" d="M2.06.5h30a1.56,1.56,0,0,1,1.56,1.56V7.57a0,0,0,0,1,0,0H.5a0,0,0,0,1,0,0V2.06A1.56,1.56,0,0,1,2.06.5Z"/><circle class="cls-5" cx="5.1" cy="4.04" r="1.5"/><circle class="cls-5" cx="10.21" cy="4.04" r="1.5"/><line class="cls-6" x1="23.74" y1="4.04" x2="30.68" y2="4.04"/><polygon class="cls-5" points="33.64 19.64 45.02 19.64 42.81 41.35 33.64 41.35 33.64 19.64"/><rect class="cls-2" x="33.64" y="17.08" width="11.74" height="2.57"/><path class="cls-7" d="M43.6,17.08h-10v-15h0A1.56,1.56,0,0,0,32.08.5H17.38A15.77,15.77,0,1,0,43.6,17.08Z"/><line class="cls-6" x1="23.74" y1="4.04" x2="30.68" y2="4.04"/><path class="cls-8" d="M2.06.5h30a1.56,1.56,0,0,1,1.56,1.56V44.59a0,0,0,0,1,0,0H.5a0,0,0,0,1,0,0V2.06A1.56,1.56,0,0,1,2.06.5Z"/><circle class="cls-8" cx="17.07" cy="26.04" r="11.9"/><circle class="cls-8" cx="17.07" cy="26.04" r="7.54"/><path class="cls-8" d="M2.06.5h30a1.56,1.56,0,0,1,1.56,1.56V7.57a0,0,0,0,1,0,0H.5a0,0,0,0,1,0,0V2.06A1.56,1.56,0,0,1,2.06.5Z"/><circle class="cls-8" cx="5.1" cy="4.04" r="1.5"/><circle class="cls-8" cx="10.21" cy="4.04" r="1.5"/><polygon class="cls-8" points="33.64 19.64 45.02 19.64 42.81 41.35 33.64 41.35 33.64 19.64"/><rect class="cls-8" x="33.64" y="17.08" width="11.74" height="2.57"/><rect class="cls-2" x="29.75" y="42.71" width="16.25" height="3.56" rx="1.68" ry="1.68"/><rect class="cls-1" x="29.75" y="39.15" width="16.25" height="3.56" rx="1.68" ry="1.68"/><rect class="cls-3" x="29.75" y="35.58" width="16.25" height="3.56" rx="1.68" ry="1.68"/></g></g></g></svg>