<svg xmlns="http://www.w3.org/2000/svg" viewBox="0 0 48.1 48.56"><defs><style>.cls-1{fill:#a6e872;}.cls-1,.cls-10,.cls-11,.cls-6,.cls-7{stroke:#0e4c60;}.cls-1,.cls-10,.cls-11,.cls-2,.cls-4,.cls-5,.cls-6,.cls-7,.cls-8{stroke-linejoin:round;}.cls-10,.cls-11,.cls-2{fill:none;}.cls-2,.cls-4,.cls-5,.cls-8{stroke:#0b4054;}.cls-11,.cls-2,.cls-5,.cls-6{stroke-linecap:round;}.cls-3{fill:#492568;}.cls-4{fill:#ae96cc;}.cls-5,.cls-6{fill:#ffd092;}.cls-7{fill:#8de4ff;}.cls-8{fill:#fbb03b;}.cls-9{fill:#fff;}</style></defs><title>mushola</title><g id="Layer_2" data-name="Layer 2"><g id="Layer_1-2" data-name="Layer 1"><g id="mushola"><g id="Mushola-2" data-name="Mushola"><path class="cls-1" d="M9.43,24.19c-1.7-1-1.7-2.22-1.7-2.22s0,1.19-1.69,2.22-8.23,5-4.3,12.27h12C17.66,29.21,11.13,25.21,9.43,24.19Z"/><path class="cls-2" d="M9.43,24.19c-1.7-1-1.7-2.22-1.7-2.22s0,1.19-1.69,2.22-8.23,5-4.3,12.27h12C17.66,29.21,11.13,25.21,9.43,24.19Z"/><path class="cls-3" d="M41.47,28.26c1.88,3.44-.7,7.06-.7,7.06h5.92l.64-1.25c1.52-5.74-3.76-9-5.26-9.88-1.7-1-1.7-2.22-1.7-2.22a2.08,2.08,0,0,1-.07.36A9.47,9.47,0,0,0,41.47,28.26Z"/><rect class="cls-4" x="1.62" y="36.46" width="12.24" height="11.6"/><path class="cls-1" d="M42.07,24.19c-1.7-1-1.7-2.22-1.7-2.22s0,1.19-1.7,2.22-8.23,5-4.29,12.27h12C50.3,29.21,43.77,25.21,42.07,24.19Z"/><path class="cls-2" d="M42.07,24.19c-1.7-1-1.7-2.22-1.7-2.22s0,1.19-1.7,2.22-8.23,5-4.29,12.27h12C50.3,29.21,43.77,25.21,42.07,24.19Z"/><rect class="cls-4" x="34.25" y="36.46" width="12.24" height="11.6"/><rect class="cls-4" x="13.83" y="28.26" width="20.36" height="19.8"/><path class="cls-1" d="M26.89,12.22C24,10.89,24,9.33,24,9.33s0,1.56-2.87,2.89-13.94,6.57-7.27,16H34.16C40.82,18.79,29.77,13.56,26.89,12.22Z"/><path class="cls-5" d="M24,36.46h0a4.15,4.15,0,0,1,4.15,4.15v7.45a0,0,0,0,1,0,0H19.87a0,0,0,0,1,0,0V40.61A4.15,4.15,0,0,1,24,36.46Z"/><path class="cls-5" d="M40.37,42.66h0a2,2,0,0,1,2,2v3.41a0,0,0,0,1,0,0h-4a0,0,0,0,1,0,0V44.65a2,2,0,0,1,2-2Z"/><path class="cls-2" d="M26.89,12.22C24,10.89,24,9.33,24,9.33s0,1.56-2.87,2.89-13.94,6.57-7.27,16H34.16C40.82,18.79,29.77,13.56,26.89,12.22Z"/><path class="cls-5" d="M7.73,42.66h0a2,2,0,0,1,2,2v3.41a0,0,0,0,1,0,0h-4a0,0,0,0,1,0,0V44.65A2,2,0,0,1,7.73,42.66Z"/><path class="cls-6" d="M22.64.5a4.62,4.62,0,0,0-1.86.39,4.6,4.6,0,0,1,0,8.43A4.61,4.61,0,1,0,22.64.5Z"/><polygon class="cls-7" points="20.53 3.74 20.97 4.64 21.96 4.78 21.24 5.48 21.41 6.47 20.53 6 19.64 6.47 19.81 5.48 19.09 4.78 20.08 4.64 20.53 3.74"/><rect class="cls-8" x="13.01" y="27.61" width="22.02" height="2.7"/><rect class="cls-8" x="0.69" y="35.81" width="13.16" height="2"/><rect class="cls-8" x="34.19" y="35.81" width="13.16" height="2"/></g><g id="masjid"><path class="cls-9" d="M34.25,40.76A16.88,16.88,0,0,0,47.16,29.64,9.2,9.2,0,0,0,44.8,26.2h0A15.11,15.11,0,0,0,43.26,25l0,0-.42-.28-.05,0-.36-.23,0,0-.29-.17c-1.7-1-1.7-2.22-1.7-2.22a2.08,2.08,0,0,1-.07.36,3.37,3.37,0,0,1-1.63,1.86,13.62,13.62,0,0,0-4,3.42h-.09c5.71-9.06-4.89-14.08-7.7-15.39C24.54,11.13,24.11,9.89,24,9.47a4.62,4.62,0,0,0,2.08-1.38A17.25,17.25,0,0,0,22.56,9.7h.08A4.65,4.65,0,0,0,24,9.49c-.08.42-.52,1.65-2.85,2.73A32.31,32.31,0,0,0,17.74,14a16.86,16.86,0,0,0,13.46,27,16.38,16.38,0,0,0,3-.28h.06"/><path class="cls-10" d="M34.59,27.61c5.71-9.06-4.89-14.08-7.7-15.39S24,9.33,24,9.33s0,1.56-2.87,2.89-13.42,6.33-7.7,15.39Z"/><path class="cls-11" d="M24,36.46h0a4.15,4.15,0,0,1,4.15,4.15v7.45a0,0,0,0,1,0,0H19.87a0,0,0,0,1,0,0V40.61A4.15,4.15,0,0,1,24,36.46Z"/><path class="cls-11" d="M40.37,42.66h0a2,2,0,0,1,2,2v3.41a0,0,0,0,1,0,0h-4a0,0,0,0,1,0,0V44.65a2,2,0,0,1,2-2Z"/><path class="cls-11" d="M7.73,42.66h0a2,2,0,0,1,2,2v3.41a0,0,0,0,1,0,0h-4a0,0,0,0,1,0,0V44.65A2,2,0,0,1,7.73,42.66Z"/><path class="cls-11" d="M22.64.5a4.62,4.62,0,0,0-1.86.39,4.6,4.6,0,0,1,0,8.43A4.61,4.61,0,1,0,22.64.5Z"/><rect class="cls-10" x="13.01" y="27.61" width="22.02" height="2.7"/><rect class="cls-10" x="0.69" y="35.81" width="13.16" height="2"/><rect class="cls-10" x="34.25" y="35.81" width="13.1" height="2"/><path class="cls-11" d="M34.59,27.61c5.71-9.06-4.89-14.08-7.7-15.39S24,9.33,24,9.33s0,1.56-2.87,2.89-13.42,6.33-7.7,15.39Z"/><polygon class="cls-10" points="35.02 27.61 13.01 27.61 13.01 30.3 13.77 30.3 13.83 48.06 34.19 48.06 34.25 30.3 35.02 30.3 35.02 27.61"/><path class="cls-10" d="M34.25,35.81H46.69c3.22-6.84-3-10.63-4.62-11.62S40.37,22,40.37,22s0,1.19-1.7,2.22a13.62,13.62,0,0,0-4,3.42H35V30.3h-.77Z"/><path class="cls-11" d="M13.87,35.81l-.1-5.51H13V27.61h.41a13.49,13.49,0,0,0-4-3.42C7.74,23.16,7.74,22,7.74,22s0,1.19-1.7,2.22S-1.8,29,1.41,35.81Z"/><polygon class="cls-10" points="0.69 35.81 0.69 37.8 1.62 37.8 1.62 48.06 13.85 48.06 13.85 37.8 13.85 35.82 13.85 35.81 0.69 35.81"/><polygon class="cls-10" points="47.35 35.81 46.49 35.81 34.25 35.81 34.25 37.8 34.25 48.06 46.49 48.06 46.49 37.8 47.35 37.8 47.35 35.81"/></g></g></g></g></svg>