<svg xmlns="http://www.w3.org/2000/svg" viewBox="0 0 46.18 48.17"><defs><style>.cls-1{fill:#66d4ff;}.cls-1,.cls-2,.cls-3,.cls-4,.cls-5,.cls-6,.cls-7{stroke:#0b4054;stroke-linecap:round;stroke-linejoin:round;}.cls-2{fill:#ffd092;}.cls-3{fill:#a6e872;}.cls-4{fill:#8de4ff;}.cls-5{fill:none;}.cls-6{fill:#ae96cc;}.cls-7{fill:#ffbdc2;}.cls-8{fill:#fff;}</style></defs><title>motor</title><g id="Layer_2" data-name="Layer 2"><g id="Layer_1-2" data-name="Layer 1"><g id="motor"><line class="cls-1" x1="21.37" y1="23.67" x2="21.37" y2="3.51"/><circle class="cls-2" cx="21.37" cy="5.13" r="4.63"/><line class="cls-1" x1="3.21" y1="35.45" x2="3.21" y2="4.75"/><circle class="cls-3" cx="3.21" cy="5.7" r="2.71"/><line class="cls-1" x1="12.93" y1="40.01" x2="12.93" y2="17.24"/><circle class="cls-4" cx="12.93" cy="19.07" r="5.23"/><path class="cls-4" d="M24,27.32l-2,10h4.16a9.5,9.5,0,0,0,8.4-6.93c1.13-4.51-.43-6.94-1.73-8.49s-2.17-3.38-.17-3.82S36.46,19.83,38,22s2.86,4.46,1.69,9.14-5.2,8.57-7.19,9.35H.5v-3C.5,36,.72,33,4.14,29.79s7.49-2.73,10.05-2.73S24,27.32,24,27.32Z"/><path class="cls-5" d="M.5,37.46a7,7,0,0,1,4.59-4.59,22.75,22.75,0,0,1,10.49-1.21c1.77.34,1,3.25.86,4.11s-1,3.81-2.42,4.72H.5Z"/><path class="cls-3" d="M38.61,34s5,1.37,6.25,4.19.83,2.86.39,3.2-.65.61-2.64-1.12-5.24-2-8.21-1A16.19,16.19,0,0,0,38.61,34Z"/><path class="cls-6" d="M24,27.32V23.94s-9.62-.82-10.83-.82-3.48.48-4.1,4.2C9.05,27.32,13,27.06,24,27.32Z"/><path class="cls-3" d="M37.75,16.5h2.41a0,0,0,0,1,0,0v4.17a0,0,0,0,1,0,0H37.75A1.76,1.76,0,0,1,36,18.91v-.65a1.76,1.76,0,0,1,1.76-1.76Z"/><path class="cls-5" d="M39.92,25.74s-5.08-1.6-7.29-4.11"/><path class="cls-7" d="M24.14,21h7.92l-.49-1.16H24.14a.48.48,0,0,0-.48.49v.18A.48.48,0,0,0,24.14,21Z"/><rect class="cls-3" x="24.89" y="18.92" width="5" height="2.96" rx="1.25" ry="1.25"/><path class="cls-2" d="M11.53,40.49a2.35,2.35,0,0,1-1.33,4.28,2.34,2.34,0,0,1-2.34-2.34,2.37,2.37,0,0,1,1-1.94H5.33A5.4,5.4,0,0,0,5,42.43a5.25,5.25,0,1,0,10.11-1.94Z"/><path class="cls-2" d="M43,40.59l-.37-.31c-2-1.74-5.24-2-8.21-1a4.88,4.88,0,0,1-1,.72,5.24,5.24,0,1,0,9.56.58Zm-4.91,4.18a2.35,2.35,0,1,1,2.35-2.34A2.34,2.34,0,0,1,38.07,44.77Z"/><path class="cls-8" d="M39.92,26c0-.1,0-.21,0-.31A10.69,10.69,0,0,0,38,22c-.4-.55-.81-1.1-1.24-1.62a1.71,1.71,0,0,0,1,.29h1a12.75,12.75,0,0,0-2.39-3.45,1.77,1.77,0,0,0-.34,1v.65a1.67,1.67,0,0,0,.2.8c-1.1-1.15-2.29-1.93-3.54-1.66-1.9.41-1.21,2.08,0,3.58h0l.19.24c1.3,1.55,2.86,4,1.73,8.49a9.5,9.5,0,0,1-8.4,6.93H22l2-10V23.94s-5.8-.49-9-.71A12.09,12.09,0,0,0,14.71,26a12.61,12.61,0,1,0,25.21,0Z"/><path class="cls-8" d="M24.14,21H25a1.23,1.23,0,0,0,1.18.91h2.51A1.23,1.23,0,0,0,29.83,21h2.23l-.49-1.16H29.82a1.22,1.22,0,0,0-1.17-.89H26.14a1.25,1.25,0,0,0-1.18.89h-.82a.48.48,0,0,0-.48.49v.18A.48.48,0,0,0,24.14,21Z"/><path class="cls-5" d="M24,27.32l-2,10h4.16a9.5,9.5,0,0,0,8.4-6.93c1.13-4.51-.43-6.94-1.73-8.49s-2.17-3.38-.17-3.82S36.46,19.83,38,22s2.86,4.46,1.69,9.14-5.2,8.57-7.19,9.35H.5v-3C.5,36,.72,33,4.14,29.79s7.49-2.73,10.05-2.73S24,27.32,24,27.32Z"/><path class="cls-5" d="M.5,37.46a7,7,0,0,1,4.59-4.59,22.75,22.75,0,0,1,10.49-1.21c1.77.34,1,3.25.86,4.11s-1,3.81-2.42,4.72H.5Z"/><path class="cls-5" d="M38.61,34s5,1.37,6.25,4.19.83,2.86.39,3.2-.65.61-2.64-1.12-5.24-2-8.21-1A16.19,16.19,0,0,0,38.61,34Z"/><path class="cls-5" d="M24,27.32V23.94s-9.62-.82-10.83-.82-3.48.48-4.1,4.2C9.05,27.32,13,27.06,24,27.32Z"/><path class="cls-5" d="M37.75,16.5h2.41a0,0,0,0,1,0,0v4.17a0,0,0,0,1,0,0H37.75A1.76,1.76,0,0,1,36,18.91v-.65a1.76,1.76,0,0,1,1.76-1.76Z"/><path class="cls-5" d="M39.92,25.74s-5.08-1.6-7.29-4.11"/><path class="cls-5" d="M32.06,21l-.49-1.16H29.82a1.22,1.22,0,0,0-1.17-.89H26.14a1.25,1.25,0,0,0-1.18.89h-.82a.48.48,0,0,0-.48.49v.18a.48.48,0,0,0,.48.49H25a1.23,1.23,0,0,0,1.18.91h2.51A1.23,1.23,0,0,0,29.83,21Z"/><path class="cls-5" d="M11.53,40.49a2.35,2.35,0,0,1-1.33,4.28,2.34,2.34,0,0,1-2.34-2.34,2.37,2.37,0,0,1,1-1.94H5.33A5.4,5.4,0,0,0,5,42.43a5.25,5.25,0,1,0,10.11-1.94Z"/><path class="cls-5" d="M43,40.59l-.37-.31c-2-1.74-5.24-2-8.21-1a4.88,4.88,0,0,1-1,.72,5.24,5.24,0,1,0,9.56.58Zm-4.91,4.18a2.35,2.35,0,1,1,2.35-2.34A2.34,2.34,0,0,1,38.07,44.77Z"/></g></g></g></svg>