<svg xmlns="http://www.w3.org/2000/svg" viewBox="0 0 46.73 48.43"><defs><style>.cls-1{fill:#66d4ff;}.cls-1,.cls-2,.cls-3,.cls-4,.cls-5,.cls-7,.cls-8,.cls-9{stroke:#0b4054;stroke-linecap:round;stroke-linejoin:round;}.cls-2{fill:#ffbdc2;}.cls-3{fill:#a6e872;}.cls-4{fill:#ae96cc;}.cls-5{fill:#ffd092;}.cls-6,.cls-9{fill:#fff;}.cls-7{fill:#8de4ff;}.cls-8{fill:none;}</style></defs><title>mobil</title><g id="Layer_2" data-name="Layer 2"><g id="Layer_1-2" data-name="Layer 1"><g id="mobil"><line class="cls-1" x1="25.13" y1="23.67" x2="25.13" y2="3.51"/><circle class="cls-2" cx="25.13" cy="5.13" r="4.63"/><line class="cls-1" x1="33.87" y1="30.44" x2="33.87" y2="18.65"/><circle class="cls-3" cx="33.87" cy="19.6" r="2.71"/><line class="cls-1" x1="13.49" y1="41.46" x2="13.49" y2="18.69"/><circle class="cls-4" cx="13.49" cy="20.52" r="5.23"/><path class="cls-5" d="M35,32S32.18,28.21,31,26.57,28.49,24,24.67,24s-7.63-.07-9,0-3.51.19-5.81,3.22-3.58,5.08-3.58,5.08H4.87a2.76,2.76,0,0,0-2.24,2.3A23.6,23.6,0,0,0,1.54,41c.12,1.4-.18,2.85,3.51,2.85H43.51a2,2,0,0,0,1.57-2.06V37.29a5.57,5.57,0,0,0-2.36-3.63A13.79,13.79,0,0,0,35,32Z"/><path class="cls-6" d="M42.72,33.66A13.79,13.79,0,0,0,35,32S32.18,28.21,31,26.57,28.49,24,24.67,24c-2.89,0-5.77,0-7.58,0A16.9,16.9,0,0,0,44.28,35.23,4.76,4.76,0,0,0,42.72,33.66Z"/><path class="cls-7" d="M18.86,27.54v4.78a1.23,1.23,0,0,1-1.33,1.28H10.14V31.72a4.74,4.74,0,0,1,3.45-4.66s.67-.37,4.36-.37C18,26.69,18.86,26.81,18.86,27.54Z"/><path class="cls-7" d="M21,27.78v4.36c0,.61.42,1.46,1.09,1.46h9.39c.72,0,1.27-1.15.72-2.18s-3.15-4.3-3.15-4.3a2.38,2.38,0,0,0-1.39-.43H22S21,26.57,21,27.78Z"/><line class="cls-8" x1="28.61" y1="33.6" x2="28.61" y2="26.86"/><line class="cls-8" x1="12.44" y1="35.65" x2="31.82" y2="35.65"/><circle class="cls-3" cx="9.77" cy="43.37" r="4.56"/><circle class="cls-4" cx="9.77" cy="43.37" r="1.64"/><circle class="cls-3" cx="39.77" cy="43.37" r="4.56"/><circle class="cls-4" cx="39.77" cy="43.37" r="1.64"/><rect class="cls-7" x="45.08" y="36.93" width="1.15" height="2.48"/><line class="cls-8" x1="2.98" y1="41.67" x2="0.5" y2="41.67"/><line class="cls-8" x1="46.07" y1="41.67" x2="44.83" y2="41.67"/><path class="cls-8" d="M44.39,43.41a2,2,0,0,0,.69-1.64V37.29a5.57,5.57,0,0,0-2.36-3.63A13.79,13.79,0,0,0,35,32S32.18,28.21,31,26.57,28.49,24,24.67,24s-7.63-.07-9,0-3.51.19-5.81,3.22-3.58,5.08-3.58,5.08H4.87a2.76,2.76,0,0,0-2.24,2.3A23.6,23.6,0,0,0,1.54,41c.12,1.4-.18,2.85,3.51,2.85"/><path class="cls-8" d="M18.86,27.54v4.78a1.23,1.23,0,0,1-1.33,1.28H10.14V31.72a4.74,4.74,0,0,1,3.45-4.66s.67-.37,4.36-.37C18,26.69,18.86,26.81,18.86,27.54Z"/><path class="cls-8" d="M21,27.78v4.36c0,.61.42,1.46,1.09,1.46h9.39c.72,0,1.27-1.15.72-2.18s-3.15-4.3-3.15-4.3a2.38,2.38,0,0,0-1.39-.43H22S21,26.57,21,27.78Z"/><line class="cls-8" x1="28.61" y1="33.6" x2="28.61" y2="26.86"/><line class="cls-8" x1="12.44" y1="35.65" x2="31.82" y2="35.65"/><circle class="cls-8" cx="9.77" cy="43.37" r="4.56"/><circle class="cls-9" cx="9.77" cy="43.37" r="1.64"/><circle class="cls-8" cx="39.77" cy="43.37" r="4.56"/><circle class="cls-9" cx="39.77" cy="43.37" r="1.64"/><rect class="cls-8" x="45.08" y="36.93" width="1.15" height="2.48"/><line class="cls-8" x1="2.98" y1="41.67" x2="0.5" y2="41.67"/><line class="cls-8" x1="46.07" y1="41.67" x2="44.83" y2="41.67"/></g></g></g></svg>