<svg xmlns="http://www.w3.org/2000/svg" viewBox="0 0 43.11 48.2"><defs><style>.cls-1{fill:#66d4ff;}.cls-1,.cls-2,.cls-3,.cls-4,.cls-5,.cls-6,.cls-8{stroke:#0b4054;stroke-linecap:round;stroke-linejoin:round;}.cls-2{fill:#8de4ff;}.cls-3{fill:#ae96cc;}.cls-4{fill:#a6e872;}.cls-5{fill:#ffbdc2;}.cls-6{fill:#ffd092;}.cls-7{fill:#fff;}.cls-8{fill:none;}</style></defs><title>pembantu (2)</title><g id="Layer_2" data-name="Layer 2"><g id="Layer_1-2" data-name="Layer 1"><g id="pembantu"><line class="cls-1" x1="38.07" y1="47.7" x2="38.07" y2="5.95"/><circle class="cls-2" cx="38.07" cy="7.54" r="4.54"/><line class="cls-1" x1="3.16" y1="47.7" x2="3.16" y2="4.39"/><circle class="cls-3" cx="3.16" cy="5.32" r="2.66"/><line class="cls-1" x1="30.3" y1="47.7" x2="30.3" y2="10.86"/><circle class="cls-4" cx="30.3" cy="11.79" r="2.66"/><line class="cls-1" x1="10.32" y1="47.7" x2="10.32" y2="8.76"/><circle class="cls-5" cx="10.32" cy="10.55" r="5.13"/><path class="cls-4" d="M36.81,31.61c-1.82-1.52-2.17-5.06-2.55-8.81s-.75-7.53-2.49-10.61C29.71,8.57,26.19,6.81,21,6.79s-8.73,1.78-10.79,5.4C8.45,15.27,8.07,19.1,7.7,22.8S7,30.08,5.16,31.61l-.75.62.71.66a9.35,9.35,0,0,0,3.4,1.64A43.12,43.12,0,0,0,21,36a43.07,43.07,0,0,0,12.45-1.48,9.24,9.24,0,0,0,3.4-1.64l.71-.66Z"/><path class="cls-3" d="M35.6,37.66l-.14,0a22.94,22.94,0,0,1-3.78-1.47c-3.34-1.27-4.2-2.19-4.43-2.63,0,0,0,0,0-.05l0-3.87L21,29.5l-6.22.1,0,3.87,0,.05c-.22.43-1.09,1.35-4.43,2.63a22.73,22.73,0,0,1-3.77,1.47l-.13,0A4.67,4.67,0,0,0,3.16,42.1v5.6H38.82V42.1a4.68,4.68,0,0,0-3.22-4.44Z"/><path class="cls-2" d="M20.07,35.77h1.71v6.16H20.07Z"/><path class="cls-2" d="M14.74,33.48s0,0,0,.05a2.2,2.2,0,0,1-.55.63V42h1.71V33H14.75Zm13.07.67a2.07,2.07,0,0,1-.55-.63l0-.05V33H26.11v8.91h1.71V34.15Z"/><path class="cls-5" d="M18.41,38.21l2.51-2.44-6.2-4v1.78Zm2.51-2.44,2.51,2.44,3.82-4.69,0-1.46ZM21,47.7h7.67V46.41A5.14,5.14,0,0,1,29,44.77l.22-.54a2.51,2.51,0,0,0,0-1.58L29,42.1a1.45,1.45,0,0,0-1.17-.84l-6-.33-.85,0-.86,0-5.92.33A1.44,1.44,0,0,0,13,42.1l-.22.55a2.44,2.44,0,0,0,0,1.58l.23.59a5.48,5.48,0,0,1,.31,1.65V47.7Z"/><path class="cls-6" d="M32,22.06c0,7.14-6.81,13.71-11,13.71S10,29.2,10,22.06s4.92-11.85,11-11.85,11,4.7,11,11.85Z"/><path class="cls-4" d="M23.06,13.23a22.2,22.2,0,0,0,3.49,2.43,18.86,18.86,0,0,0,7.15,2.49,18,18,0,0,0-1.93-6C29.72,8.57,26.19,6.8,21,6.78S23.06,13.23,23.06,13.23Z"/><path class="cls-4" d="M15.63,21.29A34.6,34.6,0,0,0,23.13,16a48,48,0,0,0,6.16-6.78C27.24,7.61,24.5,6.8,21,6.79c-5.2,0-8.72,1.78-10.78,5.4C8.46,15.27,8.07,19.1,7.71,22.8l-.09.86a21.74,21.74,0,0,0,8-2.37Z"/><path class="cls-3" d="M30.61,5.82a3.55,3.55,0,0,0-3.41-3,3.41,3.41,0,0,0-2.74,1.43h0A3.59,3.59,0,0,0,21,.5a3.59,3.59,0,0,0-3.47,3.71h0a3.41,3.41,0,0,0-2.74-1.43,3.55,3.55,0,0,0-3.41,3h-.06V9.05h.95a3.31,3.31,0,0,0,5,0h7.36a3.31,3.31,0,0,0,5,0h1V5.82Z"/><rect class="cls-5" x="11.31" y="7.83" width="19.36" height="3.23"/><path class="cls-7" d="M33.69,18.15h0l-.12-.61-.09-.46-.21-.93c-.05-.17-.09-.34-.14-.51s-.16-.59-.26-.88l-.18-.5c-.1-.28-.21-.57-.33-.84s-.12-.26-.18-.38c-.14-.29-.26-.58-.42-.85a10,10,0,0,0-1.1-1.57V5.82h-.06a3.55,3.55,0,0,0-3.41-3,3.41,3.41,0,0,0-2.74,1.43h0A3.59,3.59,0,0,0,21,.5a3.43,3.43,0,0,0-.56.06A18.87,18.87,0,0,0,35,31.46c.55,0,1.09,0,1.62-.08-1.61-1.63-2-5-2.33-8.58C34.11,21.25,34,19.68,33.69,18.15Z"/><path class="cls-8" d="M33.42,34.53a9.24,9.24,0,0,0,3.4-1.64l.71-.66-.72-.62c-1.82-1.52-2.17-5.06-2.55-8.81s-.75-7.53-2.49-10.61a11.26,11.26,0,0,0-1.1-1.57v.44H11.31V10.6a11,11,0,0,0-1.12,1.59C8.45,15.27,8.07,19.1,7.7,22.8S7,30.08,5.16,31.61l-.75.62.71.66a9.35,9.35,0,0,0,3.4,1.64"/><rect class="cls-8" x="11.31" y="7.83" width="19.36" height="3.23"/><path class="cls-8" d="M26.55,15.66c-.7-.4-1.32-.8-1.83-1.16-.5.5-1,1-1.59,1.52a34.6,34.6,0,0,1-7.5,5.27,22.83,22.83,0,0,1-5.56,2c.71,6.65,7,12.49,10.92,12.49,4.18,0,11-6.57,11-13.71a13.6,13.6,0,0,0-.71-4.39A21.23,21.23,0,0,1,26.55,15.66Z"/><path class="cls-8" d="M31.77,12.19a10.08,10.08,0,0,0-1.1-1.58v.45H27.85c-.82,1-1.88,2.19-3.13,3.44.51.36,1.13.76,1.83,1.16a18.86,18.86,0,0,0,7.15,2.49A18,18,0,0,0,31.77,12.19Z"/><path class="cls-8" d="M30.61,5.82a3.55,3.55,0,0,0-3.41-3,3.41,3.41,0,0,0-2.74,1.43h0A3.59,3.59,0,0,0,21,.5a3.59,3.59,0,0,0-3.47,3.71h0a3.41,3.41,0,0,0-2.74-1.43,3.55,3.55,0,0,0-3.41,3h-.06v2H30.67v-2Z"/></g></g></g></svg>