<svg xmlns="http://www.w3.org/2000/svg" viewBox="0 0 45.86 48.16"><defs><style>.cls-1{fill:#a6e872;}.cls-1,.cls-2,.cls-3,.cls-4,.cls-6,.cls-7{stroke:#0b4054;stroke-linecap:round;stroke-linejoin:round;}.cls-2{fill:#8de4ff;}.cls-3{fill:#ffd092;}.cls-4{fill:#ae96cc;}.cls-5{fill:#fff;}.cls-6{fill:none;}.cls-7{fill:#ffbdc2;}</style></defs><title>peralatan mandi</title><g id="Layer_2" data-name="Layer 2"><g id="Layer_1-2" data-name="Layer 1"><g id="peralatan_mandi" data-name="peralatan mandi"><path class="cls-1" d="M20.38,15.54H32.21A4.81,4.81,0,0,1,37,20.35V47a0,0,0,0,1,0,0H15.57a0,0,0,0,1,0,0V20.35A4.81,4.81,0,0,1,20.38,15.54Z"/><rect class="cls-2" x="17.99" y="25.96" width="16.6" height="15.15"/><rect class="cls-3" x="21.08" y="9.54" width="10.42" height="6"/><rect class="cls-4" x="24.23" y="4.18" width="4.12" height="5.36"/><path class="cls-2" d="M36.92,3.42,22.37,4.61A1.92,1.92,0,0,1,20.32,2.7V.55H38.57Z"/><path class="cls-5" d="M24.23,6.38V9.54H22.9A19.6,19.6,0,0,0,37,34.6V20.35a4.81,4.81,0,0,0-4.81-4.81h-.7v-6H28.35V4.18h-.73l9.3-.76L38.57.55H28.93A19.73,19.73,0,0,0,24.23,6.38Z"/><path class="cls-6" d="M20.38,15.54H32.21A4.81,4.81,0,0,1,37,20.35V47a0,0,0,0,1,0,0H15.57a0,0,0,0,1,0,0V20.35A4.81,4.81,0,0,1,20.38,15.54Z"/><rect class="cls-6" x="17.99" y="25.96" width="16.6" height="15.15"/><rect class="cls-6" x="21.08" y="9.54" width="10.42" height="6"/><rect class="cls-6" x="24.23" y="4.18" width="4.12" height="5.36"/><path class="cls-6" d="M36.92,3.42,22.37,4.61A1.92,1.92,0,0,1,20.32,2.7V.55H38.57Z"/><polygon class="cls-2" points="15.48 22.69 12.91 22.69 9.07 22.69 10.7 39.94 12.91 44.26 15.48 44.26 17.7 39.94 19.32 22.69 15.48 22.69"/><rect class="cls-7" x="12.81" y="44.26" width="2.76" height="2.36"/><rect class="cls-2" x="12.81" y="46.62" width="2.76" height="1.04"/><polygon class="cls-3" points="12.91 44.26 15.48 44.26 17.7 39.94 10.7 39.94 12.91 44.26"/><rect class="cls-3" x="9.07" y="20.9" width="10.24" height="1.79"/><circle class="cls-1" cx="40.27" cy="9.35" r="2.65"/><circle class="cls-2" cx="44.04" cy="5.24" r="1.32"/><circle class="cls-2" cx="5.14" cy="4.81" r="4.31"/><circle class="cls-2" cx="11.2" cy="10.57" r="2.37"/><circle class="cls-1" cx="38.66" cy="31.19" r="5.23"/><circle class="cls-2" cx="33.43" cy="33.22" r="2.62"/><circle class="cls-2" cx="3.12" cy="44.8" r="2.62"/></g></g></g></svg>