<svg xmlns="http://www.w3.org/2000/svg" viewBox="0 0 43 48.56"><defs><style>.cls-1{fill:#ffbdc2;}.cls-1,.cls-10,.cls-2,.cls-3,.cls-4,.cls-5,.cls-6,.cls-7,.cls-8{stroke:#0b4054;stroke-linejoin:round;}.cls-1,.cls-2,.cls-3,.cls-4,.cls-5,.cls-6,.cls-7{stroke-linecap:round;}.cls-2{fill:#00b7b0;}.cls-10,.cls-11,.cls-3{fill:none;}.cls-4,.cls-8{fill:#ffd092;}.cls-5{fill:#a6e872;}.cls-6{fill:#8de4ff;}.cls-7{fill:#ae96cc;}.cls-9{fill:#fff;}</style></defs><title>playground</title><g id="Layer_2" data-name="Layer 2"><g id="Layer_1-2" data-name="Layer 1"><g id="playground"><path class="cls-1" d="M22.4,8a2.1,2.1,0,0,0-1.8,0L.5,17.62h0c0,1.24,1,3.24,2.23,3.24a2.24,2.24,0,0,0,2.09-1.45,2.22,2.22,0,0,0,4.17,0,2.22,2.22,0,0,0,4.17,0,2.22,2.22,0,0,0,4.17,0,2.22,2.22,0,0,0,4.17,0,2.22,2.22,0,0,0,4.17,0,2.22,2.22,0,0,0,4.17,0,2.22,2.22,0,0,0,4.17,0,2.22,2.22,0,0,0,4.17,0,2.24,2.24,0,0,0,2.09,1.45c1.23,0,2.23-2,2.23-3.24h0Z"/><line class="cls-2" x1="7.44" y1="17.68" x2="36.77" y2="17.68"/><line class="cls-3" x1="7.86" y1="32.95" x2="7.86" y2="20.64"/><line class="cls-3" x1="35.77" y1="32.95" x2="35.77" y2="20.86"/><line class="cls-3" x1="21.5" y1="19.41" x2="21.5" y2="47.81"/><path class="cls-3" d="M3.91,33H3c-.69,0-1.29.16-1.29,1.29v1.55"/><path class="cls-4" d="M12.08,30.34,7.86,33H3.91v6.47h0a3.72,3.72,0,0,1,7.43,0h0V33.67l2-.13Z"/><path class="cls-3" d="M17.87,33H17c-.68,0-1.29.16-1.29,1.29v1.55"/><path class="cls-5" d="M26,30.34,21.82,33H17.87v6.47h0a3.71,3.71,0,0,1,7.42,0h0V33.67l2-.13Z"/><path class="cls-3" d="M31.82,33h-.91c-.69,0-1.29.16-1.29,1.29v1.55"/><path class="cls-6" d="M40,30.34,35.77,33h-4v6.47h0a3.72,3.72,0,0,1,7.43,0h0V33.67l2-.13Z"/><path class="cls-7" d="M5,45.26H37.31a2.79,2.79,0,0,1,2.79,2.79v0a0,0,0,0,1,0,0H2.19a0,0,0,0,1,0,0v0A2.79,2.79,0,0,1,5,45.26Z"/><line class="cls-2" x1="21.5" y1="7.47" x2="21.5" y2="0.5"/><polygon class="cls-8" points="28.92 4.6 21.5 4.6 21.5 0.89 28.92 0.89 27.85 2.74 28.92 4.6"/><path class="cls-9" d="M24,.89H21.5V4.6h3.74A11.51,11.51,0,0,0,24,.89Z"/><polygon class="cls-3" points="28.92 4.6 21.5 4.6 21.5 0.89 28.92 0.89 27.85 2.74 28.92 4.6"/><path class="cls-9" d="M22.11,32.77a19,19,0,0,0,3.2,1.31v-.41l2-.13L26,30.34Z"/><path class="cls-9" d="M20.6,8l-8.13,3.9a18.5,18.5,0,0,0-.5,4.24,19,19,0,0,0,.49,4.22,2.24,2.24,0,0,0,.7-.94,2.22,2.22,0,0,0,4.17,0,2.22,2.22,0,0,0,4.17,0,2.22,2.22,0,0,0,4.17,0,2.22,2.22,0,0,0,4.17,0,2.22,2.22,0,0,0,4.17,0,2.22,2.22,0,0,0,4.17,0,2.24,2.24,0,0,0,2.09,1.45c1.23,0,2.23-2,2.23-3.24h0L22.4,8A2.1,2.1,0,0,0,20.6,8Z"/><path class="cls-9" d="M40,30.34,35.77,33h-4v1.87A18.58,18.58,0,0,0,40.66,32Z"/><path class="cls-3" d="M22.4,8a2.1,2.1,0,0,0-1.8,0L.5,17.62h0c0,1.24,1,3.24,2.23,3.24a2.24,2.24,0,0,0,2.09-1.45,2.22,2.22,0,0,0,4.17,0,2.22,2.22,0,0,0,4.17,0,2.22,2.22,0,0,0,4.17,0,2.22,2.22,0,0,0,4.17,0,2.22,2.22,0,0,0,4.17,0,2.22,2.22,0,0,0,4.17,0,2.22,2.22,0,0,0,4.17,0,2.22,2.22,0,0,0,4.17,0,2.24,2.24,0,0,0,2.09,1.45c1.23,0,2.23-2,2.23-3.24h0Z"/><line class="cls-3" x1="7.44" y1="17.68" x2="36.77" y2="17.68"/><path class="cls-3" d="M3.91,33H3c-.69,0-1.29.16-1.29,1.29v1.55"/><path class="cls-3" d="M12.08,30.34,7.86,33H3.91v6.47h0a3.72,3.72,0,0,1,7.43,0h0V33.67l2-.13Z"/><path class="cls-3" d="M17.87,33H17c-.68,0-1.29.16-1.29,1.29v1.55"/><path class="cls-3" d="M26,30.34,21.82,33H17.87v6.47h0a3.71,3.71,0,0,1,7.42,0h0V33.67l2-.13Z"/><path class="cls-3" d="M31.82,33h-.91c-.69,0-1.29.16-1.29,1.29v1.55"/><path class="cls-3" d="M40,30.34,35.77,33h-4v6.47h0a3.72,3.72,0,0,1,7.43,0h0V33.67l2-.13Z"/><path class="cls-3" d="M5,45.26H37.31a2.79,2.79,0,0,1,2.79,2.79v0a0,0,0,0,1,0,0H2.19a0,0,0,0,1,0,0v0A2.79,2.79,0,0,1,5,45.26Z"/><line class="cls-3" x1="21.5" y1="7.47" x2="21.5" y2="0.5"/><polygon class="cls-10" points="28.92 4.6 21.5 4.6 21.5 0.89 28.92 0.89 27.85 2.74 28.92 4.6"/><path class="cls-11" d="M24,.89H21.5V4.6h3.74A11.51,11.51,0,0,0,24,.89Z"/><polygon class="cls-3" points="28.92 4.6 21.5 4.6 21.5 0.89 28.92 0.89 27.85 2.74 28.92 4.6"/></g></g></g></svg>