<svg xmlns="http://www.w3.org/2000/svg" viewBox="0 0 41.61 47.54"><defs><style>.cls-1{fill:#66d4ff;}.cls-1,.cls-2,.cls-3,.cls-4,.cls-5,.cls-6,.cls-8{stroke:#0b4054;stroke-linecap:round;stroke-linejoin:round;}.cls-2{fill:#8de4ff;}.cls-3{fill:#ffd092;}.cls-4{fill:#ae96cc;}.cls-5{fill:#a6e872;}.cls-6{fill:#ffbdc2;}.cls-7{fill:#fff;}.cls-8{fill:none;}</style></defs><title>rak buku</title><g id="Layer_2" data-name="Layer 2"><g id="Layer_1-2" data-name="Layer 1"><g id="rak_buku" data-name="rak buku"><line class="cls-1" x1="36.48" y1="42.54" x2="36.48" y2="19"/><circle class="cls-2" cx="36.48" cy="20.62" r="4.63"/><line class="cls-1" x1="20.5" y1="24.84" x2="20.5" y2="11.12"/><circle class="cls-3" cx="20.5" cy="12.22" r="3.15"/><line class="cls-1" x1="3.21" y1="42.54" x2="3.21" y2="18.15"/><circle class="cls-4" cx="3.21" cy="19.1" r="2.71"/><line class="cls-1" x1="28.9" y1="23.94" x2="28.9" y2="2.26"/><circle class="cls-5" cx="28.9" cy="3.21" r="2.71"/><line class="cls-1" x1="8.76" y1="27.04" x2="8.76" y2="4.26"/><circle class="cls-6" cx="8.76" cy="6.09" r="5.23"/><rect class="cls-4" x="1.3" y="41.11" width="37.53" height="5.93"/><rect class="cls-2" x="7.58" y="17.39" width="7.56" height="23.72"/><rect class="cls-5" x="15.14" y="17.39" width="7.56" height="23.72"/><line class="cls-4" x1="7.58" y1="20.16" x2="22.7" y2="20.16"/><line class="cls-4" x1="7.58" y1="33.85" x2="22.7" y2="33.85"/><rect class="cls-3" x="24.43" y="16.95" width="7.56" height="23.72" transform="translate(-3.99 4.54) rotate(-8.6)"/><line class="cls-4" x1="30.59" y1="19.26" x2="23.12" y2="20.39"/><line class="cls-4" x1="32.64" y1="32.8" x2="25.16" y2="33.93"/><path class="cls-7" d="M15.14,17.39H9.09a23.22,23.22,0,0,0,13.61,17v-17Z"/><path class="cls-7" d="M22.7,17.65l2.68,17.68a23,23,0,0,0,6.46.93c.44,0,.88,0,1.31,0l-3-19.7Z"/><rect class="cls-8" x="1.3" y="41.11" width="37.53" height="5.93"/><rect class="cls-8" x="7.58" y="17.39" width="7.56" height="23.72"/><rect class="cls-8" x="15.14" y="17.39" width="7.56" height="23.72"/><line class="cls-8" x1="7.58" y1="20.16" x2="22.7" y2="20.16"/><line class="cls-8" x1="7.58" y1="33.85" x2="22.7" y2="33.85"/><rect class="cls-8" x="24.43" y="16.95" width="7.56" height="23.72" transform="translate(-3.99 4.54) rotate(-8.6)"/><line class="cls-8" x1="30.59" y1="19.26" x2="23.12" y2="20.39"/><line class="cls-8" x1="32.64" y1="32.8" x2="25.16" y2="33.93"/></g></g></g></svg>