<svg xmlns="http://www.w3.org/2000/svg" viewBox="0 0 48.76 46.5"><defs><style>.cls-1{fill:#a6e872;}.cls-1,.cls-2,.cls-3,.cls-4,.cls-6{stroke:#0b4054;stroke-linecap:round;stroke-linejoin:round;}.cls-2{fill:#ae96cc;}.cls-3{fill:#ffd092;}.cls-4{fill:#8de4ff;}.cls-5{fill:#fff;}.cls-6{fill:none;}</style></defs><title>ruang tamu</title><g id="Layer_2" data-name="Layer 2"><g id="Layer_1-2" data-name="Layer 1"><g id="ruang_tamu" data-name="ruang tamu"><polygon class="cls-1" points="47.03 10.9 36.37 10.9 37.31 0.78 46.09 0.78 47.03 10.9"/><line class="cls-1" x1="41.7" y1="10.9" x2="41.7" y2="27.53"/><rect class="cls-2" x="3.7" y="39.23" width="41.36" height="6.77"/><path class="cls-3" d="M8.87,15h31a5.17,5.17,0,0,1,5.17,5.17V33.5a0,0,0,0,1,0,0H3.7a0,0,0,0,1,0,0V20.13A5.17,5.17,0,0,1,8.87,15Z"/><rect class="cls-4" x="0.5" y="33.5" width="47.76" height="5.73" rx="2.86" ry="2.86"/><circle class="cls-1" cx="6.35" cy="28.4" r="5.05"/><circle class="cls-1" cx="43.21" cy="28.4" r="5.05"/><circle class="cls-1" cx="15.25" cy="24.85" r="0.97"/><circle class="cls-1" cx="33.5" cy="22.39" r="0.97"/><rect class="cls-2" x="1.3" y="9.11" width="31.19" height="2.08"/><rect class="cls-3" x="5.02" y="0.79" width="2.65" height="8.31"/><rect class="cls-2" x="7.67" y="0.79" width="2.65" height="8.31"/><rect class="cls-1" x="10.32" y="0.79" width="2.65" height="8.31"/><rect class="cls-4" x="13.93" y="0.65" width="2.65" height="8.31" transform="translate(-0.53 2.24) rotate(-8.27)"/><rect class="cls-3" x="16.8" y="0.65" width="2.65" height="8.31" transform="translate(-0.5 2.66) rotate(-8.27)"/><path class="cls-5" d="M48.26,28.4a5.05,5.05,0,0,0-3.2-4.69V20.13A5.17,5.17,0,0,0,39.89,15H22.1c-1,2.54-1.56,3.56-1.56,6.46A22.44,22.44,0,0,0,43,43.86c.7,0,1.39,0,2.08-.1V39.23h.33a2.87,2.87,0,1,0,0-5.73h-.33v-.42A5,5,0,0,0,48.26,28.4Z"/><path class="cls-5" d="M24.22,9.11A22.55,22.55,0,0,0,23,11.19h9.48V9.11Z"/><path class="cls-5" d="M46.09.78h-5.7a8.3,8.3,0,0,0,0,.87,7.92,7.92,0,0,0,6.55,7.79Z"/><polygon class="cls-6" points="47.03 10.9 36.37 10.9 37.31 0.78 46.09 0.78 47.03 10.9"/><rect class="cls-6" x="3.7" y="39.23" width="41.36" height="6.77"/><rect class="cls-6" x="0.5" y="33.5" width="47.76" height="5.73" rx="2.86" ry="2.86"/><circle class="cls-6" cx="6.35" cy="28.4" r="5.05"/><circle class="cls-1" cx="43.21" cy="28.4" r="5.05"/><circle class="cls-1" cx="33.5" cy="24.85" r="0.97"/><path class="cls-6" d="M43.21,33.45a5,5,0,1,1,0-10.1,5.21,5.21,0,0,1,1.85.36V20.13A5.17,5.17,0,0,0,39.89,15h-31A5.16,5.16,0,0,0,3.7,20.13v4a5,5,0,0,1,2.65-.77,5.05,5.05,0,0,1,0,10.1,5,5,0,0,1-2.65-.77v.82H45.06v-.42A5,5,0,0,1,43.21,33.45Z"/><rect class="cls-6" x="1.3" y="9.11" width="31.19" height="2.08"/><rect class="cls-6" x="5.02" y="0.79" width="2.65" height="8.31"/><rect class="cls-6" x="7.67" y="0.79" width="2.65" height="8.31"/><rect class="cls-6" x="10.32" y="0.79" width="2.65" height="8.31"/><rect class="cls-6" x="13.93" y="0.65" width="2.65" height="8.31" transform="translate(-0.53 2.24) rotate(-8.27)"/><rect class="cls-6" x="16.8" y="0.65" width="2.65" height="8.31" transform="translate(-0.5 2.66) rotate(-8.27)"/><polygon class="cls-6" points="47.03 10.9 36.37 10.9 37.31 0.78 46.09 0.78 47.03 10.9"/></g></g></g></svg>