<svg xmlns="http://www.w3.org/2000/svg" viewBox="0 0 47.48 48.58"><defs><style>.cls-1{fill:#ffd092;}.cls-1,.cls-2,.cls-4,.cls-5,.cls-6{stroke:#0b4054;}.cls-1,.cls-2,.cls-4,.cls-5,.cls-6,.cls-7{stroke-linecap:round;stroke-linejoin:round;}.cls-2,.cls-7{fill:#fff;}.cls-3{fill:#71eae1;}.cls-4{fill:none;}.cls-5{fill:#ae96cc;}.cls-6{fill:#a6e872;}.cls-7{stroke:#0e4c60;}</style></defs><title>restoran</title><g id="Layer_2" data-name="Layer 2"><g id="Layer_1-2" data-name="Layer 1"><g id="restoran"><rect class="cls-1" x="9.72" y="10.1" width="28.05" height="28.05" transform="translate(-10.1 23.85) rotate(-45)"/><circle class="cls-2" cx="23.74" cy="24.29" r="16.41"/><path class="cls-3" d="M15.8,17.13a18.9,18.9,0,0,0-7.45,1.53,16.19,16.19,0,0,0-1,5.63A16.38,16.38,0,0,0,34.76,36.42c0-.1,0-.21,0-.32A19,19,0,0,0,15.8,17.13Z"/><circle class="cls-4" cx="23.74" cy="24.29" r="8.61"/><circle class="cls-4" cx="23.74" cy="24.29" r="16.41"/><path class="cls-5" d="M36.83,6.63l-.66.12L36,7.41S41.47,14,44,16.4s4.28.67,1.84-1.84S36.83,6.63,36.83,6.63Z"/><ellipse class="cls-5" cx="33.54" cy="4.12" rx="2.83" ry="4.27" transform="translate(6.91 24.92) rotate(-45)"/><path class="cls-6" d="M7.67,37,7,37.1l-.13.66s5.59,6.71,8.1,9.15,4.28.67,1.84-1.83S7.67,37,7.67,37Z"/><path class="cls-6" d="M5.23,33.89l-3.5-2.15,2.14,3.5L.5,34.48a31.23,31.23,0,0,0,4,3.48,2.45,2.45,0,0,0,2.88-.58A2.47,2.47,0,0,0,8,34.51a31.47,31.47,0,0,0-3.49-4Z"/><ellipse class="cls-1" cx="27.51" cy="20.52" rx="8.13" ry="5.61" transform="translate(-6.45 25.46) rotate(-45)"/><path class="cls-7" d="M17.87,32.46a1.6,1.6,0,0,0-.54-.36l4.82-5.45-.87-.87-5.45,5a1.43,1.43,0,0,0-.2-.23,1.55,1.55,0,0,0-2.2,0A1.55,1.55,0,0,0,15,33.12a1.77,1.77,0,1,0,2.91-.66Z"/></g></g></g></svg>