<svg xmlns="http://www.w3.org/2000/svg" viewBox="0 0 42.17 48.71"><defs><style>.cls-1{fill:#fff;}.cls-1,.cls-3,.cls-4,.cls-5,.cls-6,.cls-7{stroke:#0b4054;stroke-linecap:round;stroke-linejoin:round;}.cls-2{fill:#71eae1;}.cls-3{fill:none;}.cls-4{fill:#ae96cc;}.cls-5{fill:#ffd092;}.cls-6{fill:#1473a3;}.cls-7{fill:#a6e872;}</style></defs><title>rumah sakit</title><g id="Layer_2" data-name="Layer 2"><g id="Layer_1-2" data-name="Layer 1"><g id="rumah_sakit" data-name="rumah sakit"><rect class="cls-1" x="0.5" y="5.21" width="41.17" height="43"/><path class="cls-2" d="M41.67,34A30.41,30.41,0,0,0,.5,16.83V48.21H41.67Z"/><rect class="cls-3" x="0.5" y="5.21" width="41.17" height="43"/><rect class="cls-4" x="0.5" y="5.21" width="41.17" height="2.01"/><polygon class="cls-5" points="26.54 3.83 23.09 3.83 23.09 0.5 19.07 0.5 19.07 3.83 15.63 3.83 15.63 7.84 19.07 7.84 19.07 11.17 23.09 11.17 23.09 7.84 26.54 7.84 26.54 3.83"/><path class="cls-5" d="M19.82,33.08h2.52a4.15,4.15,0,0,1,4.15,4.15v11a0,0,0,0,1,0,0H15.68a0,0,0,0,1,0,0v-11A4.15,4.15,0,0,1,19.82,33.08Z"/><line class="cls-6" x1="21.08" y1="33.08" x2="21.08" y2="48.21"/><rect class="cls-7" x="7.05" y="14.08" width="5.83" height="5.83"/><rect class="cls-7" x="18.17" y="14.08" width="5.83" height="5.83"/><rect class="cls-7" x="29.28" y="14.08" width="5.83" height="5.83"/><rect class="cls-7" x="7.05" y="23.58" width="5.83" height="5.83"/><rect class="cls-7" x="18.17" y="23.58" width="5.83" height="5.83"/><rect class="cls-7" x="29.28" y="23.58" width="5.83" height="5.83"/></g></g></g></svg>