<svg xmlns="http://www.w3.org/2000/svg" viewBox="0 0 46 49.24"><defs><style>.cls-1,.cls-9{fill:#ffd092;}.cls-1,.cls-2,.cls-3,.cls-5,.cls-6,.cls-7,.cls-8,.cls-9{stroke:#0b4054;stroke-linejoin:round;}.cls-1,.cls-2,.cls-3,.cls-5,.cls-6,.cls-7,.cls-8{stroke-linecap:round;}.cls-2{fill:#8de4ff;}.cls-10,.cls-3{fill:#fff;}.cls-4{fill:#71eae1;}.cls-5{fill:none;}.cls-6{fill:#ae96cc;}.cls-7{fill:#a6e872;}.cls-8{fill:#00b7b0;}</style></defs><title>sekolah</title><g id="Layer_2" data-name="Layer 2"><g id="Layer_1-2" data-name="Layer 1"><g id="sekolah"><polygon class="cls-1" points="45.5 19.71 23 15.28 0.5 19.71 0.5 48.74 45.5 48.74 45.5 19.71"/><rect class="cls-2" x="2.83" y="23.32" width="7.83" height="8.42"/><rect class="cls-2" x="2.83" y="34.94" width="7.83" height="8.42"/><rect class="cls-2" x="35.34" y="23.32" width="7.83" height="8.42"/><rect class="cls-2" x="35.34" y="34.94" width="7.83" height="8.42"/><rect class="cls-3" x="12.92" y="11.66" width="20.17" height="32.87"/><path class="cls-4" d="M33.08,30.41A19,19,0,0,0,15.72,19.08a19.83,19.83,0,0,0-2.8.23V44.53H33.08Z"/><rect class="cls-5" x="12.92" y="11.66" width="20.17" height="32.87"/><rect class="cls-6" x="18.79" y="31.57" width="8.42" height="12.99"/><rect class="cls-7" x="12.92" y="44.53" width="20.17" height="4.21"/><circle class="cls-1" cx="23" cy="20.8" r="5.51"/><line class="cls-8" x1="19.91" y1="11.66" x2="19.91" y2="0.5"/><rect class="cls-9" x="19.91" y="1.22" width="9.89" height="6.78"/><path class="cls-10" d="M24.51,1.22h-4.6V8h6.84A20.83,20.83,0,0,0,24.51,1.22Z"/><rect class="cls-5" x="19.91" y="1.22" width="9.89" height="6.78"/></g></g></g></svg>