<svg xmlns="http://www.w3.org/2000/svg" viewBox="0 0 47.14 48.61"><defs><style>.cls-1{fill:#ffd092;}.cls-1,.cls-2,.cls-3,.cls-4,.cls-6{stroke:#0b4054;stroke-linecap:round;stroke-linejoin:round;}.cls-2{fill:#8de4ff;}.cls-3{fill:#ae96cc;}.cls-4{fill:#ffbdc2;}.cls-5{fill:#fff;}.cls-6{fill:none;}</style></defs><title>shower</title><g id="Layer_2" data-name="Layer 2"><g id="Layer_1-2" data-name="Layer 1"><g id="shower"><path class="cls-1" d="M44.51,47.84a2.14,2.14,0,0,1-2.14-2.14V17.06a12.29,12.29,0,1,0-24.58,0,2.14,2.14,0,0,1-4.27,0,16.56,16.56,0,0,1,33.12,0V45.7A2.14,2.14,0,0,1,44.51,47.84Z"/><path class="cls-2" d="M.5,28.81a15.46,15.46,0,0,0,.4,3.42H31.37a15.46,15.46,0,0,0,.4-3.42,15.64,15.64,0,1,0-31.27,0Z"/><line class="cls-3" x1="2.57" y1="36.98" x2="2.57" y2="42.23"/><line class="cls-3" x1="8" y1="40.84" x2="8" y2="46.09"/><line class="cls-3" x1="8" y1="36.98" x2="8" y2="39.47"/><line class="cls-3" x1="13.42" y1="42.24" x2="13.42" y2="44.72"/><line class="cls-3" x1="13.42" y1="45.99" x2="13.42" y2="46.64"/><line class="cls-3" x1="13.42" y1="36.98" x2="13.42" y2="40.86"/><line class="cls-3" x1="24.27" y1="44" x2="24.27" y2="44.64"/><line class="cls-3" x1="24.27" y1="36.98" x2="24.27" y2="42.23"/><line class="cls-3" x1="18.85" y1="36.98" x2="18.85" y2="39.47"/><line class="cls-3" x1="18.85" y1="40.73" x2="18.85" y2="41.38"/><line class="cls-3" x1="18.85" y1="42.86" x2="18.85" y2="48.11"/><line class="cls-3" x1="29.7" y1="36.98" x2="29.7" y2="37.63"/><line class="cls-3" x1="29.7" y1="45.74" x2="29.7" y2="46.39"/><line class="cls-3" x1="29.7" y1="38.99" x2="29.7" y2="44.24"/><rect class="cls-4" x="0.5" y="32.23" width="31.27" height="2.46" rx="1.23" ry="1.23"/><path class="cls-5" d="M30.08,4.77A12.3,12.3,0,0,1,42.37,17.06v4.33a16.94,16.94,0,0,0,3.26-10A16.53,16.53,0,0,0,14,13.34a16.8,16.8,0,0,0-2.38.54A17.12,17.12,0,0,0,28.5,28.5a17.28,17.28,0,0,0,3.24-.32A15.61,15.61,0,0,0,18.37,13.35,12.3,12.3,0,0,1,30.08,4.77Z"/><line class="cls-6" x1="0.53" y1="27.54" x2="31.74" y2="27.54"/><path class="cls-6" d="M.5,28.81a15.46,15.46,0,0,0,.4,3.42H31.37a15.46,15.46,0,0,0,.4-3.42,15.64,15.64,0,1,0-31.27,0Z"/><path class="cls-6" d="M30.08.5A16.57,16.57,0,0,0,14,13.34a15.64,15.64,0,0,1,2.18-.17,16.49,16.49,0,0,1,2.23.18,12.29,12.29,0,0,1,24,3.71V45.7a2.14,2.14,0,1,0,4.27,0V17.06A16.58,16.58,0,0,0,30.08.5Z"/></g></g></g></svg>