<svg xmlns="http://www.w3.org/2000/svg" viewBox="0 0 44.16 47.75"><defs><style>.cls-1{fill:#fff;stroke:#0e4c60;}.cls-1,.cls-4,.cls-5,.cls-6{stroke-linecap:round;}.cls-1,.cls-3,.cls-4,.cls-5,.cls-6{stroke-linejoin:round;}.cls-2{fill:#ffd092;}.cls-3{fill:none;}.cls-3,.cls-4,.cls-5,.cls-6{stroke:#0b4054;}.cls-4{fill:#8de4ff;}.cls-5{fill:#ae96cc;}.cls-6{fill:#a6e872;}</style></defs><title>kereta</title><g id="Layer_2" data-name="Layer 2"><g id="Layer_1-2" data-name="Layer 1"><g id="kereta"><path class="cls-1" d="M35.69,36.63a105.55,105.55,0,0,1-13.61.62,105.74,105.74,0,0,1-13.61-.62c-4.08,0-7.22-4.44-6.65-9.4L4.32,5.61c.26-2.28,1.86-4,3.74-4,0,0,2.74-1.13,14-1.13S36.73,1.63,36.73,1.63c1.93,0,3.55,1.79,3.76,4.14l1.88,21.75C42.79,32.38,39.68,36.63,35.69,36.63Z"/><path class="cls-2" d="M8.06,1.63c-1.88,0-3.48,1.7-3.74,4L1.82,27.23c-.57,5,2.57,9.4,6.65,9.4a105.74,105.74,0,0,0,13.61.62c3.7,0,10.28-5.25,10.28-13.25C32.36,4.13,23.87.5,22.08.5,10.8.5,8.06,1.63,8.06,1.63Z"/><path class="cls-3" d="M35.69,36.63a105.55,105.55,0,0,1-13.61.62,105.74,105.74,0,0,1-13.61-.62c-4.08,0-7.22-4.44-6.65-9.4L4.32,5.61c.26-2.28,1.86-4,3.74-4,0,0,2.74-1.13,14-1.13S36.73,1.63,36.73,1.63c1.93,0,3.55,1.79,3.76,4.14l1.88,21.75C42.79,32.38,39.68,36.63,35.69,36.63Z"/><path class="cls-4" d="M37.22,8.62a2.23,2.23,0,0,0-2.23-2H9.17a2.23,2.23,0,0,0-2.23,2l-.89,14H38.11Z"/><ellipse class="cls-5" cx="8.74" cy="28.77" rx="2.56" ry="2.54"/><ellipse class="cls-5" cx="35.42" cy="28.77" rx="2.56" ry="2.54"/><polygon class="cls-6" points="6.33 47.25 0.5 47.25 9.73 39.17 13.02 39.17 6.33 47.25"/><polygon class="cls-6" points="37.84 47.25 43.66 47.25 34.43 39.17 31.15 39.17 37.84 47.25"/><polygon class="cls-6" points="34.94 43.75 9.22 43.75 11.3 41.24 32.71 41.24 34.94 43.75"/></g></g></g></svg>