<svg xmlns="http://www.w3.org/2000/svg" viewBox="0 0 44.75 47.58"><defs><style>.cls-1{fill:#8de4ff;}.cls-1,.cls-2,.cls-3,.cls-4,.cls-5{stroke:#0b4054;stroke-linecap:round;stroke-linejoin:round;}.cls-2{fill:none;}.cls-3{fill:#a6e872;}.cls-4{fill:#ae96cc;}.cls-5{fill:#ffd092;}.cls-6{fill:#fff;}</style></defs><title>supermarket 2</title><g id="Layer_2" data-name="Layer 2"><g id="Layer_1-2" data-name="Layer 1"><g id="supermarket_2" data-name="supermarket 2"><polygon class="cls-1" points="39.44 47.08 44.25 43.42 44.25 13.36 39.44 8.31 39.44 47.08"/><path class="cls-2" d="M20.45,12S20,1,25.05,1s5.07,9,5.07,11"/><rect class="cls-3" x="5.09" y="5.16" width="12.93" height="11.71"/><rect class="cls-4" x="20.02" y="2.46" width="17.23" height="11.71"/><rect class="cls-5" x="0.5" y="8.31" width="39.04" height="38.77"/><path class="cls-6" d="M39.54,8.31H4.1A29.66,29.66,0,0,0,44.25,34.2V13.36L39.54,8.41Z"/><polygon class="cls-2" points="39.44 47.08 44.25 43.42 44.25 13.36 39.44 8.31 39.44 47.08"/><path class="cls-2" d="M15,12S14.5.5,19.78.5,25.07,9.85,25.07,12"/><rect class="cls-2" x="0.5" y="8.31" width="39.04" height="38.77"/></g></g></g></svg>