<svg xmlns="http://www.w3.org/2000/svg" viewBox="0 0 47.02 48.37"><defs><style>.cls-1{fill:#66d4ff;}.cls-1,.cls-11,.cls-2,.cls-3,.cls-4,.cls-5,.cls-6,.cls-7,.cls-8,.cls-9{stroke:#0b4054;stroke-linejoin:round;}.cls-1,.cls-11,.cls-2,.cls-3,.cls-4,.cls-6,.cls-9{stroke-linecap:round;}.cls-2{fill:#ffbdc2;}.cls-3,.cls-7{fill:#a6e872;}.cls-4{fill:#ffd092;}.cls-11,.cls-5{fill:none;}.cls-10,.cls-6{fill:#fff;}.cls-8,.cls-9{fill:#8de4ff;}</style></defs><title>1 tamu</title><g id="Layer_2" data-name="Layer 2"><g id="Layer_1-2" data-name="Layer 1"><g id="_1_tamu" data-name="1 tamu"><line class="cls-1" x1="34.67" y1="34.03" x2="34.67" y2="3.51"/><circle class="cls-2" cx="34.67" cy="5.13" r="4.63"/><line class="cls-1" x1="43.41" y1="34.03" x2="43.41" y2="18.65"/><circle class="cls-3" cx="43.41" cy="19.6" r="2.71"/><rect class="cls-4" x="20.69" y="32" width="25.83" height="15.88" rx="2.38" ry="2.38"/><path class="cls-5" d="M30.61,29.12h6a1.34,1.34,0,0,1,1.34,1.34V32a0,0,0,0,1,0,0H29.27a0,0,0,0,1,0,0V30.47A1.34,1.34,0,0,1,30.61,29.12Z"/><line class="cls-6" x1="24.63" y1="32" x2="24.63" y2="36.06"/><line class="cls-6" x1="42.38" y1="32" x2="42.38" y2="36.06"/><circle class="cls-7" cx="9.9" cy="5.53" r="4.93"/><path class="cls-8" d="M14.12,12.36H5.57A5.07,5.07,0,0,0,.5,17.43V28.21a3.3,3.3,0,0,0,3.3,3.3h0A1.17,1.17,0,0,1,5,32.68V45.27a2.53,2.53,0,0,0,2.19,2.56,2.43,2.43,0,0,0,2.69-2.42,2.42,2.42,0,0,0,2.68,2.42,2.53,2.53,0,0,0,2.19-2.56V32.68a1.17,1.17,0,0,1,1.17-1.17h0a3.3,3.3,0,0,0,3.3-3.3V17.43A5.07,5.07,0,0,0,14.12,12.36Z"/><line class="cls-9" x1="9.85" y1="45.41" x2="9.85" y2="33.37"/><path class="cls-10" d="M14.12,12.36H7a18.09,18.09,0,0,0,12.14,16,.88.88,0,0,0,0-.16V17.43A5.07,5.07,0,0,0,14.12,12.36Z"/><path class="cls-5" d="M14.12,12.36H5.57A5.07,5.07,0,0,0,.5,17.43V28.21a3.3,3.3,0,0,0,3.3,3.3h0A1.17,1.17,0,0,1,5,32.68V45.27a2.53,2.53,0,0,0,2.19,2.56,2.43,2.43,0,0,0,2.69-2.42,2.42,2.42,0,0,0,2.68,2.42,2.53,2.53,0,0,0,2.19-2.56V32.68a1.17,1.17,0,0,1,1.17-1.17h0a3.3,3.3,0,0,0,3.3-3.3V17.43A5.07,5.07,0,0,0,14.12,12.36Z"/><path class="cls-10" d="M44.14,32H32.39a12.44,12.44,0,0,0-.08,1.37A12.77,12.77,0,0,0,45.08,46.14a12.26,12.26,0,0,0,1.36-.08,2.1,2.1,0,0,0,.08-.56V34.37A2.38,2.38,0,0,0,44.14,32Z"/><rect class="cls-8" x="25.68" y="38.17" width="15.85" height="3.5" transform="translate(73.53 6.32) rotate(90)"/><rect class="cls-11" x="20.69" y="32" width="25.83" height="15.88" rx="2.38" ry="2.38"/><path class="cls-5" d="M30.61,29.12h6a1.34,1.34,0,0,1,1.34,1.34V32a0,0,0,0,1,0,0H29.27a0,0,0,0,1,0,0V30.47A1.34,1.34,0,0,1,30.61,29.12Z"/><line class="cls-11" x1="24.63" y1="32" x2="24.63" y2="36.06"/><line class="cls-11" x1="42.38" y1="32" x2="42.38" y2="36.06"/></g></g></g></svg>