<svg xmlns="http://www.w3.org/2000/svg" viewBox="0 0 47.5 41.88"><defs><style>.cls-1{fill:#ffbdc2;}.cls-1,.cls-2,.cls-3,.cls-4,.cls-6,.cls-7{stroke:#0b4054;stroke-linecap:round;stroke-linejoin:round;}.cls-2{fill:#8de4ff;}.cls-3{fill:#a6e872;}.cls-4{fill:#ffd092;}.cls-5{fill:#fff;}.cls-6{fill:none;}.cls-7{fill:#ae96cc;}</style></defs><title>telpon</title><g id="Layer_2" data-name="Layer 2"><g id="Layer_1-2" data-name="Layer 1"><g id="telpon"><polygon class="cls-1" points="34.92 10.51 34.9 10.64 34.92 10.51 34.92 10.51"/><polygon class="cls-1" points="34.87 10.74 34.87 10.78 34.87 10.78 34.9 10.64 34.87 10.74"/><path class="cls-1" d="M47,9.11a3.16,3.16,0,0,0-1.37-1.92A39.87,39.87,0,0,0,23.75.5,39.87,39.87,0,0,0,1.91,7.19,3.16,3.16,0,0,0,.54,9.11a1.52,1.52,0,0,0,.09,1l2.94,5.64h0l.16.31A1.46,1.46,0,0,0,5,16.81H5a1.76,1.76,0,0,0,1-.3,34.11,34.11,0,0,1,5.52-2.94,2.14,2.14,0,0,0,1.2-2.34l-.4-1.83a2.88,2.88,0,0,1,.22-1.86,2.05,2.05,0,0,1,1.23-1.11,35.23,35.23,0,0,1,19.94,0A2.05,2.05,0,0,1,35,7.54a2.88,2.88,0,0,1,.22,1.86l-.2.91h0v0l0,.16h0l-.1.44A2.24,2.24,0,0,0,36,13.57a34.11,34.11,0,0,1,5.52,2.94,1.76,1.76,0,0,0,1,.3A1.46,1.46,0,0,0,43.77,16l.18-.35.26-.47h0l2.67-5.14A1.49,1.49,0,0,0,47,9.11Z"/><path class="cls-2" d="M19.71,14.71V11.94a1.07,1.07,0,0,0-.95-1.16h-1a1.07,1.07,0,0,0-.94,1.16v3C17.78,14.84,18.75,14.76,19.71,14.71Z"/><path class="cls-2" d="M30.26,14.91v-3a1.07,1.07,0,0,0-.94-1.16h-1a.87.87,0,0,0-.67.34,1.31,1.31,0,0,0-.28.82v2.75C28.33,14.75,29.3,14.82,30.26,14.91Z"/><path class="cls-2" d="M7.14,32.23q.19,3.23.68,6.42a1.34,1.34,0,0,0,1,1.15,70.82,70.82,0,0,0,29.81,0,1.32,1.32,0,0,0,1-1.15q.49-3.2.69-6.41A144.34,144.34,0,0,1,7.14,32.23Z"/><path class="cls-3" d="M40.26,32.09a153.35,153.35,0,0,0-5.69-16,1.22,1.22,0,0,0-.92-.79,69.6,69.6,0,0,0-20,0,1.25,1.25,0,0,0-.93.79A157.07,157.07,0,0,0,7.08,32a.06.06,0,0,0,0,0,0,0,0,0,0,0,0h0a.57.57,0,0,0,0,.13,144.34,144.34,0,0,0,33.11,0s0-.09,0-.13Z"/><path class="cls-4" d="M23.66,16.5a7.69,7.69,0,1,0,7.6,7.69A7.64,7.64,0,0,0,23.66,16.5Z"/><path class="cls-3" d="M23.66,19.3a4.89,4.89,0,1,0,4.84,4.89A4.85,4.85,0,0,0,23.66,19.3Z"/><polygon class="cls-1" points="23.38 36.37 19.44 36.37 19.44 38.18 23.38 38.18 27.37 38.18 27.37 36.37 23.38 36.37"/><polygon class="cls-5" points="34.87 10.78 34.87 10.78 34.9 10.64 34.87 10.74 34.87 10.78"/><path class="cls-5" d="M34.57,16.09a1.22,1.22,0,0,0-.92-.79c-1.14-.16-2.27-.28-3.39-.39h0v-3a1.07,1.07,0,0,0-.94-1.16h-1a.87.87,0,0,0-.67.34,1.31,1.31,0,0,0-.28.82v2.75a70.09,70.09,0,0,0-7.67,0h0V11.94a1.08,1.08,0,0,0-.88-1.14,18,18,0,0,0,18,18,18.65,18.65,0,0,0,2.38-.17C37.93,24.64,36.33,20.42,34.57,16.09Z"/><path class="cls-5" d="M45.59,7.19A39.87,39.87,0,0,0,23.75.5c-.58,0-1.15,0-1.73.07a17.54,17.54,0,0,0-2.31,4.67,36.36,36.36,0,0,1,4-.25,35.3,35.3,0,0,1,10,1.44A2.05,2.05,0,0,1,35,7.54a2.88,2.88,0,0,1,.22,1.86l-.2.91v0l0,.16h0l-.1.44A2.24,2.24,0,0,0,36,13.57a34.11,34.11,0,0,1,5.52,2.94,1.76,1.76,0,0,0,1,.3A1.46,1.46,0,0,0,43.77,16l.18-.35.26-.47h0l2.67-5.14a1.49,1.49,0,0,0,.09-1A3.16,3.16,0,0,0,45.59,7.19Z"/><polygon class="cls-5" points="34.9 10.64 34.92 10.51 34.92 10.51 34.9 10.64"/><polygon class="cls-6" points="34.92 10.51 34.9 10.64 34.92 10.51 34.92 10.51"/><polygon class="cls-6" points="34.87 10.74 34.87 10.78 34.87 10.78 34.9 10.64 34.87 10.74"/><path class="cls-6" d="M47,9.11a3.16,3.16,0,0,0-1.37-1.92A39.87,39.87,0,0,0,23.75.5,39.87,39.87,0,0,0,1.91,7.19,3.16,3.16,0,0,0,.54,9.11a1.52,1.52,0,0,0,.09,1l2.94,5.64h0l.16.31A1.46,1.46,0,0,0,5,16.81H5a1.76,1.76,0,0,0,1-.3,34.11,34.11,0,0,1,5.52-2.94,2.14,2.14,0,0,0,1.2-2.34l-.4-1.83a2.88,2.88,0,0,1,.22-1.86,2.05,2.05,0,0,1,1.23-1.11,35.23,35.23,0,0,1,19.94,0A2.05,2.05,0,0,1,35,7.54a2.88,2.88,0,0,1,.22,1.86l-.2.91h0v0l0,.16h0l-.1.44A2.24,2.24,0,0,0,36,13.57a34.11,34.11,0,0,1,5.52,2.94,1.76,1.76,0,0,0,1,.3A1.46,1.46,0,0,0,43.77,16l.18-.35.26-.47h0l2.67-5.14A1.49,1.49,0,0,0,47,9.11Z"/><path class="cls-6" d="M19.71,14.71V11.94a1.07,1.07,0,0,0-.95-1.16h-1a1.07,1.07,0,0,0-.94,1.16v3C17.78,14.84,18.75,14.76,19.71,14.71Z"/><path class="cls-6" d="M30.26,14.91v-3a1.07,1.07,0,0,0-.94-1.16h-1a.87.87,0,0,0-.67.34,1.31,1.31,0,0,0-.28.82v2.75C28.33,14.75,29.3,14.82,30.26,14.91Z"/><path class="cls-6" d="M7.14,32.23q.19,3.23.68,6.42a1.34,1.34,0,0,0,1,1.15,70.82,70.82,0,0,0,29.81,0,1.32,1.32,0,0,0,1-1.15q.49-3.2.69-6.41A144.34,144.34,0,0,1,7.14,32.23Z"/><path class="cls-6" d="M40.26,32.09a153.35,153.35,0,0,0-5.69-16,1.22,1.22,0,0,0-.92-.79,69.6,69.6,0,0,0-20,0,1.25,1.25,0,0,0-.93.79A157.07,157.07,0,0,0,7.08,32a.06.06,0,0,0,0,0,0,0,0,0,0,0,0h0a.57.57,0,0,0,0,.13,144.34,144.34,0,0,0,33.11,0s0-.09,0-.13Z"/><path class="cls-6" d="M23.66,16.5a7.69,7.69,0,1,0,7.6,7.69A7.64,7.64,0,0,0,23.66,16.5Z"/><path class="cls-6" d="M23.66,19.3a4.89,4.89,0,1,0,4.84,4.89A4.85,4.85,0,0,0,23.66,19.3Z"/><polygon class="cls-6" points="23.38 36.37 19.44 36.37 19.44 38.18 23.38 38.18 27.37 38.18 27.37 36.37 23.38 36.37"/><path class="cls-7" d="M29.64,26.23a.52.52,0,0,0-.79,0,.86.86,0,0,0,0,1s1.31,2.2,1.35,2.25a.82.82,0,0,0,1.33,0,1.32,1.32,0,0,0,0-1.62C31.45,27.83,29.67,26.25,29.64,26.23Z"/></g></g></g></svg>