<svg xmlns="http://www.w3.org/2000/svg" viewBox="0 0 49.11 49.13"><defs><style>.cls-1{fill:#ffd092;stroke:#0071bc;}.cls-1,.cls-3,.cls-7{stroke-linecap:round;}.cls-1,.cls-3,.cls-4,.cls-5,.cls-6,.cls-7{stroke-linejoin:round;}.cls-2{fill:#fff;}.cls-3,.cls-4,.cls-7{fill:none;}.cls-3,.cls-4,.cls-5,.cls-7{stroke:#0b4054;}.cls-5{fill:#ae96cc;}.cls-6{fill:#a6e872;stroke:#0e4c60;}.cls-7{stroke-dasharray:0 4.89;}</style></defs><title>jemuran baju</title><g id="Layer_2" data-name="Layer 2"><g id="Layer_1-2" data-name="Layer 1"><g id="jemuran_baju" data-name="jemuran baju"><path class="cls-1" d="M29.34,10s2.4,7.21-4.81,7.21S19.72,10,19.72,10l-12,7.21L12.51,28V48.63h24V28L41.35,17.2Z"/><path class="cls-2" d="M31.45,11.26c-.27.12-1.41-.74-1.67-.61s.23,1.29-.08,1.47c.12,2.13-.55,5.08-5.17,5.08a6.26,6.26,0,0,1-.63,0,28.12,28.12,0,0,0-5.7,17.4,29.21,29.21,0,0,0,3.5,14.07H36.54V28L41.35,17.2Z"/><polyline class="cls-3" points="19.38 11.78 24.53 9.1 29.68 11.78"/><path class="cls-3" d="M21.36,4.1a3.6,3.6,0,1,1,7.2,0,3.55,3.55,0,0,1-3.93,3.46V9.1"/><path class="cls-4" d="M29.34,10s2.4,7.21-4.81,7.21S19.72,10,19.72,10l-12,7.21L12.51,28V48.63h24V28L41.35,17.2Z"/><polygon class="cls-5" points="5.31 29.22 11.51 25.76 7.71 17.2 0.5 22.01 5.31 29.22"/><polygon class="cls-5" points="41.4 17.2 37.59 25.76 43.8 29.22 48.61 22.01 41.4 17.2"/><circle class="cls-6" cx="24.55" cy="29.63" r="3.56"/><circle class="cls-7" cx="24.55" cy="29.63" r="6.23"/></g></g></g></svg>