<svg xmlns="http://www.w3.org/2000/svg" viewBox="0 0 44 46.55"><defs><style>.cls-1{fill:#66d4ff;}.cls-1,.cls-2,.cls-3,.cls-4,.cls-5,.cls-6,.cls-8{stroke:#0b4054;stroke-linecap:round;stroke-linejoin:round;}.cls-2{fill:#8de4ff;}.cls-3{fill:#ffd092;}.cls-4{fill:#ae96cc;}.cls-5{fill:#a6e872;}.cls-6{fill:#ffbdc2;}.cls-7{fill:#fff;}.cls-8{fill:none;}</style></defs><title>tempat tidur</title><g id="Layer_2" data-name="Layer 2"><g id="Layer_1-2" data-name="Layer 1"><g id="tempat_tidur" data-name="tempat tidur"><line class="cls-1" x1="26.36" y1="13.37" x2="26.36" y2="8.39"/><circle class="cls-2" cx="26.36" cy="8.79" r="1.13"/><line class="cls-1" x1="34.88" y1="20.68" x2="34.88" y2="4.1"/><circle class="cls-3" cx="34.88" cy="5.09" r="2.85"/><line class="cls-1" x1="13.81" y1="20.97" x2="13.81" y2="4.39"/><circle class="cls-2" cx="13.81" cy="5.39" r="2.85"/><line class="cls-1" x1="10.18" y1="17.11" x2="10.18" y2="9.28"/><circle class="cls-4" cx="10.18" cy="10.13" r="2.44"/><line class="cls-1" x1="3.32" y1="25.68" x2="3.32" y2="4.02"/><circle class="cls-5" cx="3.32" cy="2.94" r="2.44"/><line class="cls-1" x1="39.37" y1="20.23" x2="39.37" y2="8.39"/><circle class="cls-6" cx="39.37" cy="8.96" r="1.65"/><path class="cls-5" d="M22,30.49c-8.34,0-21.5.85-21.5.85V46.05H4.34l1-4.66H38.68l1,4.66H43.5V31.34S30.34,30.49,22,30.49Z"/><path class="cls-3" d="M41.54,24.55H2.46l-2,6.79s7.6-.85,21.5-.85,21.5.85,21.5.85Z"/><path class="cls-6" d="M41.54,24.55H2.46v-12S4.67,10,22,10s19.54,2.53,19.54,2.53Z"/><path class="cls-7" d="M41.54,24.55v-12S39.33,10,22,10c-1.95,0-3.7,0-5.28.09A19,19,0,0,0,43.5,32.83V31.34l-2-6.79Z"/><path class="cls-8" d="M41.54,24.55H2.46v-12S4.67,10,22,10s19.54,2.53,19.54,2.53Z"/><path class="cls-8" d="M41.54,24.55H2.46l-2,6.79s7.6-.85,21.5-.85,21.5.85,21.5.85Z"/><path class="cls-8" d="M22,30.49c-8.34,0-21.5.85-21.5.85V46.05H4.34l1-4.66H38.68l1,4.66H43.5V31.34S30.34,30.49,22,30.49Z"/><rect class="cls-2" x="6.43" y="18.59" width="11.53" height="5.97"/><rect class="cls-2" x="26.05" y="18.59" width="11.53" height="5.97"/></g></g></g></svg>