<svg xmlns="http://www.w3.org/2000/svg" viewBox="0 0 46.41 48.5"><defs><style>.cls-1{fill:#66d4ff;}.cls-1,.cls-2,.cls-3,.cls-5,.cls-6,.cls-7,.cls-8{stroke:#0b4054;stroke-linejoin:round;}.cls-1,.cls-2,.cls-6,.cls-7,.cls-8{stroke-linecap:round;}.cls-2{fill:#71eae1;}.cls-3{fill:#fff;}.cls-4{fill:#a6e872;}.cls-5{fill:none;}.cls-6{fill:#ae96cc;}.cls-7{fill:#8de4ff;}.cls-8{fill:#8d42ce;}</style></defs><title>terminal bis</title><g id="Layer_2" data-name="Layer 2"><g id="Layer_1-2" data-name="Layer 1"><g id="terminal_bis" data-name="terminal bis"><line class="cls-1" x1="39.38" y1="33.15" x2="39.38" y2="4.74"/><circle class="cls-2" cx="39.38" cy="7.03" r="6.53"/><path class="cls-3" d="M37.7,32.76H36.42V11.64a2.91,2.91,0,0,0-2.79-3H3.34a2.91,2.91,0,0,0-2.79,3V41.07a2.91,2.91,0,0,0,2.79,3H33.63a2.42,2.42,0,0,0,.47,0,2.61,2.61,0,0,0,.48,0h7.57a1.53,1.53,0,0,0,1.46-1.57V35.76C43.61,34.11,39.23,32.76,37.7,32.76Z"/><path class="cls-4" d="M11.71,12.91A23.21,23.21,0,0,0,.55,15.78V40.57a3.4,3.4,0,0,0,3.26,3.51H36a28.81,28.81,0,0,0,.38-4.59C36.42,24.81,25.36,12.91,11.71,12.91Z"/><path class="cls-5" d="M37.7,32.76H36.42V11.64a2.91,2.91,0,0,0-2.79-3H3.34a2.91,2.91,0,0,0-2.79,3V41.07a2.91,2.91,0,0,0,2.79,3H33.63a2.42,2.42,0,0,0,.47,0,2.61,2.61,0,0,0,.48,0h7.57a1.53,1.53,0,0,0,1.46-1.57V35.76C43.61,34.11,39.23,32.76,37.7,32.76Z"/><ellipse class="cls-2" cx="10.11" cy="44.08" rx="3.65" ry="3.93"/><ellipse class="cls-2" cx="37.74" cy="44.08" rx="3.65" ry="3.93"/><rect class="cls-6" x="23.7" y="25.37" width="7.88" height="18.71"/><path class="cls-7" d="M.5,25.37H3.61a1.72,1.72,0,0,1,1.72,1.72v3.6a1.72,1.72,0,0,1-1.72,1.72H.5a0,0,0,0,1,0,0v-7A0,0,0,0,1,.5,25.37Z"/><rect class="cls-7" x="7.3" y="25.37" width="6.55" height="7.04" rx="1.72" ry="1.72"/><rect class="cls-7" x="15.79" y="25.37" width="6.55" height="7.04" rx="1.72" ry="1.72"/><line class="cls-8" x1="0.55" y1="35.71" x2="21.33" y2="35.71"/><line class="cls-8" x1="0.5" y1="37.65" x2="15.58" y2="37.65"/><path class="cls-7" d="M36.4,25.37H34.18a1.42,1.42,0,0,0-1.36,1.47v4.1a1.41,1.41,0,0,0,1.36,1.47H36.4Z"/><path class="cls-7" d="M.5,14.11H3.61a1.72,1.72,0,0,1,1.72,1.72v3.6a1.72,1.72,0,0,1-1.72,1.72H.5a0,0,0,0,1,0,0v-7A0,0,0,0,1,.5,14.11Z"/><rect class="cls-7" x="7.3" y="14.11" width="6.55" height="7.04" rx="1.72" ry="1.72"/><rect class="cls-7" x="15.79" y="14.11" width="6.55" height="7.04" rx="1.72" ry="1.72"/><rect class="cls-7" x="24.29" y="14.11" width="6.55" height="7.04" rx="1.72" ry="1.72"/><path class="cls-7" d="M36.4,14.11H34.18a1.42,1.42,0,0,0-1.36,1.47v4.11a1.42,1.42,0,0,0,1.36,1.47H36.4Z"/></g></g></g></svg>