<svg xmlns="http://www.w3.org/2000/svg" viewBox="0 0 49 43.77"><defs><style>.cls-1{fill:#ae96cc;}.cls-1,.cls-2,.cls-3,.cls-4,.cls-6,.cls-7{stroke:#0b4054;stroke-linecap:round;stroke-linejoin:round;}.cls-2{fill:#ffd092;}.cls-3{fill:#a6e872;}.cls-4{fill:#71eae1;}.cls-5{fill:#fff;}.cls-6,.cls-7{fill:none;}.cls-7{stroke-dasharray:1.81 2.41;}</style></defs><title>tol</title><g id="Layer_2" data-name="Layer 2"><g id="Layer_1-2" data-name="Layer 1"><g id="tol"><ellipse class="cls-1" cx="24.5" cy="28.3" rx="12.65" ry="11.71"/><circle class="cls-2" cx="24.5" cy="30.51" r="2.53"/><polygon class="cls-3" points="26.5 31.65 22.5 31.65 0.5 43.27 48.5 43.27 26.5 31.65"/><rect class="cls-2" x="4.19" y="3.34" width="2.02" height="34.88"/><rect class="cls-2" x="42.79" y="3.34" width="2.02" height="34.88"/><rect class="cls-4" x="3.13" y="3.34" width="42.75" height="3.88"/><rect class="cls-3" x="10.75" y="0.5" width="12.04" height="9.67"/><rect class="cls-3" x="26.21" y="0.5" width="12.04" height="9.67"/><path class="cls-5" d="M33.55,43.27A19.24,19.24,0,0,0,11.88,27.83c0,.16,0,.31,0,.47a11.14,11.14,0,0,0,2.89,7.45L.5,43.27Z"/><polygon class="cls-6" points="26.5 31.65 22.5 31.65 0.5 43.27 48.5 43.27 26.5 31.65"/><path class="cls-6" d="M22.5,31.65h4l.2.1A2.47,2.47,0,0,0,27,30.51a2.53,2.53,0,0,0-5.06,0,2.47,2.47,0,0,0,.33,1.24Z"/><path class="cls-6" d="M22.5,31.65h4l7.76,4.1a11.14,11.14,0,0,0,2.89-7.45c0-6.47-5.66-11.71-12.65-11.71S11.85,21.83,11.85,28.3a11.14,11.14,0,0,0,2.89,7.45Z"/><line class="cls-6" x1="24.5" y1="31.65" x2="24.5" y2="33.15"/><line class="cls-7" x1="24.5" y1="35.56" x2="24.5" y2="38.57"/><line class="cls-6" x1="24.5" y1="39.77" x2="24.5" y2="41.27"/></g></g></g></svg>