<svg xmlns="http://www.w3.org/2000/svg" xmlns:xlink="http://www.w3.org/1999/xlink" viewBox="0 0 47.49 45.03"><defs><style>.cls-1,.cls-11{fill:none;}.cls-2{fill:#8de4ff;}.cls-10,.cls-11,.cls-2,.cls-5,.cls-6,.cls-8,.cls-9{stroke:#0b4054;stroke-linecap:round;stroke-linejoin:round;}.cls-3{fill:#fff;}.cls-4,.cls-9{fill:#a6e872;}.cls-5{fill:#ae96cc;}.cls-6{fill:#ffd092;}.cls-7{clip-path:url(#clip-path);}.cls-8{fill:#66d4ff;}.cls-10{fill:#ffbdc2;}</style><clipPath id="clip-path"><rect class="cls-1" x="0.5" y="0.5" width="45.75" height="33.97"/></clipPath></defs><title>tv</title><g id="Layer_2" data-name="Layer 2"><g id="Layer_1-2" data-name="Layer 1"><g id="tv"><rect class="cls-2" x="0.5" y="0.5" width="45.75" height="33.97"/><path class="cls-3" d="M13.37,5.74A26.25,26.25,0,0,0,39.62,32a26.36,26.36,0,0,0,6.63-.84V.5H13.9A26.61,26.61,0,0,0,13.37,5.74Z"/><path class="cls-4" d="M.54,34.47h33a16.71,16.71,0,0,0-33,0Z"/><path class="cls-5" d="M32,39.16a42.46,42.46,0,0,1,.43-4.69H14.29a40.63,40.63,0,0,1,.45,4.69,6.68,6.68,0,0,1-.45,2.69H32.46A7,7,0,0,1,32,39.16Z"/><rect class="cls-6" x="4.44" y="41.82" width="37.88" height="2.72"/><g class="cls-7"><line class="cls-8" x1="42.36" y1="35.34" x2="42.36" y2="15.18"/><circle class="cls-2" cx="42.36" cy="16.8" r="4.63"/><line class="cls-8" x1="24.89" y1="42.71" x2="24.89" y2="22.55"/><circle class="cls-6" cx="24.89" cy="24.18" r="4.63"/><line class="cls-8" x1="3.52" y1="34.44" x2="3.52" y2="13.59"/><circle class="cls-5" cx="3.52" cy="14.54" r="2.71"/><line class="cls-8" x1="33.62" y1="34.44" x2="33.62" y2="12.76"/><circle class="cls-9" cx="33.62" cy="13.7" r="2.71"/><line class="cls-8" x1="13.24" y1="40.82" x2="13.24" y2="18.04"/><circle class="cls-10" cx="13.24" cy="19.87" r="5.23"/></g><rect class="cls-10" x="0.5" y="31.99" width="45.75" height="2.72"/><rect class="cls-11" x="0.5" y="0.5" width="45.75" height="33.97"/></g></g></g></svg>