<svg xmlns="http://www.w3.org/2000/svg" viewBox="0 0 46.75 45.03"><defs><style>.cls-1{fill:#8de4ff;}.cls-1,.cls-4,.cls-5,.cls-6,.cls-7,.cls-8{stroke:#0b4054;stroke-linecap:round;stroke-linejoin:round;}.cls-2{fill:#fff;}.cls-3,.cls-4{fill:#a6e872;}.cls-5{fill:#ae96cc;}.cls-6{fill:#ffd092;}.cls-7{fill:none;}.cls-8{fill:#ffbdc2;}</style></defs><title>tv kabel</title><g id="Layer_2" data-name="Layer 2"><g id="Layer_1-2" data-name="Layer 1"><g id="tv_kabel" data-name="tv kabel"><rect class="cls-1" x="0.5" y="0.5" width="45.75" height="33.97"/><path class="cls-2" d="M13.37,5.74A26.25,26.25,0,0,0,39.62,32a26.36,26.36,0,0,0,6.63-.84V.5H13.9A26.61,26.61,0,0,0,13.37,5.74Z"/><path class="cls-3" d="M.54,34.47h33a16.71,16.71,0,0,0-33,0Z"/><path class="cls-4" d="M19.62,8.69a8.71,8.71,0,0,0-1.86,1.43A9,9,0,1,0,32,21s.7-2.66-4.5-7.85S19.62,8.69,19.62,8.69Z"/><ellipse class="cls-5" cx="25.05" cy="15.61" rx="2.37" ry="7.35" transform="translate(-3.7 22.28) rotate(-45)"/><polygon class="cls-1" points="31.78 9.72 31.36 9.3 30.93 8.87 24.64 14.32 25.48 15.17 26.33 16.02 31.78 9.72"/><circle class="cls-6" cx="32.33" cy="8.32" r="2.97"/><path class="cls-6" d="M13.4,22.45l-2.94,5.1a1.38,1.38,0,0,0,1.2,2.07h5.88a1.38,1.38,0,0,0,1.2-2.07l-2.94-5.1A1.39,1.39,0,0,0,13.4,22.45Z"/><path class="cls-2" d="M29.8,9.86l-3,2.63c-4.72-4.44-7.14-3.8-7.14-3.8a8.71,8.71,0,0,0-1.86,1.43,9,9,0,0,0-1.88,10,11.81,11.81,0,0,0,3.28.46,11.94,11.94,0,0,0,10.07-5.51c-.32-.38-.67-.78-1.06-1.2l2.63-3,.1.05a11.84,11.84,0,0,0,.21-2.25,12.22,12.22,0,0,0-.34-2.85,3.06,3.06,0,0,0-.53.42A3,3,0,0,0,29.8,9.86Z"/><path class="cls-7" d="M28.17,13.89,26.33,16l-.85-.85-.85-.85,2.13-1.83c-4.72-4.44-7.14-3.8-7.14-3.8a8.71,8.71,0,0,0-1.86,1.43A9,9,0,1,0,32,21S32.6,18.62,28.17,13.89Z"/><path class="cls-7" d="M26.33,16l-.85-.85-.85-.85,1.31-1.13c-2.62-2.39-5.25-3.62-6.09-2.78s.65,4,3.52,6.87,5.95,4.45,6.87,3.52-.39-3.46-2.78-6.09Z"/><path class="cls-7" d="M30.24,10.42a3.18,3.18,0,0,1-.44-.56l-5.17,4.46.85.85.85.85,4.47-5.17A2.88,2.88,0,0,1,30.24,10.42Z"/><circle class="cls-7" cx="32.33" cy="8.32" r="2.97"/><path class="cls-5" d="M32,39.16a42.46,42.46,0,0,1,.43-4.69H14.29a40.63,40.63,0,0,1,.45,4.69,6.68,6.68,0,0,1-.45,2.69H32.46A7,7,0,0,1,32,39.16Z"/><rect class="cls-6" x="4.44" y="41.82" width="37.88" height="2.72"/><rect class="cls-8" x="0.5" y="31.99" width="45.75" height="2.72"/><rect class="cls-7" x="0.5" y="0.5" width="45.75" height="33.97"/></g></g></g></svg>