<svg xmlns="http://www.w3.org/2000/svg" viewBox="0 0 45.59 47.78"><defs><style>.cls-1{fill:#66d4ff;}.cls-1,.cls-2,.cls-3,.cls-4,.cls-5,.cls-6{stroke:#0b4054;stroke-linecap:round;stroke-linejoin:round;}.cls-2{fill:#8de4ff;}.cls-3{fill:#ae96cc;}.cls-4{fill:#a6e872;}.cls-5{fill:#ffbdc2;}.cls-6{fill:none;}.cls-7{fill:#fff;}</style></defs><title>wastafel</title><g id="Layer_2" data-name="Layer 2"><g id="Layer_1-2" data-name="Layer 1"><g id="wastafel"><line class="cls-1" x1="32.82" y1="47.04" x2="32.82" y2="41.52"/><circle class="cls-2" cx="32.82" cy="41.96" r="1.25"/><line class="cls-1" x1="9.76" y1="47.04" x2="9.76" y2="38.36"/><circle class="cls-3" cx="9.76" cy="39.3" r="2.71"/><line class="cls-1" x1="3.21" y1="47.04" x2="3.21" y2="23.03"/><circle class="cls-4" cx="3.21" cy="23.98" r="2.71"/><line class="cls-1" x1="42.16" y1="46.89" x2="42.16" y2="33.76"/><circle class="cls-5" cx="42.16" cy="34.4" r="1.83"/><path class="cls-6" d="M17,4.29A3.79,3.79,0,0,1,20.82.5h0A3.79,3.79,0,0,1,24.6,4.29V14.68"/><rect class="cls-5" x="2.73" y="14.68" width="42.36" height="4.74" rx="2.2" ry="2.2"/><path class="cls-2" d="M43.17,19.41H4.66A19.25,19.25,0,0,0,19.42,38.12v9.16h9V38.12A19.25,19.25,0,0,0,43.17,19.41Z"/><line class="cls-6" x1="36.62" y1="14.68" x2="36.62" y2="11.3"/><line class="cls-6" x1="32.85" y1="11.3" x2="40.39" y2="11.3"/><line class="cls-6" x1="12.59" y1="14.68" x2="12.59" y2="11.3"/><line class="cls-6" x1="8.82" y1="11.3" x2="16.36" y2="11.3"/><path class="cls-7" d="M42.72,14.68H9.45A29.29,29.29,0,0,0,35.07,35.07a19.2,19.2,0,0,0,8.1-15.66h-.45a2.37,2.37,0,1,0,0-4.73Z"/><rect class="cls-6" x="2.73" y="14.68" width="42.36" height="4.74" rx="2.2" ry="2.2"/><path class="cls-6" d="M43.17,19.41H4.66A19.25,19.25,0,0,0,19.42,38.12v9.16h9V38.12A19.25,19.25,0,0,0,43.17,19.41Z"/></g></g></g></svg>