<svg xmlns="http://www.w3.org/2000/svg" viewBox="0 0 47.09 46.55"><defs><style>.cls-1{fill:#ae96cc;}.cls-1,.cls-10,.cls-2,.cls-3,.cls-4,.cls-6,.cls-7{stroke:#0b4054;}.cls-1,.cls-2,.cls-3,.cls-4,.cls-7{stroke-linecap:round;stroke-linejoin:round;}.cls-10,.cls-2,.cls-9{fill:none;}.cls-3{fill:#ffd092;}.cls-4{fill:#8de4ff;}.cls-5{fill:#0b4054;}.cls-6{fill:#a6e872;}.cls-10,.cls-6{stroke-miterlimit:10;}.cls-7{fill:#ffbdc2;}.cls-8{fill:#fff;}</style></defs><title>water heater</title><g id="Layer_2" data-name="Layer 2"><g id="Layer_1-2" data-name="Layer 1"><g id="water_heater" data-name="water heater"><rect class="cls-1" x="0.5" y="0.5" width="24.5" height="24.5"/><path class="cls-2" d="M18.38,25V40.91a5.14,5.14,0,0,0,5.13,5.14h4.58a5.14,5.14,0,0,0,5.14-5.14V28.38"/><path class="cls-3" d="M5.5.5h9.63a0,0,0,0,1,0,0V8.58a3,3,0,0,1-3,3H8.54a3,3,0,0,1-3-3V.5A0,0,0,0,1,5.5.5Z"/><path class="cls-4" d="M6.57,20.32a4.15,4.15,0,1,1,3.74,2.35A4.07,4.07,0,0,1,8.6,22.3"/><circle class="cls-5" cx="7.53" cy="21.46" r="0.52"/><rect class="cls-6" x="31.54" y="21.2" width="3.37" height="13.83" rx="1.69" ry="1.69"/><path class="cls-4" d="M36.27,23.48a7.41,7.41,0,0,0,1.71-.2V8.11a7.41,7.41,0,0,0-1.71-.2,7.79,7.79,0,0,0,0,15.57Z"/><line class="cls-1" x1="41.04" y1="22.45" x2="43.66" y2="22.45"/><line class="cls-1" x1="43.44" y1="19.75" x2="45.58" y2="19.75"/><line class="cls-1" x1="41.04" y1="19.75" x2="42.01" y2="19.75"/><line class="cls-1" x1="44.27" y1="17.05" x2="44.9" y2="17.05"/><line class="cls-1" x1="46.59" y1="17.05" x2="46.22" y2="17.05"/><line class="cls-1" x1="41.04" y1="17.05" x2="42.97" y2="17.05"/><line class="cls-1" x1="45.57" y1="11.64" x2="44.86" y2="11.64"/><line class="cls-1" x1="41.04" y1="11.64" x2="43.66" y2="11.64"/><line class="cls-1" x1="41.04" y1="14.34" x2="42.28" y2="14.34"/><line class="cls-1" x1="43.66" y1="14.34" x2="43.44" y2="14.34"/><line class="cls-1" x1="44.97" y1="14.34" x2="46.59" y2="14.34"/><line class="cls-1" x1="41.04" y1="8.94" x2="41.36" y2="8.94"/><line class="cls-1" x1="46.59" y1="8.94" x2="45.73" y2="8.94"/><line class="cls-1" x1="42.81" y1="8.94" x2="44.27" y2="8.94"/><rect class="cls-7" x="30.44" y="14.72" width="15.58" height="1.95" rx="0.61" ry="0.61" transform="translate(22.53 53.92) rotate(-90)"/><circle class="cls-4" cx="10.31" cy="3.31" r="1.02"/><circle class="cls-4" cx="10.31" cy="7.49" r="1.85"/><path class="cls-8" d="M39.2,14V8.52a.61.61,0,0,0-.61-.61h-.73a.58.58,0,0,0-.34.12,7.36,7.36,0,0,0-1.25-.12,7.77,7.77,0,0,0-5.43,13.34A16.28,16.28,0,0,0,39.2,14Z"/><path class="cls-8" d="M15.13.5H9.71a16.31,16.31,0,0,0-1,5.56A16.29,16.29,0,0,0,25,22.35V.5Z"/><rect class="cls-2" x="0.5" y="0.5" width="24.5" height="24.5"/><path class="cls-2" d="M18.38,25V40.91a5.14,5.14,0,0,0,5.13,5.14h4.58a5.14,5.14,0,0,0,5.14-5.14V35"/><path class="cls-2" d="M5.5.5h9.63a0,0,0,0,1,0,0V8.58a3,3,0,0,1-3,3H8.54a3,3,0,0,1-3-3V.5A0,0,0,0,1,5.5.5Z"/><path class="cls-2" d="M6.57,20.32a4.15,4.15,0,1,1,3.74,2.35A4.07,4.07,0,0,1,8.6,22.3"/><circle class="cls-9" cx="7.53" cy="21.46" r="0.52"/><rect class="cls-2" x="30.44" y="14.72" width="15.58" height="1.95" rx="0.61" ry="0.61" transform="translate(22.53 53.92) rotate(-90)"/><path class="cls-10" d="M31.77,22a1.73,1.73,0,0,0-.23.84V33.33a1.69,1.69,0,0,0,3.38,0v-10A7.81,7.81,0,0,1,31.77,22Z"/><path class="cls-2" d="M37.25,22.87V8.52A.59.59,0,0,1,37.52,8a7.36,7.36,0,0,0-1.25-.12,7.79,7.79,0,0,0,0,15.57,7.36,7.36,0,0,0,1.25-.12A.59.59,0,0,1,37.25,22.87Z"/><circle class="cls-2" cx="10.31" cy="3.31" r="1.02"/><circle class="cls-2" cx="10.31" cy="7.49" r="1.85"/></g></g></g></svg>