<svg xmlns="http://www.w3.org/2000/svg" viewBox="0 0 48.76 47.21"><defs><style>.cls-1{fill:#ffd092;}.cls-1,.cls-2,.cls-3,.cls-5,.cls-6,.cls-7{stroke:#0b4054;stroke-linecap:round;stroke-linejoin:round;}.cls-2{fill:#8de4ff;}.cls-3{fill:#ae96cc;}.cls-4{fill:#fff;}.cls-5{fill:none;}.cls-6{fill:#ffbdc2;}.cls-7{fill:#a6e872;}</style></defs><title>wifi</title><g id="Layer_2" data-name="Layer 2"><g id="Layer_1-2" data-name="Layer 1"><g id="wifi"><rect class="cls-1" x="4.88" y="5.62" width="39" height="25.62"/><rect class="cls-2" x="6.13" y="7.67" width="36.49" height="21.51"/><rect class="cls-1" x="0.5" y="35.99" width="47.76" height="2.24"/><polygon class="cls-3" points="43.88 31.23 4.88 31.23 0.5 35.94 48.26 35.94 43.88 31.23"/><path class="cls-4" d="M43.17,38a20.35,20.35,0,0,0,5.09-.67V36H34.44A20.13,20.13,0,0,0,43.17,38Z"/><path class="cls-4" d="M43.88,5.62h-17a20.21,20.21,0,0,0,7.41,30.32H48.26l-4.38-4.71Z"/><rect class="cls-5" x="4.88" y="5.62" width="39" height="25.62"/><rect class="cls-5" x="6.13" y="7.67" width="36.49" height="21.51"/><rect class="cls-5" x="0.5" y="35.99" width="47.76" height="2.24"/><polygon class="cls-5" points="43.88 31.23 4.88 31.23 0.5 35.94 48.26 35.94 43.88 31.23"/><rect class="cls-6" x="2.13" y="17.28" width="15.5" height="29.43"/><line class="cls-5" x1="7.02" y1="18.77" x2="10.44" y2="18.77"/><line class="cls-5" x1="12.01" y1="18.77" x2="12.74" y2="18.77"/><line class="cls-5" x1="7.52" y1="45" x2="12.24" y2="45"/><rect class="cls-7" x="3.77" y="20.61" width="12.21" height="22.77"/><path class="cls-6" d="M48.26,6.55a20.09,20.09,0,0,0-28.74,0L33.89,20.61Z"/><path class="cls-6" d="M43.72,11a14.67,14.67,0,0,0-19.66,0l9.83,9.61Z"/><path class="cls-6" d="M38.83,15.77a9.16,9.16,0,0,0-9.89,0l4.95,4.84Z"/></g></g></g></svg>